<svg width="64" height="64" viewBox="0 0 64 64" xmlns="http://www.w3.org/2000/svg">
  <rect width="64" height="64" rx="32" fill="#ED6B1E" />
  <path
    d="M35.9853 39.0338C34.3803 39.1072 34.5436 38.2688 35.4819 36.9772C37.6819 34.0306 41.8485 29.9173 41.9918 27.0074C42.2435 23.2024 38.4202 21.9641 34.4903 22.0008C31.7487 22.0375 28.9171 22.8208 26.9888 23.5108C20.3339 25.8591 16.1489 29.6273 13.5157 33.7939C10.7207 37.9239 11.6407 41.8721 17.5373 42.0004C22.0638 41.8188 25.0038 40.5638 28.0704 38.9972C28.0871 38.9972 19.5939 41.4188 16.4739 39.6355L16.4606 39.6322C16.1389 39.4488 15.7873 39.1922 15.699 38.4938C15.679 37.0189 18.1322 35.4906 19.5039 34.9989V32.4439C20.5426 32.8482 21.6476 33.0551 22.7622 33.0539C24.8795 33.0567 26.9294 32.3098 28.5487 30.9456C28.6104 31.1623 28.6421 31.409 28.6221 31.6906H29.2404C29.3204 31.034 28.9537 30.514 28.9537 30.514C28.3987 29.6323 27.4288 29.6473 27.4288 29.6473C27.4288 29.6473 27.9537 29.8757 28.3104 30.424C27.249 31.3146 25.9804 31.9237 24.6217 32.1952C23.2629 32.4666 21.8577 32.3917 20.5355 31.9773L22.5522 29.9773L21.9922 28.5207C26.0504 27.1007 29.4587 26.0091 35.012 25.0457L33.7686 24.0058L34.417 23.6058C37.7669 24.5524 39.9585 25.2474 39.8385 27.024C39.7678 27.3758 39.6547 27.7177 39.5019 28.0424C38.5286 29.9723 35.6253 33.1923 34.4536 34.5389C33.6786 35.4306 32.9203 36.3055 32.3787 37.1422C31.8203 37.9805 31.4787 38.7605 31.4604 39.5088C31.532 45.3487 48.6834 36.7755 52 34.5039C47.0951 36.6139 41.8118 38.6522 35.9853 39.0338Z"
    fill="#DEE2E6" />
</svg>