<svg width="64" height="64" viewBox="0 0 64 64" xmlns="http://www.w3.org/2000/svg">
  <rect width="64" height="64" rx="32" fill="#FF9A00" />
  <path fill-rule="evenodd" clip-rule="evenodd"
    d="M34.9429 29.8822C34.9429 31.9426 34.992 33.6602 33.9526 35.4908C33.1132 36.9798 31.7772 37.8938 30.2932 37.8938C28.2654 37.8938 27.0784 36.3494 27.0784 34.0598C27.0784 29.5569 31.1181 28.7383 34.9429 28.7383V29.8822ZM40.274 42.7734C39.9234 43.0869 39.4182 43.1087 39.0239 42.8961C37.2668 41.437 36.9525 40.762 35.9931 39.3729C33.0913 42.3292 31.0354 43.2158 27.2764 43.2158C22.8246 43.2158 19.3633 40.4695 19.3633 34.9756C19.3633 30.6834 21.6872 27.7653 25.0011 26.3342C27.8697 25.075 31.8767 24.8466 34.9428 24.5027V23.8159C34.9428 22.5577 35.0409 21.0691 34.2996 19.9819C33.6563 19.0089 32.4199 18.6088 31.3324 18.6088C29.316 18.6088 27.5226 19.6417 27.0829 21.7831C26.9907 22.2601 26.6436 22.731 26.1635 22.7557L21.0395 22.2006C20.6071 22.1034 20.1255 21.7558 20.2509 21.0954C21.4279 14.8784 27.0425 13 32.0738 13C34.6458 13 38.0091 13.6868 40.0369 15.6325C42.6089 18.0364 42.3618 21.2411 42.3618 24.7321V32.9688C42.3618 35.4463 43.3902 36.5338 44.3569 37.8702C44.6948 38.3499 44.7711 38.9222 44.3405 39.2729C43.2603 40.1787 41.3406 41.8458 40.2848 42.7852L40.274 42.7734ZM47.5195 44.2389C42.6098 46.3213 37.2741 47.3279 32.4209 47.3279C25.2246 47.3279 18.2585 45.3546 12.6258 42.0757C12.1325 41.7886 11.7672 42.2947 12.177 42.6653C17.3983 47.3805 24.298 50.2133 31.9604 50.2133C37.4278 50.2133 43.7764 48.4934 48.1563 45.2619C48.8803 44.7259 48.2599 43.9246 47.5195 44.2389ZM48.8268 48.1746C48.6669 48.5743 49.0103 48.736 49.3719 48.4326C51.7213 46.4666 52.3282 42.3492 51.8467 41.7542C51.3697 41.1646 47.2623 40.6566 44.7548 42.4165C44.3695 42.689 44.4368 43.0615 44.8639 43.0106C46.2757 42.8407 49.4182 42.4638 49.9788 43.1815C50.5384 43.8991 49.3555 46.8536 48.8268 48.1746Z"
    fill="#DEE2E6" />
</svg>