<svg width="64" height="64" viewBox="0 0 64 64" xmlns="http://www.w3.org/2000/svg">
  <rect width="64" height="64" rx="32" fill="#1769FF" />
  <path fill-rule="evenodd" clip-rule="evenodd"
    d="M37.9588 23.2338H48.1335V20.3201H37.9588V23.2338ZM42.9741 29.0857C40.7044 29.0857 38.9806 30.4918 38.8147 33.09H46.9576C46.4057 30.0064 45.0359 29.0857 42.9741 29.0857ZM43.2921 41.1369C45.3878 41.1369 46.9257 39.813 47.2396 38.6977H51.6471C50.3872 42.7314 47.7855 44.9968 43.1141 44.9968C37.1529 44.9968 33.8073 40.7569 33.8073 35.1308C33.8073 21.8815 52.9249 21.4065 51.965 36.368H38.8147C38.9426 39.4061 40.1965 41.1369 43.2921 41.1369ZM23.4586 40.554C25.8643 40.554 27.5481 39.6286 27.5481 37.1315C27.5481 34.5416 26.0603 33.4181 23.5626 33.4181H17.5353V40.554H23.4586ZM23.1406 29.5231C25.1424 29.5231 26.5242 28.5913 26.5242 26.4268C26.5242 24.1467 24.9164 23.4428 22.7187 23.4428H17.5353V29.5231H23.1406ZM23.8465 19C28.5879 19 31.8835 20.5672 31.8835 25.4435C31.8835 27.858 30.9136 29.6572 28.464 30.8696C31.5996 31.8011 33.0834 34.2469 33.0834 37.4606C33.0834 42.5621 29.0379 44.9968 24.1985 44.9968H12V19H23.8465Z"
    fill="#DEE2E6" />
</svg>