<svg width="64" height="64" viewBox="0 0 64 64" xmlns="http://www.w3.org/2000/svg">
  <rect width="64" height="64" rx="32" fill="#EE6996" />
  <path
    d="M31 26.125C28.75 21.875 26.375 17.875 23.875 13.875C17.75 16.5 13.25 22.25 12.25 29.125C18.25 29.25 24.5 28.25 31 26.125Z"
    fill="#DEE2E6" />
  <path
    d="M33.375 25.25C37.875 23.5 42.25 21.25 46.75 18.5C43 14.5 37.875 12 32 12C30 12 28 12.25 26.25 12.875C28.75 16.875 31.125 21 33.375 25.25Z"
    fill="#DEE2E6" />
  <path
    d="M36.875 32.625C40.5 31.625 44.375 31 48.25 31C49.5 31 50.625 31 51.875 31.125C51.75 27.125 50.375 23.375 48.25 20.375C43.625 23.375 39 25.75 34.5 27.5C35.25 29.25 36.125 30.875 36.875 32.625Z"
    fill="#DEE2E6" />
  <path
    d="M34.5 33.375C33.75 31.625 32.875 30 32 28.25C25.75 30.375 19.625 31.5 13.75 31.5C13.125 31.5 12.625 31.5 12 31.5C12 31.625 12 31.75 12 32C12 37 13.875 41.5 16.875 45C21.875 39.625 27.875 35.75 34.5 33.375Z"
    fill="#DEE2E6" />
  <path
    d="M48.375 33.625C44.875 33.625 41.375 34.125 38 35C40 39.375 41.625 44 43.25 48.625C48.125 45.375 51.375 40 52 33.875C50.75 33.625 49.5 33.625 48.375 33.625Z"
    fill="#DEE2E6" />
  <path
    d="M35.625 35.75C29.25 37.875 23.5 41.625 18.625 46.875C22.125 50 26.875 52 32 52C35.25 52 38.25 51.25 41 49.875C39.375 45 37.625 40.375 35.625 35.75Z"
    fill="#DEE2E6" />
</svg>