<svg width="64" height="64" viewBox="0 0 64 64" xmlns="http://www.w3.org/2000/svg">
  <rect width="64" height="64" rx="32" fill="#DEE2E6" />
  <path
    d="M17.1723 27.4678C14.351 27.4678 12 28.6548 12 32.2361C12 35.0733 13.5809 36.8599 17.2452 36.8599C21.5582 36.8599 21.8347 34.0423 21.8347 34.0423H19.7448C19.7448 34.0423 19.2967 35.5595 17.1177 35.5595C15.3429 35.5595 14.0664 34.3705 14.0664 32.7039H22.0532V31.6581C22.0532 30.0094 20.9978 27.4678 17.1723 27.4678ZM17.0995 28.8043C18.7889 28.8043 19.9406 29.8308 19.9406 31.3691H14.1126C14.1126 29.736 15.6159 28.8043 17.0995 28.8043Z"
    fill="#E53238" />
  <path
    d="M22.053 24V35.0615C22.053 35.6894 22.0078 36.571 22.0078 36.571H24.0011C24.0011 36.571 24.0727 35.9378 24.0727 35.3592C24.0727 35.3592 25.0575 36.8871 27.7353 36.8871C30.5551 36.8871 32.4705 34.9456 32.4705 32.164C32.4705 29.5762 30.7111 27.495 27.7398 27.495C24.9574 27.495 24.0928 28.9851 24.0928 28.9851V24H22.053ZM27.2253 28.8631C29.1402 28.8631 30.3578 30.2726 30.3578 32.164C30.3578 34.1921 28.9515 35.5189 27.239 35.5189C25.1952 35.5189 24.0928 33.9364 24.0928 32.182C24.0928 30.5473 25.082 28.8631 27.2253 28.8631Z"
    fill="#0064D2" />
  <path
    d="M37.4223 27.4678C33.1779 27.4678 32.9056 29.7726 32.9056 30.1409H35.0183C35.0183 30.1409 35.1291 28.7953 37.2766 28.7953C38.6721 28.7953 39.7535 29.4288 39.7535 30.6467V31.0801H37.2766C33.9884 31.0801 32.25 32.0341 32.25 33.97C32.25 35.8752 33.8562 36.9119 36.0268 36.9119C38.985 36.9119 39.9379 35.2908 39.9379 35.2908C39.9379 35.9356 39.988 36.5709 39.988 36.5709H41.8661C41.8661 36.5709 41.7933 35.7834 41.7933 35.2795V30.9244C41.7933 28.0687 39.4707 27.4678 37.4223 27.4678ZM39.7535 32.3806V32.9586C39.7535 33.7124 39.2844 35.5866 36.5231 35.5866C35.011 35.5866 34.3626 34.8381 34.3626 33.97C34.3626 32.3908 36.5459 32.3806 39.7535 32.3806Z"
    fill="#F5AF02" />
  <path
    d="M40.6562 27.8296H43.0325L46.4434 34.6068L49.847 27.8296H51.9998L45.801 39.895H43.5428L45.3314 36.5314L40.6562 27.8296Z"
    fill="#86B817" />
</svg>