<svg width="64" height="64" viewBox="0 0 64 64" fill="none" xmlns="http://www.w3.org/2000/svg">
<path d="M43.0662 25.9045L32.4304 19.7639C32.2996 19.6883 32.1511 19.6484 32 19.6484C31.8488 19.6484 31.7004 19.6883 31.5695 19.7639L20.9338 25.9045C20.803 25.9799 20.6943 26.0884 20.6187 26.2191C20.543 26.3498 20.5031 26.4981 20.5029 26.6492V38.9303C20.5029 39.2373 20.6675 39.5215 20.9338 39.6758L31.5695 45.8164C31.8359 45.9699 32.1632 45.9699 32.4304 45.8164L43.0662 39.6758C43.3325 39.5223 43.4962 39.2382 43.4962 38.9303V26.6492C43.4962 26.3413 43.3325 26.058 43.0662 25.9036V25.9045Z" fill="#8080F2"/>
<path d="M4.34561 31.4979L17.0542 9.38926C17.5156 8.58946 18.3689 8 19.2916 8H44.708C45.6317 8 46.4841 8.58946 46.9463 9.38926L59.6541 31.4496C59.8808 31.8466 60 32.2959 60 32.7531C60 33.2104 59.8808 33.6597 59.6541 34.0568L46.9463 55.9847C46.4841 56.7837 45.6317 57.1925 44.708 57.1925H19.2916C18.3689 57.1925 17.5156 56.7964 17.0542 55.9966L4.34645 34.033C4.11964 33.6489 4 33.2111 4 32.765C4 32.319 4.11964 31.8811 4.34645 31.497L4.34561 31.4979ZM14.8686 42.1286C14.8686 42.4542 15.0645 42.7545 15.3461 42.9173L31.5338 52.2563C31.8154 52.4191 32.1682 52.4191 32.4498 52.2563L48.6494 42.9173C48.931 42.7545 49.1277 42.4542 49.1277 42.1286V23.4498C49.1277 23.125 48.9335 22.8239 48.6528 22.6611L32.4642 13.3238C32.3249 13.2439 32.1672 13.2019 32.0066 13.2019C31.8461 13.2019 31.6883 13.2439 31.5491 13.3238L15.3478 22.6619C15.0662 22.8247 14.8677 23.1258 14.8677 23.4507V42.1294L14.8686 42.1286Z" fill="#4B32C3"/>
</svg>
