<svg width="233" height="38" viewBox="0 0 233 38" xmlns="http://www.w3.org/2000/svg">
  <path
    d="M115.393 32.0498C115.295 32.0498 115.2 32.0788 115.118 32.1332C115.037 32.1876 114.974 32.2649 114.936 32.3553C114.899 32.4457 114.889 32.5452 114.908 32.6412C114.927 32.7372 114.974 32.8254 115.043 32.8946C115.113 32.9638 115.201 33.0109 115.297 33.03C115.393 33.0491 115.492 33.0393 115.583 33.0019C115.673 32.9644 115.75 32.901 115.805 32.8196C115.859 32.7382 115.888 32.6425 115.888 32.5447C115.888 32.4134 115.836 32.2875 115.743 32.1947C115.65 32.1019 115.525 32.0498 115.393 32.0498Z"
    fill="#D4D4D4" />
  <path
    d="M133.12 28.8515L127.754 26.1684C127.926 26.0544 128.067 25.8996 128.165 25.7177C128.263 25.5358 128.314 25.3325 128.315 25.1259C128.315 25.1004 128.309 25.0763 128.307 25.0512L132.885 27.3404C132.922 27.3584 132.962 27.3679 133.002 27.368C133.061 27.3681 133.119 27.3482 133.165 27.3116C133.211 27.275 133.244 27.2238 133.258 27.1663C133.271 27.1089 133.265 27.0485 133.24 26.995C133.215 26.9416 133.173 26.8981 133.12 26.8717L128.01 24.3167C127.901 24.1895 127.769 24.0854 127.619 24.0107C127.47 23.936 127.307 23.8922 127.14 23.8819L127.02 23.8219C126.851 23.6227 126.624 23.4817 126.37 23.4189C126.219 22.9571 126.041 22.5049 125.835 22.0649V17.7033C125.839 17.5867 125.8 17.4727 125.724 17.3839C125.648 17.295 125.542 17.2378 125.426 17.2234C125.293 17.2071 125.158 17.2402 125.047 17.3166C124.935 17.3929 124.856 17.5072 124.824 17.638L124.408 19.3017C124.265 19.126 124.067 19.0023 123.847 18.9501C123.714 18.9194 123.577 18.9142 123.443 18.9347L123.458 18.8146L123.598 17.7564C123.613 17.6607 123.599 17.5629 123.559 17.4747C123.519 17.3866 123.455 17.3118 123.374 17.2594C123.277 17.196 123.162 17.166 123.046 17.1739C122.954 17.1798 122.865 17.211 122.789 17.264C122.707 17.3225 122.644 17.4037 122.607 17.4976L121.381 20.5635C121.363 20.5984 121.301 20.7238 121.208 20.9148L113.322 16.972C113.26 16.9409 113.188 16.9358 113.122 16.9578C113.056 16.9798 113.002 17.027 112.971 17.0892C112.94 17.1513 112.935 17.2233 112.957 17.2892C112.979 17.3551 113.026 17.4096 113.088 17.4407L121.211 21.5023L122.664 22.2287L122.671 22.2322L123.717 22.756C123.785 22.8619 123.825 22.9838 123.832 23.1097C123.838 23.2355 123.812 23.361 123.755 23.4735C123.699 23.5861 123.614 23.6819 123.508 23.7515C123.403 23.821 123.282 23.8619 123.156 23.8701L113.321 18.9504C113.258 18.9193 113.186 18.9142 113.121 18.9362C113.055 18.9582 113 19.0054 112.969 19.0676C112.938 19.1297 112.933 19.2017 112.955 19.2676C112.977 19.3335 113.024 19.388 113.086 19.4191L120.256 23.004C119.367 25.0885 118.904 26.622 118.884 27.5611C118.88 27.5725 118.878 27.5842 118.876 27.596C118.858 29.447 116.119 30.3092 116.087 30.3201C114.781 30.7472 113.433 31.9754 113.433 33.2913C113.433 33.3549 113.437 33.4167 113.441 33.4789C113.44 33.4818 113.439 33.4849 113.438 33.488C112.932 36.0374 114.517 36.7229 114.585 36.7509C114.625 36.7673 114.668 36.7736 114.711 36.7694C114.753 36.7651 114.795 36.7504 114.83 36.7264C114.866 36.7025 114.895 36.6701 114.916 36.6322C114.936 36.5942 114.947 36.5519 114.947 36.5088V36.0178C115.172 36.106 115.418 36.1287 115.656 36.0833C115.893 36.0379 116.113 35.9262 116.29 35.7611C118.088 35.6832 119.843 35.185 121.414 34.3066C122.985 33.4282 124.328 32.1939 125.336 30.7028C126.234 29.3981 126.748 27.8672 126.818 26.2847L132.885 29.3185C132.922 29.3365 132.962 29.3459 133.002 29.346C133.061 29.3461 133.119 29.3262 133.165 29.2896C133.211 29.253 133.244 29.2019 133.258 29.1444C133.271 29.0869 133.265 29.0266 133.24 28.9731C133.215 28.9196 133.173 28.8762 133.12 28.8498V28.8515ZM125.311 17.8507V21.0458L125.309 21.042L124.778 19.9806L125.311 17.8507ZM122.862 19.3038L122.726 20.3774L122.568 21.5969L121.675 21.1506C121.785 20.9232 121.851 20.7916 121.852 20.7905C121.855 20.7838 121.858 20.7769 121.861 20.7699L122.476 19.2333L123.077 17.6914L122.87 19.2815C122.868 19.2871 122.863 19.2941 122.862 19.3024V19.3038ZM123.18 21.9035L123.069 21.848L123.246 20.4451L123.37 19.4942C123.481 19.4436 123.605 19.4313 123.724 19.4592C123.799 19.4772 123.869 19.5115 123.929 19.5599C123.989 19.6082 124.037 19.6692 124.071 19.7386L124.266 20.1287L124.277 20.1511L124.844 21.2836L124.851 21.2969C125.025 21.599 125.188 21.9112 125.336 22.2252C125.486 22.5434 125.62 22.8618 125.738 23.1803L125.039 22.8311C124.931 22.704 124.798 22.5999 124.649 22.5252C124.499 22.4505 124.336 22.4067 124.17 22.3963L124.049 22.3362C123.941 22.2092 123.808 22.1053 123.659 22.0307C123.51 21.9561 123.347 21.9124 123.18 21.9021V21.9035ZM124.355 23.1475C124.355 23.122 124.349 23.0979 124.347 23.0724L124.705 23.2516C124.773 23.3573 124.813 23.479 124.82 23.6047C124.827 23.7304 124.801 23.8558 124.744 23.9683C124.688 24.0809 124.603 24.1767 124.498 24.2463C124.393 24.3159 124.272 24.357 124.146 24.3653L123.797 24.1907C123.969 24.0761 124.11 23.9208 124.207 23.7385C124.304 23.5562 124.355 23.3527 124.355 23.1461V23.1475ZM120.723 23.2404L122.033 23.8959C121.403 24.7211 120.951 25.6686 120.706 26.6779L120.703 26.6898C120.524 27.38 120.413 28.086 120.372 28.7977C120.337 28.7901 120.302 28.7771 120.267 28.7663C120.232 28.7555 120.201 28.7489 120.17 28.7363C120.125 28.7168 120.08 28.6945 120.038 28.6696C120.018 28.6591 119.998 28.6497 119.979 28.6378C119.936 28.61 119.894 28.5795 119.855 28.5467C119.84 28.5344 119.825 28.5229 119.81 28.51C119.771 28.4742 119.734 28.436 119.699 28.3954C119.688 28.3832 119.678 28.3706 119.668 28.3581C119.633 28.3137 119.601 28.267 119.573 28.2184C119.567 28.2082 119.561 28.1974 119.556 28.1873C119.526 28.1339 119.5 28.0783 119.478 28.0211V28.0183C119.43 27.8853 119.405 27.7449 119.405 27.6034C119.413 26.7544 119.868 25.2485 120.723 23.239L120.723 23.2404ZM122.169 24.6069L121.848 27.0718C121.831 27.1993 121.809 27.3191 121.783 27.4343C121.774 27.4738 121.764 27.5101 121.754 27.5482C121.736 27.6205 121.717 27.6914 121.696 27.7577C121.682 27.8 121.667 27.8402 121.652 27.8803C121.631 27.9372 121.609 27.9924 121.585 28.0448C121.568 28.0822 121.55 28.1192 121.532 28.1541C121.506 28.2047 121.478 28.2512 121.449 28.2962C121.431 28.3249 121.414 28.3549 121.394 28.3815C121.357 28.4305 121.317 28.4772 121.274 28.5212C121.262 28.5341 121.25 28.5498 121.238 28.562C121.183 28.615 121.123 28.6619 121.058 28.7017C121.051 28.7059 121.043 28.708 121.036 28.7122C120.993 28.7351 120.948 28.7542 120.902 28.7695C120.949 28.0263 121.168 26.1146 122.17 24.6055L122.169 24.6069ZM114.435 35.4377V35.4402C114.426 35.4661 114.422 35.4932 114.422 35.5205V36.0003C114.104 35.677 113.72 35.0159 113.917 33.7817C113.947 33.7817 113.979 33.7817 114.016 33.7817H114.026C114.065 33.7838 114.108 33.7883 114.154 33.7946L114.188 33.8002C114.235 33.808 114.281 33.8181 114.326 33.8306L114.352 33.8368C114.41 33.854 114.467 33.8748 114.523 33.899C114.536 33.9042 114.548 33.9112 114.561 33.9168C114.609 33.9398 114.657 33.9655 114.702 33.9936C114.719 34.0038 114.737 34.0139 114.752 34.0251C114.793 34.052 114.833 34.0848 114.873 34.1176L114.435 35.4377ZM114.987 35.4377L115.174 34.8751C115.185 34.8971 115.196 34.9184 115.209 34.9408C115.24 34.997 115.276 35.0529 115.314 35.1091C115.325 35.1252 115.334 35.1416 115.345 35.158C115.398 35.2308 115.455 35.2999 115.517 35.3647C115.533 35.3822 115.551 35.3997 115.57 35.415C115.61 35.4538 115.648 35.4933 115.693 35.5292C115.578 35.5808 115.451 35.5996 115.327 35.5836C115.202 35.5675 115.084 35.5171 114.987 35.4381V35.4377ZM116.209 35.2446C116.196 35.2376 116.182 35.2303 116.169 35.2226C116.149 35.2111 116.13 35.1992 116.111 35.1877C116.092 35.1762 116.073 35.1608 116.054 35.1468C116.036 35.1328 116.019 35.1199 116.002 35.1056C115.984 35.0913 115.967 35.0756 115.951 35.0602C115.936 35.0448 115.92 35.0305 115.905 35.0152C115.89 34.9998 115.875 34.9823 115.86 34.9656C115.845 34.9488 115.833 34.9341 115.82 34.9181C115.807 34.902 115.793 34.8831 115.78 34.8657C115.768 34.8482 115.756 34.8332 115.745 34.8164C115.734 34.7997 115.722 34.7815 115.71 34.763C115.698 34.7445 115.689 34.7281 115.68 34.7124C115.67 34.6967 115.66 34.6775 115.651 34.6586C115.641 34.6397 115.633 34.6237 115.624 34.6083C115.616 34.5929 115.608 34.5734 115.6 34.5549C115.592 34.5364 115.585 34.5224 115.578 34.5063C115.571 34.4903 115.564 34.4714 115.557 34.4546C115.551 34.4379 115.545 34.4232 115.54 34.4078C115.534 34.3925 115.529 34.3761 115.523 34.3603C115.518 34.3446 115.513 34.33 115.509 34.3156C115.504 34.3013 115.5 34.2867 115.496 34.2727C115.492 34.2587 115.488 34.2447 115.484 34.2318C115.481 34.2189 115.477 34.2053 115.474 34.192C115.47 34.1787 115.468 34.169 115.466 34.1571L115.458 34.1222C115.456 34.1141 115.454 34.1051 115.453 34.0974C115.451 34.0897 115.449 34.0796 115.448 34.0712C115.446 34.0628 115.445 34.0558 115.444 34.0502V34.0422C115.441 34.0226 115.439 34.0097 115.439 34.0073C115.436 33.9769 115.427 33.9473 115.414 33.92C115.41 33.9133 115.405 33.9088 115.401 33.9025C115.391 33.8835 115.379 33.8658 115.364 33.8498C115.36 33.8463 115.357 33.8438 115.353 33.8403L115.35 33.8368C115.278 33.7666 115.201 33.7016 115.119 33.6423C115.097 33.6259 115.075 33.6109 115.053 33.5959C114.987 33.5505 114.918 33.5093 114.846 33.4726C114.833 33.466 114.82 33.4576 114.807 33.4513C114.729 33.4134 114.648 33.3808 114.565 33.3538L114.523 33.3413C114.455 33.3208 114.386 33.304 114.317 33.291L114.29 33.2858C114.18 33.2661 114.068 33.256 113.956 33.2554C113.983 32.2042 115.159 31.1757 116.245 30.8205C116.352 30.7877 118.484 30.1192 119.181 28.5854C119.372 28.8622 119.638 29.0785 119.948 29.2088C120.047 29.2504 120.151 29.2825 120.256 29.3048C120.271 29.308 120.286 29.3104 120.301 29.3132C120.407 29.3348 120.514 29.3465 120.622 29.3481H120.626H120.63C120.651 29.3481 120.67 29.3447 120.691 29.3436C120.695 29.3446 120.698 29.3454 120.702 29.346C120.71 29.346 120.718 29.346 120.726 29.346C120.734 29.346 120.751 29.3405 120.763 29.3394C120.845 29.3318 120.926 29.3167 121.005 29.2944C121.024 29.2895 121.04 29.2846 121.059 29.279C121.132 29.2541 121.202 29.2232 121.269 29.1868C121.306 29.1669 121.342 29.1445 121.378 29.1208C121.414 29.097 121.448 29.0712 121.483 29.0443C121.559 28.9847 121.629 28.9186 121.693 28.8466C121.712 28.8257 121.731 28.8065 121.749 28.7845C121.788 28.7359 121.825 28.6839 121.861 28.6298C121.881 28.6015 121.898 28.5714 121.916 28.5414C121.947 28.4901 121.98 28.4419 122.008 28.386C122.013 28.4021 122.021 28.4171 122.026 28.4332C122.064 28.5456 122.106 28.6561 122.155 28.7642C122.17 28.7991 122.185 28.8316 122.201 28.8648C122.26 28.9889 122.327 29.1093 122.4 29.2256C122.403 29.2301 122.407 29.2339 122.409 29.2385C122.482 29.3492 122.561 29.4556 122.646 29.5573C122.67 29.5863 122.694 29.6146 122.718 29.6425C122.797 29.7326 122.881 29.8186 122.968 29.9003C122.982 29.9132 122.995 29.9275 123.009 29.9401C123.111 30.0307 123.218 30.1154 123.33 30.1936C123.359 30.2142 123.389 30.2331 123.418 30.253C123.511 30.3152 123.608 30.3727 123.709 30.4255C123.735 30.4395 123.761 30.4549 123.788 30.4685C123.912 30.5296 124.039 30.5834 124.168 30.6295C124.199 30.6403 124.229 30.6487 124.26 30.6585C124.369 30.6939 124.48 30.7237 124.592 30.7479C124.614 30.7528 124.635 30.7615 124.658 30.766C123.676 32.0989 122.407 33.1935 120.945 33.9689C119.482 34.7443 117.864 35.1804 116.209 35.245L116.209 35.2446ZM126.302 26.0947C126.302 26.1015 126.302 26.1084 126.302 26.1153C126.269 27.6007 125.812 29.0459 124.986 30.2809C124.963 30.2782 124.939 30.2761 124.915 30.2726C124.871 30.2663 124.827 30.2593 124.783 30.2509C124.74 30.2425 124.687 30.2317 124.64 30.2202C124.592 30.2087 124.556 30.1992 124.514 30.1874C124.467 30.1737 124.421 30.1587 124.375 30.143C124.328 30.1273 124.294 30.1151 124.254 30.0993C124.209 30.0815 124.164 30.062 124.12 30.0421C124.082 30.025 124.044 30.0071 124.007 29.989C123.963 29.967 123.92 29.9429 123.877 29.9191C123.842 29.8992 123.807 29.8797 123.772 29.8584C123.729 29.8315 123.687 29.8028 123.646 29.7739C123.614 29.7519 123.583 29.7302 123.552 29.7072C123.51 29.6754 123.47 29.6415 123.429 29.6076C123.402 29.5842 123.374 29.5612 123.347 29.5378C123.306 29.5004 123.267 29.4609 123.228 29.4215C123.205 29.3977 123.181 29.3747 123.158 29.3516C123.118 29.308 123.08 29.2622 123.042 29.2161C123.024 29.1934 123.004 29.1714 122.987 29.1484C122.947 29.097 122.911 29.0436 122.875 28.9895C122.861 28.9696 122.846 28.95 122.833 28.9294C122.795 28.8683 122.759 28.8051 122.725 28.7412C122.717 28.7262 122.708 28.7118 122.7 28.6968C122.662 28.6231 122.628 28.5473 122.595 28.4702C122.593 28.4635 122.589 28.4576 122.587 28.451C122.482 28.1915 122.415 27.9184 122.388 27.64C122.388 27.6264 122.388 27.6128 122.386 27.5992C122.379 27.5224 122.375 27.4448 122.374 27.3666L122.765 24.2626L126.303 26.0318C126.303 26.0699 126.302 26.0922 126.302 26.0954L126.302 26.0947ZM126.125 25.3533L124.784 24.6827C124.956 24.5688 125.098 24.414 125.196 24.2321C125.294 24.0502 125.345 23.8468 125.345 23.6403C125.345 23.6148 125.339 23.5907 125.338 23.5655L126.071 23.9322L126.685 24.2392C126.753 24.3449 126.793 24.4667 126.8 24.5924C126.806 24.7181 126.78 24.8435 126.724 24.9561C126.668 25.0686 126.583 25.1645 126.478 25.2341C126.373 25.3038 126.252 25.3449 126.126 25.3533H126.125ZM127.115 25.8481L126.765 25.6735C126.938 25.5595 127.079 25.4047 127.177 25.2228C127.275 25.0409 127.326 24.8376 127.326 24.631C127.326 24.6052 127.32 24.5815 127.319 24.556L127.677 24.7348C127.745 24.8405 127.785 24.9622 127.791 25.088C127.798 25.2137 127.772 25.3391 127.716 25.4516C127.659 25.5642 127.574 25.66 127.47 25.7297C127.365 25.7994 127.243 25.8404 127.118 25.8488L127.115 25.8481Z"
    fill="#D4D4D4" />
  <rect width="100" height="0.48" transform="translate(133 27)" fill="#D4D4D4" />
  <rect width="100" height="0.48" transform="translate(133 29)" fill="#D4D4D4" />
  <rect width="100" height="0.25" transform="translate(0 10.5498)" fill="#D4D4D4" />
  <rect width="100" height="0.25" transform="translate(0 12.3496)" fill="#D4D4D4" />
  <path
    d="M108.866 1.9355C109.079 1.9355 109.252 1.76281 109.252 1.54978C109.252 1.33675 109.079 1.16406 108.866 1.16406C108.653 1.16406 108.48 1.33675 108.48 1.54978C108.48 1.76281 108.653 1.9355 108.866 1.9355Z"
    fill="#D4D4D4" />
  <path
    d="M113.379 18.9893L110.979 17.8423L110.746 17.7258L109.433 17.0692L109.394 17.0498L108.303 16.5044L107.949 16.3275L105.598 15.1519C105.624 15.0901 105.626 15.021 105.603 14.9579C105.503 14.6798 105.623 14.5711 105.703 14.5323L106.691 14.2028L106.89 14.3022L108.115 14.9144H108.116L109.658 15.6851L113.093 17.4269C113.112 17.4363 113.298 17.4995 113.319 17.4996C113.35 17.4996 113.38 17.4893 113.404 17.4703C113.428 17.4512 113.445 17.4246 113.452 17.3948C113.459 17.3649 113.455 17.3336 113.442 17.3058C113.429 17.278 113.388 17.0215 113.36 17.0078L109.895 15.5C110.033 15.1533 110.399 14.0544 110.555 11.8223C110.603 11.1466 110.627 10.4158 110.627 9.65003C110.627 5.76509 109.026 4.65946 108.589 4.43014C108.638 4.22893 108.748 3.94191 108.895 3.88349C109.021 4.02708 109.196 4.11889 109.386 4.1413C109.405 4.14293 109.424 4.14384 109.443 4.14384C109.592 4.13923 109.738 4.09064 109.86 4.00414C109.851 4.08199 109.826 4.15723 109.788 4.22536C109.749 4.2935 109.697 4.35314 109.634 4.40074C109.609 4.42095 109.592 4.44935 109.586 4.48092C109.58 4.5125 109.585 4.54521 109.601 4.57327C109.617 4.60133 109.642 4.62294 109.672 4.63427C109.702 4.64559 109.735 4.6459 109.766 4.63515C109.811 4.61864 110.88 4.22095 110.884 3.22726C110.9 2.96405 110.863 2.70031 110.775 2.45165C110.748 2.38025 110.717 2.31088 110.68 2.24409C110.767 2.17799 110.835 2.08909 110.875 1.98719C110.931 1.84913 110.894 1.46522 110.635 1.08005C110.304 0.587286 109.565 0 107.92 0C107.527 0.000540856 107.135 0.0442851 106.752 0.130446C105.475 0.439313 104.321 1.12822 103.444 2.10621C103.422 2.13231 103.411 2.16558 103.413 2.19948C103.414 2.23339 103.429 2.26547 103.453 2.28945L103.576 2.413L103.231 2.58572C103.212 2.59529 103.195 2.6093 103.183 2.62661C103.17 2.64393 103.161 2.66404 103.158 2.6853C103.154 2.70656 103.156 2.72835 103.162 2.74889C103.169 2.76943 103.18 2.78813 103.195 2.80344L103.311 2.91901C102.693 3.21757 102.151 3.65123 101.724 4.18785C101.297 4.72447 100.997 5.35029 100.845 6.01891C100.741 6.45357 100.696 6.90001 100.709 7.3466C100.727 8.30807 101.056 9.2379 101.646 9.9971C101.659 10.0117 101.675 10.0233 101.692 10.0313C101.71 10.0393 101.729 10.0434 101.749 10.0434H101.758C101.778 10.0419 101.799 10.0357 101.817 10.0253C101.835 10.0148 101.85 10.0003 101.862 9.98295L101.989 9.79281C102.17 10.5227 102.418 11.2341 102.731 11.9179L100.01 10.5572C99.9773 10.541 99.94 10.5384 99.9057 10.5498C99.8715 10.5612 99.8432 10.5858 99.827 10.618C99.8109 10.6503 99.8082 10.6877 99.8196 10.722C99.831 10.7562 99.8556 10.7845 99.8879 10.8007L102.952 12.3325L102.164 13.4346L100.01 12.3573C99.9936 12.3488 99.976 12.3435 99.9579 12.3419C99.9398 12.3402 99.9216 12.3422 99.9043 12.3478C99.887 12.3533 99.871 12.3622 99.8572 12.374C99.8434 12.3858 99.8321 12.4003 99.824 12.4165C99.8158 12.4328 99.811 12.4505 99.8099 12.4686C99.8087 12.4867 99.8111 12.5049 99.8171 12.522C99.8231 12.5392 99.8324 12.555 99.8445 12.5685C99.8567 12.582 99.8714 12.5929 99.8879 12.6006L102.012 13.6625C101.987 13.7241 101.986 13.7924 102.009 13.8547C102.031 13.917 102.075 13.969 102.133 14.0009C102.191 14.0328 102.259 14.0425 102.324 14.0282C102.388 14.0138 102.445 13.9764 102.485 13.9229L102.497 13.9047L105.008 15.1602C105.232 15.3961 105.469 15.6319 105.713 15.8654L105.477 16.8854L105.29 17.698L104.958 19.1335C104.954 19.1544 104.954 19.1761 104.958 19.197L104.997 19.3514C105.026 19.4716 105.084 19.5829 105.166 19.6756C105.248 19.7683 105.352 19.8397 105.467 19.8835C105.557 19.9184 105.652 19.9364 105.748 19.9365C105.862 19.9363 105.974 19.9103 106.077 19.8605L106.09 19.8806C106.154 19.9757 106.237 20.0555 106.335 20.1143C106.433 20.173 106.543 20.2092 106.656 20.2203C106.682 20.2229 106.707 20.2242 106.733 20.2241C106.834 20.2241 106.934 20.2041 107.028 20.1654C107.121 20.1266 107.206 20.0698 107.277 19.9982L107.404 19.8712L107.63 20.0973C107.775 20.2417 107.971 20.3228 108.176 20.3228C108.38 20.3228 108.576 20.2417 108.721 20.0973L108.974 19.8443L109.207 19.9606C109.31 20.0123 109.424 20.0401 109.539 20.042C109.654 20.0438 109.769 20.0198 109.874 19.9715C109.979 19.9232 110.071 19.852 110.145 19.7632C110.219 19.6743 110.272 19.5699 110.3 19.4579L110.324 19.3594C110.442 19.4096 110.57 19.43 110.697 19.4186C110.824 19.4072 110.946 19.3644 111.052 19.2941C111.159 19.2238 111.246 19.1281 111.306 19.0157C111.366 18.9033 111.398 18.7777 111.398 18.6502C111.398 18.6291 111.393 18.6083 111.383 18.5894L111.223 18.2688L113.096 19.4211C113.128 19.4362 113.327 19.3031 113.36 19.2914C113.394 19.2798 113.421 19.2555 113.437 19.2238C113.453 19.192 113.456 19.1554 113.445 19.1216C113.434 19.0877 113.411 19.0595 113.379 19.0428V18.9893ZM109.353 17.8777C109.278 17.9139 109.202 17.9468 109.124 17.9774C109.116 17.9807 109.107 17.9834 109.099 17.9867C109.029 18.0139 108.958 18.0388 108.887 18.0618C108.862 18.0698 108.838 18.0771 108.813 18.0845C108.784 18.0934 108.754 18.1008 108.724 18.109L108.635 17.7218L108.612 17.6246C108.635 17.618 108.658 17.6101 108.68 17.6032C108.703 17.5963 108.727 17.5888 108.75 17.5812C108.806 17.5626 108.862 17.5424 108.917 17.5206C108.932 17.515 108.947 17.5099 108.962 17.5039C109.031 17.4756 109.1 17.4451 109.168 17.4123C109.184 17.4043 109.2 17.3956 109.217 17.3873C109.252 17.3691 109.288 17.3524 109.322 17.3328L109.515 17.7946C109.483 17.8113 109.452 17.8283 109.42 17.8441C109.398 17.8557 109.376 17.8677 109.353 17.8777ZM108.083 18.2325C108.063 18.2347 108.044 18.236 108.024 18.2378C107.903 18.249 107.782 18.2559 107.66 18.2559C107.594 18.2559 107.526 18.2532 107.454 18.2492L107.43 18.2476L107.391 17.7458L107.417 17.7468C107.47 17.7507 107.522 17.7525 107.574 17.7537C107.598 17.7537 107.623 17.7559 107.647 17.7561H107.66C107.725 17.7561 107.79 17.7539 107.855 17.7501C107.886 17.7485 107.917 17.745 107.948 17.7425C107.995 17.7385 108.042 17.7347 108.089 17.7289C108.12 17.7251 108.151 17.7196 108.182 17.7149C108.226 17.7082 108.27 17.7013 108.314 17.693C108.325 17.6908 108.336 17.6897 108.347 17.6875L108.459 18.1723C108.448 18.1745 108.438 18.1768 108.427 18.1788C108.314 18.2024 108.199 18.2202 108.084 18.2325H108.083ZM106.768 18.1547C106.753 18.1513 106.738 18.1465 106.723 18.1429C106.62 18.1182 106.519 18.0885 106.419 18.0562C106.403 18.0509 106.387 18.0457 106.371 18.04L106.407 17.5237C106.415 17.5268 106.423 17.5286 106.431 17.5315C106.533 17.57 106.636 17.6041 106.74 17.6324C106.76 17.6378 106.78 17.6418 106.8 17.6471C106.888 17.6692 106.976 17.6879 107.066 17.7033C107.082 17.7062 107.098 17.7111 107.114 17.7136L107.153 18.2216C107.141 18.2202 107.129 18.2189 107.116 18.2173C107.001 18.201 106.884 18.1808 106.769 18.1547H106.768ZM105.852 17.8209C105.833 17.8113 105.815 17.8009 105.797 17.7909C105.735 17.7577 105.673 17.7229 105.613 17.6863C105.6 17.6788 105.588 17.6712 105.576 17.6636L105.696 17.1472C105.698 17.1489 105.7 17.1501 105.703 17.1518C105.765 17.1946 105.83 17.2349 105.895 17.2737C105.916 17.286 105.938 17.2978 105.959 17.31C106.008 17.3374 106.057 17.3644 106.107 17.3887C106.12 17.3952 106.132 17.4027 106.145 17.4088L106.14 17.4738L106.107 17.9397C106.102 17.9379 106.098 17.9363 106.093 17.9343C106.012 17.8993 105.931 17.8615 105.852 17.8209H105.852ZM109.823 17.6159C109.8 17.6309 109.776 17.6445 109.752 17.659L109.686 17.5003L109.756 17.5353L109.863 17.5897C109.857 17.5939 109.851 17.5986 109.845 17.6026L109.823 17.6159ZM108.821 17.2659C108.792 17.2775 108.761 17.2876 108.731 17.2985C108.684 17.3152 108.636 17.3316 108.589 17.3459C108.576 17.3499 108.563 17.3531 108.55 17.357L108.486 17.0819L108.439 16.8771L109.033 17.1741C109.013 17.1837 108.992 17.1922 108.972 17.2011C108.923 17.2236 108.873 17.2459 108.822 17.2659H108.821ZM108.124 16.7191L108.286 17.4221L108.268 17.4261C108.178 17.4434 108.088 17.4567 107.997 17.4662C107.979 17.4682 107.961 17.4694 107.943 17.4711C107.849 17.4794 107.755 17.485 107.661 17.485C107.576 17.485 107.489 17.48 107.401 17.4727L107.37 17.4696L107.293 16.4718H107.629L107.723 16.5188L108.124 16.7191ZM106.769 17.3579C106.751 17.3528 106.735 17.3464 106.717 17.341C106.635 17.3156 106.553 17.2867 106.472 17.2543L106.428 17.2361L106.498 16.2624L107.017 16.4355L107.094 17.4319C107.085 17.4302 107.076 17.4292 107.068 17.4275C106.968 17.409 106.868 17.3862 106.77 17.3579H106.769ZM106.621 15.9676L106.915 16.1151L106.788 16.0728L106.427 15.9522L105.939 15.7087C105.879 15.6521 105.82 15.5953 105.761 15.5385L106.621 15.9676ZM105.954 16.02L106.232 16.1592L106.202 16.5899L106.164 17.1138C106.158 17.1108 106.153 17.1073 106.146 17.104C106.089 17.0734 106.033 17.0407 105.977 17.0066C105.957 16.9943 105.938 16.9812 105.918 16.9685C105.876 16.9411 105.834 16.9127 105.793 16.8834L105.76 16.8589L105.954 16.02ZM101.895 6.41061C101.896 6.38358 101.898 6.35619 101.899 6.32952C101.908 6.20397 101.92 6.08096 101.936 5.96049C101.939 5.93128 101.944 5.90298 101.948 5.87431C101.964 5.75856 101.982 5.64462 102.005 5.53376C102.01 5.50564 102.017 5.47934 102.023 5.45158C102.044 5.35482 102.067 5.26078 102.093 5.16946C102.108 5.11666 102.123 5.06568 102.139 5.01561C102.152 4.97605 102.164 4.9365 102.178 4.89822C102.191 4.85994 102.205 4.81966 102.22 4.78174C102.242 4.72423 102.264 4.66799 102.287 4.6141C102.297 4.59088 102.307 4.56838 102.317 4.54589C102.346 4.48221 102.375 4.42052 102.406 4.36192C102.41 4.3543 102.414 4.34649 102.418 4.33906C102.655 3.86031 103.017 3.45413 103.466 3.16285C103.469 3.17065 103.472 3.17936 103.475 3.18753C103.478 3.19569 103.481 3.20313 103.485 3.21147C103.492 3.22835 103.5 3.24613 103.508 3.26445C103.511 3.27116 103.513 3.27733 103.517 3.28423C103.528 3.30945 103.541 3.33539 103.556 3.36224C103.558 3.36732 103.562 3.37258 103.564 3.37784C103.576 3.39943 103.589 3.42121 103.602 3.44352C103.608 3.45332 103.615 3.46294 103.62 3.47273C103.632 3.49088 103.644 3.50902 103.657 3.52716C103.665 3.53823 103.673 3.5493 103.681 3.56036C103.694 3.57778 103.708 3.5952 103.722 3.61261C103.731 3.62386 103.74 3.63493 103.75 3.64599C103.765 3.66414 103.781 3.68229 103.798 3.69898C103.808 3.70914 103.816 3.7193 103.827 3.72946C103.849 3.75068 103.872 3.77137 103.896 3.79187C103.903 3.79749 103.909 3.80348 103.914 3.80892C103.945 3.83432 103.978 3.85881 104.012 3.88149C104.022 3.88839 104.034 3.89474 104.044 3.90145C104.07 3.91778 104.096 3.93374 104.123 3.9488C104.137 3.9566 104.152 3.96386 104.167 3.9713C104.193 3.98418 104.219 3.99634 104.247 4.00759C104.263 4.01466 104.28 4.02119 104.297 4.02772C104.326 4.03843 104.355 4.04804 104.385 4.05729C104.403 4.06274 104.42 4.06818 104.439 4.0729C104.473 4.08179 104.508 4.08923 104.544 4.09612C104.56 4.09921 104.576 4.10302 104.593 4.10556C104.647 4.11409 104.702 4.1208 104.76 4.1237C104.885 4.2778 105.036 4.40837 105.206 4.50924C105.363 4.60084 105.534 4.66565 105.712 4.70101C105.725 4.70373 105.737 4.70681 105.75 4.70917C105.779 4.71425 105.808 4.71752 105.838 4.72115C105.867 4.72478 105.897 4.7284 105.927 4.73058C105.953 4.73239 105.978 4.73312 106.004 4.73384C106.042 4.73481 106.08 4.73451 106.119 4.73294C106.144 4.73203 106.168 4.73112 106.192 4.72913C106.237 4.72568 106.283 4.71969 106.33 4.71262C106.353 4.70917 106.374 4.70699 106.396 4.70282C106.467 4.68976 106.539 4.67361 106.614 4.65184C106.628 4.65928 106.645 4.66781 106.664 4.67688L106.682 4.68522C106.697 4.69211 106.713 4.69919 106.731 4.70663L106.754 4.71661C106.777 4.72628 106.802 4.7359 106.829 4.74545L106.838 4.74872C106.867 4.75924 106.899 4.76941 106.933 4.77938C106.943 4.78247 106.954 4.78519 106.964 4.78809C106.99 4.79535 107.016 4.80206 107.044 4.80877C107.056 4.81168 107.068 4.81458 107.081 4.81731C107.115 4.82456 107.15 4.83121 107.186 4.83726C107.193 4.83726 107.199 4.83962 107.205 4.84053C107.247 4.84706 107.291 4.85214 107.337 4.85595C107.351 4.85722 107.364 4.85776 107.378 4.85867C107.412 4.86085 107.448 4.8623 107.484 4.86284C107.494 4.86284 107.502 4.86393 107.512 4.86393C107.522 4.86393 107.532 4.86393 107.542 4.86393L107.587 4.86284C107.613 4.86193 107.64 4.8603 107.666 4.85831L107.712 4.8545C107.742 4.85159 107.772 4.8476 107.803 4.84343C107.816 4.84143 107.828 4.84016 107.842 4.83799C107.885 4.83091 107.93 4.82256 107.975 4.81222C107.98 4.81132 107.984 4.80986 107.989 4.80877C108.03 4.79934 108.071 4.78827 108.113 4.77593C108.127 4.77158 108.143 4.76632 108.157 4.76161C108.19 4.75145 108.222 4.74056 108.255 4.7284C108.262 4.72586 108.268 4.72405 108.275 4.72133C108.266 4.78255 108.252 4.84314 108.235 4.90275C108.232 4.91291 108.228 4.92271 108.225 4.93287C108.209 4.9873 108.189 5.04173 108.167 5.09616C108.159 5.11521 108.15 5.13372 108.142 5.1524C108.121 5.20018 108.097 5.24856 108.072 5.29754C108.06 5.31986 108.048 5.34236 108.035 5.36431C108.027 5.37846 108.019 5.39243 108.011 5.4064C107.989 5.44269 107.967 5.47898 107.944 5.51308C107.937 5.52324 107.931 5.5334 107.924 5.54338C107.862 5.6341 107.797 5.72191 107.73 5.80301L107.714 5.82115C107.685 5.85635 107.655 5.89064 107.626 5.92366C107.621 5.9291 107.616 5.93454 107.612 5.9398C107.509 6.05338 107.41 6.15189 107.324 6.23136L107.314 6.24043C107.287 6.26547 107.261 6.28888 107.237 6.30992L107.236 6.31083C107.186 6.35492 107.145 6.38939 107.115 6.4137L107.108 6.41878L107.079 6.44182L107.075 6.44508L107.063 6.45434C107.054 6.46248 107.046 6.47189 107.04 6.48228C107.035 6.48744 107.03 6.49295 107.026 6.49879C107.025 6.50078 107.023 6.50223 107.022 6.50423C107.02 6.51068 107.019 6.51729 107.018 6.52401C107.013 6.53658 107.009 6.54986 107.008 6.56338C107.008 8.83396 107.877 10.0406 108.452 10.8391C108.495 10.8993 108.537 10.9574 108.576 11.0135C108.622 11.0781 108.662 11.1423 108.7 11.206C108.708 11.2198 108.716 11.2335 108.724 11.2473C108.793 11.369 108.853 11.4959 108.903 11.6267L108.907 11.6383C108.95 11.7517 108.984 11.8678 109.011 11.9859C109.031 12.0736 109.046 12.1622 109.055 12.2515L109.056 12.2612C109.06 12.2953 109.062 12.3257 109.064 12.3508V12.3564C109.065 12.3746 109.065 12.3912 109.066 12.4052V12.4097C109.066 12.4235 109.066 12.4357 109.066 12.4448V12.446L108.106 14.605L107.844 14.474C107.876 14.4443 107.901 14.4072 107.915 14.3658C107.93 14.3244 107.935 14.28 107.928 14.2366C107.922 14.1931 107.905 14.1518 107.879 14.1163C107.853 14.0808 107.819 14.0521 107.78 14.0328L107.541 13.9134L107.885 13.3985C107.889 13.3927 107.889 13.3857 107.893 13.3804C107.926 13.3866 107.96 13.3801 107.989 13.3623C108.017 13.3446 108.038 13.3167 108.047 13.2843C108.056 13.2519 108.053 13.2172 108.038 13.1872C108.023 13.1571 107.997 13.1338 107.965 13.1219C107.922 13.1028 107.881 13.0793 107.842 13.0516C107.838 13.0475 107.836 13.042 107.831 13.038C107.822 13.0327 107.813 13.0279 107.804 13.0237C107.602 12.8675 107.28 12.4959 107.28 11.7058C107.28 11.6697 107.266 11.6351 107.24 11.6096C107.215 11.5841 107.18 11.5697 107.144 11.5697C107.108 11.5697 107.073 11.5841 107.048 11.6096C107.022 11.6351 107.008 11.6697 107.008 11.7058C107.008 12.401 107.235 12.8209 107.455 13.0665L106.997 13.5248L106.365 13.7355L104.157 12.6313L104.302 12.341C104.318 12.309 104.328 12.2741 104.331 12.2383C104.334 12.2025 104.329 12.1665 104.318 12.1323C104.307 12.0982 104.289 12.0667 104.266 12.0395C104.242 12.0123 104.213 11.99 104.181 11.974C104.149 11.9579 104.114 11.9483 104.078 11.9459C104.043 11.9434 104.007 11.948 103.973 11.9595C103.939 11.971 103.907 11.9891 103.88 12.0128C103.853 12.0365 103.831 12.0653 103.815 12.0975L103.67 12.3878L103.6 12.3528L103.766 12.1209C103.808 12.0622 103.825 11.9891 103.813 11.9179C103.801 11.8467 103.761 11.7831 103.703 11.7411C103.644 11.6991 103.571 11.6822 103.5 11.694C103.428 11.7059 103.365 11.7456 103.323 11.8043L103.117 12.093C102.695 11.2458 102.38 10.3501 102.177 9.42596C101.982 8.57092 101.882 7.69689 101.88 6.81992C101.883 6.68131 101.888 6.54505 101.895 6.41061H101.895ZM108.068 6.21104C108.073 6.29897 108.079 6.38503 108.086 6.46921C108.088 6.49044 108.089 6.51221 108.091 6.53326C108.1 6.63208 108.109 6.72811 108.119 6.82137C108.121 6.84078 108.123 6.85947 108.125 6.8787C108.134 6.95672 108.144 7.03237 108.153 7.10621C108.155 7.12599 108.158 7.14613 108.161 7.16572C108.172 7.25118 108.184 7.33391 108.197 7.41337C108.199 7.42825 108.202 7.44204 108.204 7.45673C108.21 7.49193 108.215 7.52749 108.221 7.5616C107.998 7.18042 107.71 6.84069 107.371 6.55739C107.623 6.34402 107.85 6.10384 108.05 5.84111C108.053 5.94216 108.058 6.04068 108.064 6.13684C108.066 6.16169 108.067 6.18601 108.069 6.21086L108.068 6.21104ZM109.361 15.2337L108.352 14.729L109.144 12.9477L109.54 15.3228L109.361 15.2337ZM108.893 10.9966C108.864 10.9503 108.833 10.9039 108.8 10.8569C108.76 10.8003 108.718 10.7419 108.674 10.6809C108.641 10.6345 108.606 10.5862 108.571 10.5358C108.561 10.522 108.55 10.5069 108.54 10.4928C108.514 10.4565 108.488 10.4202 108.462 10.381C108.449 10.3629 108.435 10.342 108.422 10.3226C108.398 10.2874 108.374 10.2526 108.349 10.2159C108.334 10.1932 108.319 10.1691 108.304 10.1457C108.281 10.1107 108.258 10.076 108.236 10.0396C108.22 10.0142 108.204 9.98712 108.188 9.961C108.166 9.92471 108.144 9.88843 108.122 9.85087C108.105 9.82293 108.089 9.79336 108.073 9.76451C108.051 9.72659 108.03 9.68886 108.009 9.64931C107.993 9.61864 107.976 9.58653 107.96 9.55496C107.94 9.51504 107.919 9.47531 107.899 9.43413C107.883 9.40075 107.867 9.36591 107.851 9.33162C107.832 9.28953 107.812 9.24762 107.793 9.20462C107.778 9.16833 107.763 9.13205 107.748 9.09413C107.729 9.04968 107.711 9.00505 107.693 8.95896C107.678 8.92032 107.664 8.88023 107.65 8.84031C107.633 8.79314 107.617 8.74579 107.601 8.69699C107.587 8.65544 107.574 8.61262 107.561 8.56998C107.546 8.51991 107.531 8.46965 107.517 8.41794C107.505 8.37349 107.493 8.32723 107.482 8.28187C107.469 8.22889 107.456 8.17555 107.444 8.12076C107.433 8.07323 107.424 8.02461 107.414 7.97562C107.403 7.91938 107.392 7.86241 107.383 7.80435C107.374 7.75392 107.366 7.70239 107.359 7.65032C107.35 7.59057 107.342 7.53009 107.335 7.46889C107.328 7.41507 107.322 7.36064 107.317 7.3056C107.311 7.24247 107.305 7.1786 107.301 7.11311C107.297 7.05578 107.294 6.9979 107.291 6.93912C107.29 6.91009 107.289 6.87997 107.288 6.85058C107.735 7.25535 108.75 8.45768 109.005 11.17C109.006 11.1788 109.007 11.1882 109.007 11.1965C109.004 11.1902 109 11.1835 108.996 11.1771L108.976 11.1408C108.966 11.1227 108.955 11.1045 108.944 11.0864C108.929 11.0608 108.915 11.0354 108.899 11.0098L108.893 10.9966ZM109.766 15.0279L109.433 13.0322L109.34 12.4698V12.4611C109.34 12.4535 109.34 12.4448 109.34 12.4337C109.34 12.4261 109.34 12.4188 109.34 12.4096C109.34 12.3918 109.339 12.3711 109.338 12.3475V12.3435C109.336 12.1948 109.333 12.0496 109.328 11.9081C109.328 11.895 109.326 11.8825 109.326 11.8695C109.321 11.737 109.314 11.6071 109.305 11.4805C109.305 11.4732 109.304 11.466 109.304 11.4587C109.294 11.3229 109.283 11.1904 109.271 11.0614V11.059C109.257 10.9211 109.241 10.7872 109.224 10.6571C109.23 10.6684 109.236 10.6793 109.242 10.6905C109.259 10.7208 109.276 10.7508 109.293 10.7812C109.31 10.8117 109.329 10.8456 109.349 10.8774C109.368 10.9091 109.385 10.9358 109.403 10.9648C109.421 10.9939 109.442 11.0276 109.463 11.0583C109.483 11.0889 109.501 11.1145 109.521 11.1425C109.54 11.1704 109.563 11.2023 109.585 11.2317C109.607 11.2611 109.626 11.2851 109.647 11.3114C109.667 11.3377 109.692 11.368 109.715 11.3956C109.738 11.4231 109.759 11.4453 109.78 11.4698C109.802 11.4943 109.828 11.522 109.853 11.5472C109.878 11.5725 109.899 11.5931 109.923 11.6153C109.946 11.6374 109.973 11.6626 109.999 11.6853C110.025 11.708 110.048 11.7261 110.072 11.7457C110.096 11.7653 110.126 11.7874 110.153 11.8072C110.18 11.827 110.204 11.8424 110.23 11.8589C110.245 11.8689 110.26 11.8803 110.276 11.8896C110.219 12.9509 110.049 14.003 109.767 15.0278L109.766 15.0279ZM110.353 9.64985C110.353 10.3237 110.335 10.9699 110.297 11.5746C110.272 11.5565 110.248 11.5369 110.224 11.5171C110.206 11.5024 110.188 11.489 110.17 11.4736C110.137 11.4444 110.105 11.4126 110.073 11.3809C110.06 11.3685 110.048 11.3573 110.035 11.3446C109.992 11.2992 109.949 11.2516 109.908 11.2016C109.898 11.1896 109.889 11.1764 109.879 11.1641C109.848 11.1256 109.817 11.0866 109.788 11.0461C109.774 11.0264 109.76 11.0059 109.746 10.9857C109.722 10.9512 109.698 10.9168 109.675 10.8814C109.66 10.8587 109.646 10.8355 109.632 10.8124C109.61 10.7783 109.589 10.744 109.569 10.7094C109.554 10.6853 109.541 10.661 109.527 10.6368C109.507 10.6022 109.488 10.5675 109.469 10.5327C109.456 10.5082 109.443 10.4837 109.431 10.4601C109.412 10.4249 109.394 10.3897 109.376 10.3545C109.364 10.3304 109.353 10.3063 109.341 10.2819C109.324 10.2457 109.307 10.2105 109.291 10.1749C109.28 10.1519 109.27 10.1288 109.26 10.1058C109.244 10.0695 109.228 10.0332 109.213 9.99692C109.204 9.97588 109.194 9.95465 109.186 9.93379C109.17 9.89623 109.155 9.85922 109.141 9.82275C109.134 9.80461 109.126 9.78647 109.12 9.76832C109.104 9.72968 109.09 9.69212 109.077 9.65493C109.071 9.64024 109.065 9.62517 109.06 9.61066C109.045 9.57038 109.032 9.53174 109.018 9.49382C109.015 9.48421 109.011 9.47386 109.008 9.46443C108.992 9.41834 108.977 9.37371 108.964 9.33289V9.33144C108.958 9.3133 108.953 9.29914 108.948 9.28282C108.917 9.17269 108.886 9.0651 108.853 8.96296C108.833 8.89202 108.822 8.84739 108.822 8.84684C108.821 8.84066 108.819 8.8346 108.816 8.8287C108.575 8.10263 108.425 7.34906 108.371 6.58569C108.37 6.56973 108.368 6.55485 108.367 6.5387C108.36 6.46087 108.354 6.37905 108.348 6.29759C108.346 6.26003 108.343 6.22501 108.34 6.18564C108.336 6.11579 108.333 6.04231 108.329 5.96974C108.327 5.91695 108.324 5.86578 108.322 5.81153C108.319 5.74386 108.319 5.67292 108.317 5.60343C108.316 5.54646 108.314 5.49059 108.313 5.43235C108.398 5.27545 108.464 5.10915 108.51 4.93687C108.513 4.92362 108.518 4.9102 108.521 4.89695C108.528 4.86919 108.532 4.84107 108.537 4.81313C108.542 4.78519 108.55 4.75489 108.554 4.72604C109.031 5.02722 110.354 6.17639 110.354 9.64894L110.353 9.64985ZM109.409 3.87025C109.287 3.8536 109.175 3.79336 109.093 3.70061C109.096 3.689 109.099 3.67757 109.101 3.66614C109.12 3.5883 109.14 3.51174 109.164 3.43772C109.167 3.42937 109.169 3.42066 109.172 3.41232C109.2 3.32668 109.232 3.24371 109.267 3.1634L109.271 3.15614C109.277 3.16703 109.284 3.17591 109.29 3.18644C109.316 3.23143 109.343 3.2737 109.371 3.31434C109.382 3.32958 109.392 3.34555 109.403 3.36043C109.441 3.41304 109.481 3.46221 109.52 3.50684C109.528 3.51555 109.535 3.52262 109.542 3.53097C109.575 3.56725 109.607 3.6001 109.637 3.63003C109.65 3.64291 109.662 3.6538 109.675 3.66631C109.7 3.68954 109.723 3.71059 109.745 3.72946C109.75 3.73381 109.756 3.73998 109.761 3.74415C109.664 3.82849 109.539 3.87341 109.411 3.87006L109.409 3.87025ZM110.61 3.20821C110.61 3.21256 110.61 3.21692 110.61 3.22127C110.604 3.39998 110.556 3.57473 110.47 3.73152C110.384 3.88831 110.262 4.0228 110.115 4.12425C110.146 3.9824 110.142 3.83521 110.105 3.69498C110.099 3.68368 110.093 3.67237 110.087 3.66106C110.077 3.6457 110.064 3.63244 110.049 3.62205C110.049 3.62205 110.041 3.61661 110.031 3.6088L110.029 3.60754C110.018 3.59919 110.001 3.58631 109.981 3.57125L109.976 3.56726C109.956 3.55129 109.933 3.53097 109.907 3.5092L109.899 3.50158C109.873 3.47872 109.844 3.45241 109.816 3.42357L109.805 3.41232C109.776 3.38292 109.746 3.35045 109.716 3.31562L109.702 3.30037C109.672 3.26409 109.642 3.22672 109.613 3.18589L109.6 3.16775C109.571 3.12638 109.543 3.0823 109.516 3.03585L109.505 3.01517C109.478 2.96685 109.455 2.91706 109.434 2.86603C109.432 2.86259 109.431 2.85896 109.43 2.85533V2.85424C109.471 2.78766 109.515 2.72452 109.562 2.66338C109.571 2.65249 109.579 2.64124 109.587 2.63054C109.635 2.57033 109.685 2.51256 109.739 2.45745L109.743 2.4531C109.751 2.46108 109.761 2.46943 109.769 2.47759C109.777 2.48576 109.785 2.4932 109.794 2.50118C109.809 2.51406 109.825 2.52658 109.841 2.5391C109.851 2.54654 109.86 2.55398 109.87 2.56124C109.891 2.57629 109.914 2.59026 109.938 2.60387C109.945 2.60804 109.951 2.61258 109.958 2.61639C109.991 2.6337 110.024 2.64868 110.058 2.6612C110.07 2.66556 110.083 2.66828 110.095 2.67209C110.12 2.68027 110.146 2.68711 110.172 2.69259C110.188 2.69586 110.205 2.69694 110.222 2.69893C110.248 2.70264 110.274 2.70495 110.3 2.70583C110.306 2.70583 110.312 2.70747 110.318 2.70747C110.349 2.70732 110.379 2.7055 110.41 2.70202C110.414 2.70202 110.418 2.70057 110.421 2.70021C110.46 2.69496 110.499 2.68732 110.537 2.67735C110.543 2.67571 110.549 2.67553 110.555 2.67372C110.601 2.84787 110.621 3.02819 110.611 3.20821H110.61ZM108.054 0.785586H108.818C108.969 0.78555 109.117 0.830327 109.243 0.914255C109.368 0.998182 109.466 1.11749 109.524 1.25709C109.582 1.39669 109.597 1.55031 109.568 1.69852C109.538 1.84674 109.466 1.98288 109.359 2.08975C109.252 2.19661 109.116 2.26939 108.967 2.29889C108.819 2.32838 108.666 2.31326 108.526 2.25544C108.386 2.19762 108.267 2.0997 108.183 1.97405C108.099 1.84841 108.054 1.7007 108.054 1.54958V0.785586ZM110.009 2.22396C110.045 2.19729 110.08 2.17424 110.111 2.15483L110.124 2.14685C110.154 2.1287 110.182 2.11201 110.205 2.10004L110.385 2.27983C110.414 2.32307 110.44 2.36824 110.463 2.415L110.456 2.41718C110.45 2.41863 110.444 2.41899 110.438 2.42026C110.406 2.42667 110.374 2.43049 110.342 2.43169C110.333 2.43169 110.324 2.4326 110.316 2.43169C110.283 2.4317 110.25 2.42854 110.218 2.42226C110.216 2.42226 110.214 2.42099 110.212 2.42062C110.184 2.41433 110.156 2.40559 110.13 2.3945L110.112 2.38652C110.062 2.36323 110.016 2.33266 109.975 2.2958L109.961 2.28274C109.957 2.27857 109.953 2.2744 109.949 2.27022C109.965 2.25807 109.981 2.24409 109.996 2.23393L110.009 2.22396ZM110.369 1.17638C110.535 1.37441 110.624 1.62554 110.621 1.88396C110.599 1.93993 110.563 1.98908 110.516 2.02638L110.329 1.83933C110.31 1.82069 110.287 1.80788 110.261 1.80247C110.235 1.79706 110.208 1.79928 110.184 1.80885L110.169 1.81483L110.161 1.81883L110.137 1.82971L110.114 1.84114C110.105 1.84549 110.097 1.84931 110.087 1.85493C110.076 1.86056 110.069 1.86545 110.059 1.87053C110.048 1.87561 110.036 1.88287 110.022 1.89067C110.009 1.89847 109.999 1.905 109.987 1.91226C109.976 1.91952 109.96 1.92823 109.945 1.93784C109.931 1.94746 109.919 1.95599 109.905 1.96524C109.892 1.97449 109.875 1.98556 109.858 1.99735C109.842 2.00915 109.828 2.02039 109.812 2.032C109.797 2.04361 109.78 2.05595 109.763 2.06956C109.746 2.08317 109.727 2.09931 109.71 2.11437C109.695 2.12689 109.681 2.13814 109.666 2.15156L109.662 2.1552L109.656 2.16027C109.661 2.15338 109.665 2.14576 109.669 2.13887C109.681 2.12218 109.691 2.10494 109.701 2.0877C109.723 2.05165 109.743 2.01426 109.761 1.97576C109.77 1.9558 109.778 1.93603 109.786 1.91571C109.801 1.87555 109.813 1.83446 109.823 1.7927C109.828 1.77455 109.833 1.75533 109.837 1.73609C109.865 1.58667 109.86 1.43276 109.822 1.28545C109.784 1.13814 109.714 1.00109 109.617 0.884162C109.52 0.767237 109.397 0.673342 109.259 0.609239C109.122 0.545137 108.971 0.512421 108.819 0.513442H107.923L107.908 0.512534H107.905C107.748 0.499261 107.593 0.470828 107.441 0.427627C107.35 0.402067 107.262 0.37049 107.175 0.333104L107.166 0.328929C107.415 0.290945 107.667 0.271779 107.919 0.271595C109.393 0.271414 110.065 0.763631 110.369 1.17638ZM103.865 2.57121C103.884 2.56165 103.901 2.54764 103.914 2.53032C103.927 2.51301 103.935 2.4929 103.939 2.47164C103.942 2.45038 103.941 2.42858 103.934 2.40804C103.928 2.3875 103.916 2.36881 103.901 2.3535L103.735 2.18767C104.554 1.32457 105.599 0.708572 106.751 0.409666C106.757 0.413476 106.763 0.416559 106.768 0.420369C106.808 0.446857 106.848 0.471895 106.888 0.494755L106.894 0.498205C106.936 0.521972 106.98 0.543195 107.023 0.563334C107.035 0.56914 107.048 0.574586 107.06 0.58021C107.094 0.595269 107.129 0.609419 107.163 0.6223C107.172 0.625929 107.182 0.629921 107.191 0.633368C107.232 0.648427 107.272 0.661854 107.312 0.674191L107.352 0.685619C107.379 0.693783 107.406 0.701221 107.434 0.708115L107.475 0.71864C107.509 0.726623 107.541 0.73406 107.573 0.740228C107.589 0.743675 107.604 0.746216 107.619 0.748938C107.635 0.751659 107.651 0.754924 107.666 0.757464L107.716 0.765266L107.74 0.768532C107.754 0.770528 107.77 0.773066 107.783 0.774518V1.55031C107.783 1.82499 107.893 2.08834 108.087 2.28259C108.281 2.47684 108.544 2.58611 108.819 2.58645C108.882 2.5861 108.945 2.58002 109.008 2.56831C109.027 2.56468 109.046 2.55869 109.065 2.55398C109.107 2.54447 109.148 2.53234 109.188 2.51769C109.209 2.50971 109.23 2.49955 109.25 2.49084C109.287 2.47376 109.323 2.45455 109.358 2.43332C109.377 2.42153 109.396 2.40974 109.415 2.39704C109.425 2.38978 109.437 2.38434 109.447 2.37672C109.44 2.38397 109.435 2.39269 109.429 2.40013C109.368 2.47104 109.312 2.54523 109.259 2.62237C109.244 2.6456 109.229 2.66973 109.214 2.69349C109.197 2.72089 109.179 2.74792 109.162 2.77532C109.144 2.80743 109.128 2.84172 109.11 2.87474C109.093 2.90776 109.074 2.93933 109.059 2.97308C109.017 3.05944 108.98 3.1487 108.946 3.24086C108.936 3.26917 108.928 3.29856 108.918 3.32741C108.892 3.40524 108.869 3.48453 108.849 3.56581C108.845 3.58395 108.838 3.59937 108.834 3.61697C108.497 3.71113 108.356 4.21423 108.313 4.41344C108.294 4.42251 108.274 4.43159 108.254 4.43957C108.227 4.45082 108.2 4.46225 108.174 4.47223C108.148 4.4822 108.118 4.492 108.09 4.50089C108.062 4.50978 108.037 4.51903 108.011 4.52574C107.985 4.53246 107.957 4.53935 107.931 4.54552C107.905 4.55169 107.879 4.55786 107.854 4.56258C107.829 4.56729 107.804 4.57111 107.779 4.57473C107.754 4.57836 107.729 4.58254 107.705 4.58508C107.68 4.58762 107.658 4.58907 107.635 4.59052C107.612 4.59197 107.586 4.59415 107.562 4.59487C107.538 4.5956 107.519 4.59487 107.497 4.59487C107.476 4.59487 107.451 4.59487 107.429 4.59378C107.407 4.59269 107.389 4.59088 107.369 4.58925C107.349 4.58761 107.326 4.58598 107.305 4.58362C107.284 4.58126 107.269 4.57836 107.251 4.57564C107.233 4.57292 107.21 4.57001 107.191 4.56638C107.172 4.56276 107.157 4.55931 107.141 4.55568C107.124 4.55205 107.104 4.54824 107.088 4.54407C107.071 4.5399 107.057 4.53572 107.042 4.53137C107.026 4.52702 107.01 4.52266 106.995 4.51813C106.98 4.51359 106.967 4.50906 106.954 4.50434C106.94 4.49962 106.926 4.49527 106.914 4.49073C106.901 4.48619 106.89 4.4813 106.877 4.47676C106.865 4.47222 106.854 4.46787 106.844 4.46352L106.815 4.45082C106.806 4.44664 106.796 4.44229 106.788 4.4383L106.766 4.42741C106.759 4.42396 106.752 4.42034 106.746 4.41725L106.73 4.40854C106.717 4.40147 106.707 4.39585 106.705 4.39421C106.69 4.38501 106.673 4.37884 106.656 4.37607C106.652 4.37607 106.648 4.37462 106.644 4.37425C106.639 4.37389 106.636 4.37262 106.632 4.37262C106.618 4.37263 106.604 4.37484 106.591 4.37915C105.496 4.72732 104.968 3.95279 104.946 3.92014C104.934 3.90167 104.918 3.8864 104.898 3.87563C104.879 3.86485 104.858 3.8589 104.836 3.85827C104.567 3.86146 104.305 3.77195 104.095 3.6048C103.884 3.43766 103.738 3.20309 103.68 2.9406C103.679 2.93534 103.676 2.93062 103.675 2.92554C103.673 2.92046 103.675 2.91937 103.673 2.91647C103.672 2.91357 103.671 2.91302 103.67 2.91103C103.667 2.90435 103.663 2.89792 103.659 2.8918C103.656 2.88799 103.654 2.88454 103.651 2.88091C103.648 2.87728 103.649 2.87819 103.648 2.87674C103.647 2.87529 103.645 2.87257 103.643 2.87075L103.643 2.86966L103.519 2.74611L103.865 2.57121ZM101.107 6.08078C101.295 5.26323 101.719 4.51885 102.326 3.93991C102.114 4.28204 101.951 4.65242 101.842 5.0401L101 6.7243C101.021 6.50763 101.058 6.29265 101.108 6.08078H101.107ZM101.739 9.67307C101.274 8.99263 101.012 8.19509 100.98 7.37201L101.651 6.02943C101.639 6.1421 101.63 6.25948 101.623 6.37995C101.622 6.40372 101.621 6.42749 101.62 6.45144C101.614 6.57136 101.61 6.69382 101.61 6.82137C101.61 7.03908 101.616 7.25722 101.628 7.47578C101.632 7.55071 101.641 7.62601 101.646 7.70094C101.657 7.84608 101.667 7.98995 101.683 8.1351C101.693 8.22472 101.709 8.31453 101.721 8.40434C101.739 8.53515 101.754 8.66578 101.776 8.79659C101.793 8.89329 101.814 8.98963 101.832 9.08687C101.854 9.20154 101.874 9.3162 101.899 9.43068L101.739 9.67307ZM103.442 12.5788L103.551 12.6333L103.303 13.1288C103.271 13.1933 103.265 13.2681 103.288 13.3366C103.311 13.405 103.36 13.4616 103.425 13.4939C103.489 13.5261 103.564 13.5314 103.633 13.5086C103.701 13.4857 103.758 13.4366 103.79 13.3721L104.038 12.8767L106.002 13.8592L105.518 14.0208C105.512 14.0226 105.506 14.0247 105.501 14.027C105.342 14.0975 105.21 14.2174 105.125 14.3688C105.04 14.5202 105.006 14.695 105.028 14.8674L102.655 13.6803L103.442 12.5788ZM105.564 19.6301C105.49 19.6017 105.423 19.5554 105.37 19.4954C105.317 19.4353 105.279 19.3632 105.26 19.2854L105.23 19.1629L105.511 17.9442C105.516 17.9471 105.521 17.9495 105.526 17.9524C105.609 18.0008 105.693 18.0461 105.778 18.0883C105.797 18.0979 105.817 18.1064 105.837 18.1159C105.905 18.1485 105.974 18.1793 106.044 18.2082C106.058 18.2139 106.072 18.2211 106.086 18.2264L105.987 19.6C105.924 19.6361 105.852 19.6576 105.779 19.6627C105.706 19.6678 105.633 19.6565 105.564 19.6295V19.6301ZM107.084 19.8063C107.032 19.8585 106.969 19.8984 106.899 19.9233C106.83 19.9481 106.755 19.9572 106.682 19.9499C106.609 19.9426 106.538 19.9191 106.474 19.8811C106.411 19.8431 106.357 19.7915 106.316 19.7301L106.257 19.6421L106.328 18.6442L106.351 18.3225C106.372 18.3292 106.394 18.3347 106.414 18.3407C106.439 18.3483 106.464 18.3555 106.488 18.3626C106.554 18.3814 106.62 18.3984 106.686 18.4138C106.704 18.418 106.722 18.4227 106.739 18.4267C106.823 18.4449 106.907 18.4608 106.991 18.4742C107.01 18.4771 107.03 18.4795 107.049 18.4822C107.092 18.4883 107.134 18.4951 107.176 18.5003L107.263 19.6265L107.084 19.8063ZM108.528 19.9049C108.435 19.9984 108.308 20.0509 108.175 20.0509C108.043 20.0509 107.916 19.9984 107.823 19.9049L107.536 19.6183L107.451 18.5234H107.465C107.532 18.5266 107.598 18.5288 107.661 18.5288C107.739 18.5288 107.817 18.5261 107.895 18.5217C107.921 18.5203 107.946 18.5177 107.971 18.5159C108.024 18.5119 108.077 18.5078 108.13 18.5018C108.16 18.4985 108.189 18.4943 108.219 18.4903C108.268 18.4838 108.316 18.4769 108.364 18.4688C108.395 18.4635 108.425 18.4581 108.456 18.4521C108.478 18.4481 108.499 18.445 108.521 18.4405L108.796 19.6355L108.528 19.9049ZM110.035 19.3919C110.017 19.4644 109.983 19.532 109.935 19.5896C109.888 19.6472 109.828 19.6933 109.76 19.7245C109.692 19.7557 109.618 19.7713 109.543 19.77C109.468 19.7688 109.395 19.7507 109.328 19.7172L109.065 19.5858L108.855 18.6758L108.786 18.3775C108.822 18.3677 108.856 18.3561 108.892 18.3454C108.916 18.3379 108.941 18.331 108.965 18.3232C109.05 18.2959 109.134 18.2666 109.216 18.234C109.225 18.2309 109.233 18.2271 109.241 18.2238C109.315 18.194 109.389 18.1618 109.462 18.1273C109.487 18.1157 109.512 18.1034 109.536 18.091C109.564 18.0771 109.593 18.0643 109.621 18.0498L110.089 19.1747L110.035 19.3919ZM111.124 18.6807C111.119 18.7631 111.094 18.8431 111.051 18.9135C111.007 18.9838 110.947 19.0423 110.876 19.0836C110.804 19.125 110.724 19.148 110.641 19.1505C110.558 19.153 110.476 19.1349 110.403 19.098L110.339 19.066L109.859 17.9163C109.876 17.9061 109.892 17.8943 109.908 17.884C109.968 17.8463 110.028 17.8069 110.086 17.7659C110.105 17.7532 110.124 17.7421 110.142 17.7296L110.617 17.9669L110.816 18.0667L111.124 18.6807Z"
    fill="#D4D4D4" />
</svg>