<svg width="64" height="64" viewBox="0 0 64 64" xmlns="http://www.w3.org/2000/svg">
  <rect width="64" height="64" rx="32" fill="#DEE2E6" />
  <path
    d="M43.0034 19.7691L32.1175 28.2646L20.9828 19.7691V19.7713L20.9963 19.7828V31.6789L31.9921 40.358L43.0034 32.014V19.7691Z"
    fill="#EA4335" />
  <path
    d="M45.8609 17.7025L43.0022 19.769V32.014L51.9978 25.1074V20.9469C51.9978 20.9469 50.906 15.0046 45.8609 17.7025Z"
    fill="#FBBC05" />
  <path d="M43.0022 32.014V47.896H49.8969C49.8969 47.896 51.8589 47.694 52 45.4575V25.1074L43.0022 32.014Z"
    fill="#34A853" />
  <path d="M20.9823 19.771L18.1392 17.716C13.0942 15.0181 12 20.9581 12 20.9581V25.1185L20.9823 31.6671V19.771Z"
    fill="#C5221F" />
  <path d="M12 25.1216V45.4717C12.139 47.7105 14.1032 47.9103 14.1032 47.9103H20.998L20.9823 31.6678L12 25.1216Z"
    fill="#4285F4" />
</svg>