<svg width="64" height="64" viewBox="0 0 64 64" xmlns="http://www.w3.org/2000/svg">
  <rect width="64" height="64" rx="32" fill="url(#paint0_radial_2908_11493)" />
  <g clip-path="url(#clip0_2908_11493)">
    <path fill-rule="evenodd" clip-rule="evenodd"
      d="M31.9937 12.0132C26.5637 12.0132 25.8828 12.0362 23.7503 12.1335C21.6222 12.2306 20.1688 12.5686 18.8971 13.0629C17.5823 13.5737 16.4673 14.2574 15.3557 15.3689C14.2442 16.4805 13.5606 17.5955 13.0497 18.9102C12.5554 20.182 12.2174 21.6354 12.1203 23.7635C12.023 25.896 12 26.5769 12 32.007C12 37.4368 12.023 38.1177 12.1203 40.2503C12.2174 42.3783 12.5554 43.8318 13.0497 45.1035C13.5606 46.4183 14.2442 47.5333 15.3557 48.6448C16.4673 49.7563 17.5823 50.44 18.8971 50.951C20.1688 51.4452 21.6222 51.7832 23.7503 51.8803C25.8828 51.9775 26.5637 52.0005 31.9937 52.0005C37.4237 52.0005 38.1045 51.9775 40.237 51.8803C42.3652 51.7832 43.8185 51.4452 45.0903 50.951C46.405 50.44 47.52 49.7563 48.6317 48.6448C49.7432 47.5333 50.4268 46.4183 50.9378 45.1035C51.432 43.8318 51.77 42.3783 51.867 40.2503C51.9643 38.1177 51.9873 37.4368 51.9873 32.007C51.9873 26.5769 51.9643 25.896 51.867 23.7635C51.77 21.6354 51.432 20.182 50.9378 18.9102C50.4268 17.5955 49.7432 16.4805 48.6317 15.3689C47.52 14.2574 46.405 13.5737 45.0903 13.0629C43.8185 12.5686 42.3652 12.2306 40.237 12.1335C38.1045 12.0362 37.4237 12.0132 31.9937 12.0132ZM25.3291 32.007C25.3291 35.6877 28.3129 38.6715 31.9937 38.6715C35.6745 38.6715 38.6583 35.6877 38.6583 32.007C38.6583 28.3261 35.6745 25.3423 31.9937 25.3423C28.3129 25.3423 25.3291 28.3261 25.3291 32.007ZM21.7267 32.007C21.7267 26.3365 26.3233 21.7398 31.9937 21.7398C37.664 21.7398 42.2607 26.3365 42.2607 32.007C42.2607 37.6772 37.664 42.2738 31.9937 42.2738C26.3233 42.2738 21.7267 37.6772 21.7267 32.007ZM42.6663 23.7334C43.9915 23.7334 45.0657 22.6593 45.0657 21.3342C45.0657 20.0091 43.9915 18.9349 42.6663 18.9349C41.3413 18.9349 40.2672 20.0091 40.2672 21.3342C40.2672 22.6593 41.3413 23.7334 42.6663 23.7334Z"
      fill="#DEE2E6" />
  </g>
  <defs>
    <radialGradient id="paint0_radial_2908_11493" cx="0" cy="0" r="1" gradientUnits="userSpaceOnUse"
      gradientTransform="translate(65.2875 1.3) scale(147.795)">
      <stop stop-color="#F9ED32" />
      <stop offset="0.36" stop-color="#EE2A7B" />
      <stop offset="0.44" stop-color="#D22A8A" />
      <stop offset="0.6" stop-color="#8B2AB2" />
      <stop offset="0.83" stop-color="#1B2AF0" />
      <stop offset="0.88" stop-color="#002AFF" />
    </radialGradient>
    <clipPath id="clip0_2908_11493">
      <rect width="40" height="40" fill="white" transform="translate(12 12)" />
    </clipPath>
  </defs>
</svg>