<svg width="64" height="64" viewBox="0 0 64 64" fill="none" xmlns="http://www.w3.org/2000/svg">
<g clip-path="url(#clip0_5225_9723)">
<path d="M51.6 4H12.4C7.76081 4 4 7.76081 4 12.4V51.6C4 56.2392 7.76081 60 12.4 60H51.6C56.2392 60 60 56.2392 60 51.6V12.4C60 7.76081 56.2392 4 51.6 4Z" fill="#F7DF1E"/>
<path d="M38.5791 44.9623C39.0546 44.6889 39.655 44.8549 39.9825 45.2949C41.0321 46.7051 42.4543 47.6406 44.5781 47.6406C46.7656 47.6406 48.1875 46.5469 48.1875 45.0156C48.1875 43.2656 46.7656 42.6094 44.3594 41.5156L43.0469 40.9688C39.2188 39.3281 36.7031 37.3594 36.7031 33.0938C36.7031 29.1562 39.6562 26.0938 44.3594 26.0938C47.4409 26.0938 49.7093 27.0875 51.3289 29.5677C51.6132 30.003 51.4615 30.5769 51.0253 30.8599L48.6639 32.3916C48.1723 32.7104 47.5248 32.5296 47.1694 32.0637C46.429 31.0931 45.5632 30.6875 44.3594 30.6875C42.8281 30.6875 41.8438 31.6719 41.8438 32.9844C41.8438 34.5156 42.8281 35.1719 45.125 36.1562L46.4375 36.7031C50.9219 38.6719 53.4375 40.5312 53.4375 45.0156C53.4375 49.7188 49.7188 52.3438 44.6875 52.3438C40.2169 52.3438 37.1901 50.4487 35.5251 47.8062C35.2427 47.358 35.4212 46.7781 35.8804 46.5141L38.5791 44.9623ZM20.0127 45.3537C20.4792 45.1025 21.0544 45.2629 21.3375 45.7108C22.0178 46.787 22.7349 47.6406 24.2344 47.6406C25.9844 47.6406 27.0781 46.9844 27.0781 44.3594V27.2031C27.0781 26.6508 27.5258 26.2031 28.0781 26.2031H31.3281C31.8804 26.2031 32.3281 26.6508 32.3281 27.2031V44.1406C32.3281 49.6094 29.1562 52.0156 24.4531 52.0156C20.6475 52.0156 18.3219 50.2745 17.0102 48.035C16.7437 47.5799 16.9395 47.0085 17.4038 46.7585L20.0127 45.3537Z" fill="black"/>
</g>
<defs>
<clipPath id="clip0_5225_9723">
<rect width="56" height="56" fill="white" transform="translate(4 4)"/>
</clipPath>
</defs>
</svg>
