<svg width="158" height="61" viewBox="0 0 158 61" xmlns="http://www.w3.org/2000/svg">
  <path
    d="M5.44272 47.2052C5.44272 47.2052 4.27215 45.4911 5.44272 43.2959C5.44272 43.2959 6.01963 42.2867 6.88501 41.6463C7.75039 41.0059 14.4503 35.9743 14.4503 35.9743C14.4503 35.9743 16.5524 34.5685 16.5524 32.2737V29.0725C16.5524 29.0725 16.2161 26.5086 14.0359 26.5086C14.0359 26.5086 12.9618 26.3493 12.145 26.9578C11.3282 27.5663 1.66247 34.6641 1.66247 34.6641C1.66247 34.6641 0.0273438 35.9138 0.0273438 38.0604V41.4568C0.0273438 41.4568 0.0512494 43.323 1.57402 44.4453C3.0968 45.5676 5.44272 47.2052 5.44272 47.2052Z"
    fill="url(#paint0_linear_2903_11274)" />
  <path
    d="M27.2904 33.4532C27.2904 33.4532 28.3629 35.0152 27.2904 37.0156C27.2904 37.0156 26.7619 37.9352 25.969 38.5188C25.1762 39.1024 19.0378 43.6875 19.0378 43.6875C19.0378 43.6875 17.1119 44.9686 17.1119 47.0598V49.9769C17.1119 49.9769 17.4199 52.3134 19.4174 52.3134C19.4174 52.3134 20.4015 52.4586 21.1498 51.904C21.8982 51.3495 30.7539 44.8815 30.7539 44.8815C30.7539 44.8815 32.252 43.7427 32.252 41.7865V38.6916C32.252 38.6916 32.2301 36.9909 30.8349 35.9682C29.4397 34.9455 27.2904 33.4532 27.2904 33.4532Z"
    fill="url(#paint1_linear_2903_11274)" />
  <path
    d="M0.0234375 53.4061C0.0234375 53.4061 10.5697 54.6407 22.0491 50.9767C33.5285 47.3127 40.1256 40.7168 41.9854 38.6021C41.9854 38.6021 36.7924 51.0986 24.1615 57.0589C11.5307 63.0192 3.90249 59.2374 3.90249 59.2374C3.90249 59.2374 0.0234375 57.6993 0.0234375 53.4061Z"
    fill="url(#paint2_linear_2903_11274)" />
  <path d="M14.0653 42.2403L12.8867 41.3745V37.7695L14.0653 36.9268V42.2403Z" fill="white" />
  <path d="M1.92578 45.8208L3.10511 46.5894V53.0548H1.92578V45.8208Z" fill="white" />
  <path d="M6.53984 48.8967V53.0545H5.48242V48.1997L6.53984 48.8967Z" fill="white" />
  <path d="M9.90773 51.059V52.8615L8.81445 52.9579V50.3564L9.90773 51.059Z" fill="white" />
  <path
    d="M4.24713 28.4345C4.24679 28.7672 4.14722 29.0922 3.96113 29.368C3.77504 29.6438 3.5109 29.8579 3.20247 29.9829V32.9189C3.20247 32.9189 2.05341 33.7417 1.98409 33.8117V29.9925C1.69804 29.8848 1.44695 29.7009 1.25808 29.4606C1.06921 29.2204 0.949774 28.9331 0.912728 28.6298C0.875682 28.3265 0.922444 28.0189 1.04794 27.7403C1.17344 27.4617 1.37287 27.2228 1.6246 27.0495C1.87633 26.8762 2.17074 26.7751 2.47587 26.7573C2.78101 26.7394 3.08521 26.8054 3.35547 26.9481C3.62572 27.0908 3.85171 27.3048 4.0089 27.5669C4.1661 27.8289 4.24849 28.129 4.24713 28.4345V28.4345Z"
    fill="white" />
  <path
    d="M4.29171 7.51381C4.29135 7.85246 4.18816 8.18302 3.99579 8.46178C3.80342 8.74053 3.53094 8.95436 3.21437 9.07498V21.9252C3.20485 22.2483 3.08635 22.5588 2.8781 22.8061L0.0253906 25.6576V23.9746L2.02866 21.9562V9.07498C1.74274 8.96737 1.49175 8.78356 1.3029 8.54349C1.11406 8.30342 0.994567 8.01625 0.957392 7.71312C0.920216 7.41 0.966774 7.10248 1.09201 6.82393C1.21725 6.54537 1.4164 6.3064 1.66785 6.13294C1.9193 5.95947 2.21347 5.85813 2.51845 5.8399C2.82342 5.82167 3.12758 5.88724 3.39792 6.02952C3.66826 6.1718 3.89448 6.38534 4.05204 6.64699C4.20959 6.90864 4.29248 7.20842 4.29171 7.51381V7.51381Z"
    fill="white" />
  <path
    d="M7.75648 20.5773C7.75567 20.9225 7.64801 21.2591 7.44828 21.5407C7.24855 21.8224 6.96652 22.0354 6.64089 22.1504V30.384L5.47749 31.249V22.1329C5.19368 22.0223 4.94547 21.8363 4.75962 21.595C4.57377 21.3538 4.45733 21.0664 4.42286 20.7638C4.38839 20.4613 4.43719 20.1551 4.56401 19.8782C4.69083 19.6013 4.89085 19.3643 5.1425 19.1927C5.39415 19.0211 5.68789 18.9215 5.99205 18.9045C6.2962 18.8875 6.59922 18.9538 6.86845 19.0962C7.13768 19.2387 7.36289 19.452 7.5198 19.7129C7.67671 19.9739 7.75937 20.2728 7.75887 20.5773H7.75648Z"
    fill="white" />
  <path
    d="M11.0147 25.2681C11.0151 25.5964 10.9185 25.9174 10.7371 26.191C10.5556 26.4647 10.2974 26.6786 9.99476 26.8062V27.9165L8.72937 28.8333V26.8213C8.44598 26.71 8.19834 26.5235 8.01314 26.2819C7.82793 26.0403 7.71217 25.7528 7.67833 25.4504C7.6445 25.1479 7.69386 24.8419 7.82111 24.5654C7.94836 24.2889 8.14868 24.0524 8.40047 23.8812C8.65226 23.7101 8.946 23.6109 9.25003 23.5943C9.55406 23.5777 9.85686 23.6443 10.1258 23.787C10.3948 23.9297 10.6197 24.143 10.7763 24.404C10.933 24.665 11.0154 24.9637 11.0147 25.2681V25.2681Z"
    fill="white" />
  <path
    d="M14.1618 24.6799V25.9942C13.7512 25.9511 13.3363 25.978 12.9347 26.0738V24.7373C12.9347 24.7373 9.36881 21.1713 9.01661 20.82C8.6644 20.4688 8.71141 20.1621 8.71141 20.1621V14.463C8.35333 14.3176 8.05665 14.0527 7.87178 13.7134C7.68692 13.3741 7.62526 12.9813 7.69728 12.6017C7.76931 12.2221 7.97057 11.8792 8.26689 11.6311C8.56321 11.383 8.93631 11.2451 9.3228 11.2408C9.7093 11.2365 10.0854 11.3661 10.3871 11.6076C10.6889 11.849 10.8977 12.1875 10.9781 12.5654C11.0585 12.9433 11.0056 13.3374 10.8283 13.6807C10.651 14.024 10.3603 14.2954 10.0055 14.4487V20.1342C10.0055 20.1342 13.2726 23.3752 13.7507 23.8778C14.2288 24.3804 14.1618 24.6799 14.1618 24.6799Z"
    fill="white" />
  <path
    d="M22.9834 39.6179L21.1507 41.0915H18.2087C18.2087 41.0915 17.8103 41.0676 17.7059 40.7346C17.7044 40.7276 17.7026 40.7207 17.7003 40.7139C17.6945 40.6944 17.6905 40.6744 17.6884 40.6542C17.688 40.6486 17.688 40.643 17.6884 40.6374C17.6851 40.6132 17.6835 40.5887 17.6836 40.5642V36.1108L22.9834 39.6179Z"
    fill="#0040E0" />
  <path
    d="M47.2419 19.8269C47.2419 33.0283 38.1929 38.1786 32.819 40.0719H32.8102C32.8102 40.0528 32.8102 40.0313 32.8102 40.0105C32.8014 39.5629 32.6022 38.5577 32.6022 38.5577C32.3305 36.4422 31.2603 35.6759 31.2603 35.6759L28.1709 33.6926C28.1691 33.692 28.1672 33.692 28.1654 33.6926L28.1606 33.6886L27.2482 33.0155L21.279 27.9099C21.4224 27.9099 21.5691 27.9099 21.7181 27.9051C22.7205 27.886 23.86 27.804 24.9772 27.5307C26.3015 27.2082 27.5932 26.6163 28.5901 25.5442C31.081 22.8624 30.6021 19.9885 30.6021 19.9885C30.6021 19.9885 30.3471 14.8478 25.3644 13.571C25.3644 13.571 23.3835 13.2198 16.5489 13.4428V27.4901C16.5489 27.4901 15.7824 25.9576 14.0891 25.9576V24.6482C14.0891 24.6482 14.1608 24.3527 13.6819 23.8516C13.203 23.3506 9.94784 20.12 9.94784 20.12V14.4528C10.3008 14.3 10.59 14.0298 10.7663 13.6882C10.9426 13.3465 10.9951 12.9543 10.915 12.5783C10.8349 12.2023 10.627 11.8656 10.3267 11.6253C10.0264 11.3851 9.65218 11.2562 9.26758 11.2605C8.88299 11.2648 8.51173 11.402 8.21686 11.6488C7.92198 11.8956 7.72167 12.2369 7.64993 12.6146C7.57819 12.9923 7.63945 13.3832 7.8233 13.7209C8.00716 14.0586 8.30228 14.3222 8.65854 14.4671V20.1463C8.65854 20.1463 8.61073 20.4497 8.96214 20.801L12.8667 24.7039V26.0357C12.8667 26.0357 12.0451 26.2436 11.1017 26.9788L9.9327 27.8732V26.7669C10.2882 26.6164 10.5805 26.3472 10.7595 26.0053C10.9384 25.6633 10.9931 25.2698 10.914 24.8921C10.8349 24.5144 10.6271 24.1758 10.326 23.9342C10.0249 23.6927 9.64918 23.5631 9.26312 23.5678C8.87706 23.5724 8.50459 23.7109 8.20936 23.9596C7.91413 24.2083 7.71447 24.5518 7.64449 24.9313C7.57451 25.3108 7.63857 25.7029 7.82571 26.0404C8.01284 26.378 8.31145 26.6401 8.67049 26.782V28.7829L6.59391 30.3321V22.128C6.96193 21.9973 7.27231 21.7415 7.47085 21.4052C7.66939 21.069 7.74346 20.6738 7.68013 20.2886C7.6168 19.9033 7.4201 19.5526 7.12437 19.2976C6.82865 19.0425 6.4527 18.8995 6.06218 18.8933C5.67166 18.8872 5.29139 19.0184 4.98779 19.264C4.68419 19.5096 4.47654 19.854 4.40112 20.237C4.3257 20.6201 4.3873 21.0174 4.57516 21.3597C4.76302 21.702 5.0652 21.9674 5.42892 22.1097V31.1939L3.16109 32.8539V29.9283C3.52086 29.7828 3.81851 29.5163 4.00264 29.1748C4.18676 28.8333 4.2458 28.4383 4.16955 28.0579C4.0933 27.6776 3.88655 27.3358 3.58501 27.0916C3.28347 26.8473 2.90608 26.7161 2.51802 26.7204C2.12996 26.7247 1.75559 26.8644 1.45958 27.1153C1.16357 27.3661 0.964499 27.7125 0.896756 28.0944C0.829013 28.4764 0.896848 28.87 1.08855 29.2073C1.28025 29.5446 1.58377 29.8044 1.9467 29.9418V33.7475L0.796847 34.6237C0.796847 34.6237 0.0948248 35.1183 0 35.8185V25.6223L2.84076 22.7803C3.04821 22.5344 3.16643 22.2257 3.17623 21.9042V9.09859C3.54064 8.96034 3.84502 8.69876 4.03643 8.35937C4.22784 8.01998 4.29416 7.62425 4.22385 7.24103C4.15354 6.85782 3.95105 6.51136 3.65161 6.26195C3.35218 6.01254 2.97474 5.87595 2.58497 5.87595C2.1952 5.87595 1.81777 6.01254 1.51833 6.26195C1.21889 6.51136 1.01641 6.85782 0.946097 7.24103C0.875788 7.62425 0.942106 8.01998 1.13351 8.35937C1.32492 8.69876 1.62931 8.96034 1.99371 9.09859V21.9344L0.00159282 23.9456V5.22036C0.00159282 5.22036 0.192836 0 5.22333 0H27.6944C27.6944 0 47.2419 1.05379 47.2419 19.8269Z"
    fill="url(#paint3_linear_2903_11274)" />
  <path
    d="M10.0324 39.8936L6.24739 42.7905C6.24739 42.7905 3.73174 45.3768 5.98363 47.6309L12.4763 52.4411L15.1593 52.034C15.1593 52.034 16.4606 51.7226 16.4606 50.2594V46.2625C16.4606 46.2625 16.5482 44.8025 14.9912 43.6045C13.4342 42.4066 10.0324 39.8936 10.0324 39.8936Z"
    fill="url(#paint4_linear_2903_11274)" />
  <path d="M12.8159 37.6919V41.2834L10.5879 39.488L12.8159 37.6919Z" fill="#0040E0" />
  <path
    d="M13.9902 36.8518V42.1446C13.9902 42.1446 15.9967 43.3903 16.466 45.2343V34.0034C16.466 34.0034 16.266 35.4133 13.9902 36.8518Z"
    fill="#0040E0" />
  <path d="M9.84766 50.9336V52.7297C9.84766 52.7297 11.3617 52.6501 12.18 52.5067L9.84766 50.9336Z"
    fill="url(#paint5_linear_2903_11274)" />
  <path d="M6.49023 48.7778V52.9197C6.49023 52.9197 8.09508 52.9133 8.75408 52.8241V50.2323L6.49023 48.7778Z"
    fill="#0040E0" />
  <path d="M5.44057 48.0837V52.9209H3.06836V46.4795L5.44057 48.0837Z" fill="#0040E0" />
  <path d="M1.89251 45.7132V52.9209H0V44.4683L1.89251 45.7132Z" fill="#0040E0" />
  <path
    d="M26.7689 36.5251C25.0437 38.0265 23.2213 39.4332 23.2213 39.4332L18.4243 35.6792C18.4243 35.6792 17.6816 35.2961 17.6816 33.86C17.6816 32.439 17.7 29.7292 17.7 29.6671V29.6472C17.7207 29.5118 17.8673 28.7121 18.4737 28.2437L18.4912 28.231C18.7921 28.0081 19.1591 27.8925 19.5335 27.9028C19.5786 27.8965 19.6243 27.8949 19.6698 27.898V27.898C19.9415 27.9124 20.6077 28.0414 21.6515 28.8435C23.0524 29.922 26.89 33.0148 26.89 33.0148C26.89 33.0148 28.4933 35.0253 26.7689 36.5251Z"
    fill="url(#paint6_linear_2903_11274)" />
  <path
    d="M57.2444 21.6309C57.2444 18.7794 57.2444 15.9287 57.2444 13.0786C57.2444 11.8341 58.0955 10.978 59.3404 10.9759C61.8744 10.9759 64.4083 10.9598 66.9411 10.9759C71.3554 11.007 74.6868 15.0525 73.8775 19.3684C73.5777 20.9993 72.7147 22.4732 71.4391 23.5333C70.1634 24.5933 68.556 25.1722 66.8971 25.169C65.8754 25.169 64.854 25.169 63.833 25.169C63.6989 25.169 63.5186 25.228 63.5282 24.9813C63.5658 24.0426 63.4381 23.0975 63.598 22.1663C63.7418 21.3284 64.5424 20.6643 65.3946 20.6268C66.7093 20.5646 67.627 19.9177 67.9704 18.8138C68.4297 17.3376 67.2438 15.7027 65.6951 15.6909C64.9653 15.6833 64.2355 15.7059 63.5068 15.6791C63.1547 15.6651 63.0893 15.7971 63.0946 16.1157C63.1773 20.4637 63.1461 24.8118 63.1504 29.1598C63.1504 29.3991 63.1504 29.6383 63.1311 29.8754C63.0871 30.356 62.7694 30.6467 62.2961 30.6478C60.7432 30.6478 59.1912 30.6414 57.6393 30.6478C57.341 30.6478 57.2401 30.5856 57.2422 30.2584C57.2572 27.3811 57.2508 24.5039 57.2508 21.6267L57.2444 21.6309Z"
    fill="url(#paint7_linear_2903_11274)" />
  <path
    d="M101.121 22.8227C101.014 24.6733 101.041 26.5249 101.055 28.3766C101.055 28.9216 100.774 29.2348 100.36 29.4869C99.0414 30.2969 97.57 30.6573 96.0675 30.903C95.4421 31.0113 94.8078 31.0598 94.1732 31.0478C90.0423 30.9298 86.3825 28.4903 84.8628 24.6658C84.0256 22.5588 83.8711 20.4121 84.5032 18.2569C85.4455 15.0513 87.4718 12.7663 90.6207 11.5615C92.6809 10.7493 94.9522 10.6425 97.0795 11.2579C98.0938 11.5462 99.06 11.9822 99.9472 12.5517C100.541 12.9293 100.649 13.41 100.254 13.9839C99.4815 15.106 98.7087 16.2228 97.8673 17.2946C97.6924 17.5188 97.5936 17.5306 97.3704 17.3675C96.6095 16.8118 95.8013 16.3569 94.8397 16.2261C92.7232 15.9407 90.815 17.1004 90.1174 19.1226C89.4048 21.1759 89.9725 23.3065 91.6629 24.6561C92.5215 25.3459 93.5668 25.5701 94.6561 25.4393C95.7122 25.3137 95.5663 25.5197 95.5727 24.3836C95.5727 23.8805 95.5663 23.3816 95.6897 22.8817C95.8807 22.1114 96.4023 21.6673 97.1332 21.5117C98.3878 21.2457 99.6693 21.3701 100.94 21.3605C101.148 21.3605 101.125 21.4967 101.125 21.6308C101.12 22.0278 101.121 22.4247 101.121 22.8227Z"
    fill="url(#paint8_linear_2903_11274)" />
  <path
    d="M126.081 30.103C126.15 29.9732 126.24 29.8434 126.31 29.7147C126.913 28.5958 128.185 26.4866 128.185 26.4062C128.185 26.3257 126.833 24.9236 126.071 24.2606C125.778 24.0063 125.606 24.0138 125.302 24.2423C123.732 25.4224 122.006 25.6273 120.258 24.7455C118.574 23.8948 117.766 22.4132 117.79 20.5326C117.813 18.652 118.703 17.2509 120.38 16.4356C121.957 15.6685 123.544 15.8091 125.022 16.7499C125.42 17.0031 125.666 16.9387 125.977 16.6577C126.354 16.3221 126.647 15.9025 126.832 15.4329C127.017 14.9634 127.089 14.4569 127.042 13.9544C126.995 13.452 126.83 12.9676 126.561 12.5404C126.293 12.1132 125.927 11.7553 125.494 11.4954C124.433 10.8592 123.247 10.679 122.022 10.6822C119.482 10.6886 117.3 11.6327 115.431 13.2901C114.1 14.4702 113.206 15.9528 112.655 17.6489C112.081 19.418 111.973 21.216 112.424 23.0129C113.303 26.5017 115.442 28.9251 118.823 30.1889C120.48 30.8089 122.202 31.0278 123.975 30.7253C123.977 30.7253 125.589 30.3401 126.081 30.103Z"
    fill="url(#paint9_linear_2903_11274)" />
  <path
    d="M132.267 28.1815C132.671 27.2761 133.251 26.465 133.741 25.6132C134.011 25.1433 134.304 24.6863 134.587 24.225C134.759 23.9472 134.77 23.6672 134.546 23.4204C134.048 22.8733 133.54 22.3305 132.906 21.9324C132.212 21.4958 131.683 21.5924 131.174 22.235C130.65 22.898 130.135 23.5685 129.617 24.2357C129.095 22.9289 128.878 21.5204 128.983 20.1173C129.098 18.1796 129.772 16.3167 130.923 14.7533C132.271 12.8995 134.076 11.7012 136.262 11.0489C137.777 10.5828 139.39 10.5431 140.926 10.9341C142.241 11.2677 143.272 11.9393 143.725 13.3082C144.129 14.5333 143.577 16.1629 142.512 16.8742C142.269 17.0351 142.118 16.9182 141.944 16.8077C141.112 16.2713 140.218 15.972 139.218 15.9773C136.573 15.9902 134.526 18.0435 134.586 20.6794C134.629 22.5278 135.453 23.9686 137.119 24.7786C138.829 25.6111 140.524 25.4223 142.056 24.2679C142.408 24.004 142.601 24.0233 142.921 24.3044C143.728 25.0157 144.501 25.7527 145.144 26.6206C145.646 27.3007 145.639 27.8854 145.082 28.5173C144.116 29.6083 142.866 30.2027 141.492 30.5663C139.493 31.0963 137.533 30.8592 135.611 30.1855C134.373 29.7481 133.236 29.0666 132.267 28.1815V28.1815Z"
    fill="url(#paint10_linear_2903_11274)" />
  <path
    d="M104.049 24.5616C104.049 22.8515 104.049 21.1404 104.049 19.4304C104.049 18.9948 104.099 18.5582 104.114 18.1215C104.114 17.9917 104.141 17.9327 104.289 17.9338C105.577 17.9338 106.865 17.8169 108.14 18.0025C109.068 18.1366 109.77 19.027 109.768 19.9743C109.763 23.0861 109.759 26.1972 109.756 29.3076C109.756 30.3718 109.491 30.6368 108.409 30.6315C107.083 30.6315 105.757 30.6068 104.431 30.6089C104.131 30.6089 104.039 30.5135 104.041 30.2077C104.055 28.3249 104.049 26.4422 104.049 24.5594V24.5616Z"
    fill="url(#paint11_linear_2903_11274)" />
  <path
    d="M81.7732 24.0777C81.7732 26.3134 81.7646 28.1823 81.7818 30.0511C81.7818 30.4072 81.7227 30.5564 81.3235 30.5521C79.9057 30.536 78.4869 30.5692 77.0691 30.5585C76.4198 30.5585 76.0796 30.2045 76.0796 29.5705C76.0796 27.1985 76.1064 24.8265 76.0925 22.4546C76.0925 21.7144 76.1075 20.9731 76.0721 20.235C76.0066 18.8511 76.8041 17.9059 78.1864 17.8619C79.2596 17.8276 80.3329 17.8619 81.4061 17.8619C81.6337 17.8619 81.6991 17.9156 81.7163 18.1688C81.859 20.2554 81.7195 22.3516 81.7732 24.0777Z"
    fill="url(#paint12_linear_2903_11274)" />
  <path
    d="M132.919 41.5245C133.56 41.3656 134.183 41.1409 134.778 40.854C136.508 40.0676 138.087 39.0227 139.656 37.9671C139.958 37.7643 140.115 37.7847 140.317 38.0743C140.729 38.673 140.682 39.1171 140.054 39.6621C138.87 40.6836 137.598 41.599 136.253 42.3977C134.991 43.1487 133.692 43.8235 132.258 44.2108C131.342 44.4586 130.594 44.2805 129.991 43.5231C129.669 43.1186 129.299 42.7539 128.971 42.3548C128.296 41.533 128.086 40.6222 128.39 39.5741C129.216 36.6529 130.834 34.0169 133.065 31.9573C134.223 30.8845 135.566 30.7042 137.014 31.2245C137.987 31.5584 138.825 32.1983 139.403 33.0483C140.004 33.9312 140.011 34.8248 139.432 35.7196C138.832 36.6454 137.992 37.3416 137.17 38.0518C135.937 39.1182 134.587 40.0376 133.306 41.0439C133.166 41.1619 132.99 41.2455 132.919 41.5245ZM133.917 38.1816C133.969 38.2014 134.024 38.2081 134.079 38.201C134.134 38.1938 134.186 38.1732 134.23 38.1409C135.459 37.451 136.531 36.5885 137.273 35.3677C137.412 35.1402 137.588 34.6103 137.605 34.6081C137.605 34.6081 137.593 34.5996 137.589 34.5996C137.577 34.606 134.964 36.8202 133.917 38.1816Z"
    fill="white" />
  <path
    d="M134.543 23.4221C134.045 22.8739 133.536 22.3311 132.904 21.9342C132.209 21.4965 131.681 21.593 131.172 22.2356C130.647 22.8986 130.132 23.5691 129.614 24.2364L128.18 26.4067L126.076 30.1035L126.045 30.1733C126.045 30.1733 125.751 30.7333 125.609 31.0111C125.188 31.8425 124.751 32.6664 124.308 33.5236C124.076 33.3176 123.878 33.1428 123.681 32.9657C123.139 32.4798 122.618 31.9723 121.942 31.6591C120.778 31.1227 119.732 31.2815 118.802 32.1633C118.345 32.5924 118.001 33.1159 117.652 33.6309C116.186 35.7872 114.969 38.0594 114.345 40.618C114.061 41.767 114.405 42.6166 115.331 43.2775C115.697 43.5392 116.097 43.7538 116.452 44.0284C116.903 44.3771 117.356 44.3417 117.828 44.1153C118.368 43.8521 118.834 43.4601 119.185 42.9739C119.904 42.0084 120.605 41.0268 121.32 40.0548C121.642 39.6257 121.964 39.1966 122.318 38.7353C122.373 38.9605 122.265 39.0775 122.21 39.2051C121.294 41.3572 120.417 43.5264 119.767 45.7782C119.607 46.3285 119.491 46.8874 119.584 47.4614C119.692 48.1233 120.198 48.4484 120.729 48.7423C121.18 48.9912 121.665 49.1822 122.054 49.5351C122.204 49.6724 122.367 49.8183 122.581 49.7207C122.794 49.6231 122.843 49.4064 122.833 49.1843C122.809 48.6547 122.852 48.1242 122.961 47.6052C123.371 45.6934 124.104 43.8954 124.892 42.1167C126.977 37.39 129.477 32.8799 132.064 28.4149C132.114 28.3259 132.145 28.2154 132.265 28.1854C132.67 27.2799 133.249 26.4689 133.74 25.6171C134.01 25.1472 134.302 24.6913 134.586 24.2289C134.756 23.9478 134.766 23.6678 134.543 23.4221ZM122.671 35.2229C121.374 36.5296 120.076 37.8345 118.775 39.1376C118.713 39.1906 118.646 39.238 118.575 39.2792C118.587 39.2727 119.506 37.2258 120.268 36.4105C120.845 35.7915 121.529 35.3248 122.38 35.151C122.482 35.1296 122.586 35.121 122.713 35.1038C122.694 35.1564 122.692 35.1993 122.671 35.2208V35.2229Z"
    fill="white" />
  <path
    d="M144.602 41.942C145.453 40.812 146.304 39.683 147.157 38.5552C149.316 35.7037 151.462 32.8414 153.824 30.1508C154.383 29.5136 154.972 28.9032 155.559 28.2906C155.899 27.9355 156.135 27.9248 156.536 28.1994C156.874 28.4312 157.212 28.664 157.551 28.8935C157.997 29.1961 158.058 29.4417 157.766 29.888C157.322 30.5671 156.755 31.1475 156.231 31.7611C152.83 35.7573 149.498 39.8071 146.168 43.8644C145.755 44.3661 145.295 44.8266 144.793 45.2398C144.399 45.5616 143.97 45.6067 143.541 45.347C142.812 44.9179 142.091 44.4716 141.385 44.005C141.159 43.8585 140.981 43.6501 140.871 43.4047C140.762 43.1594 140.725 42.8877 140.766 42.6221C141.122 39.6891 141.642 36.7915 142.744 34.0301C142.949 33.5152 143.142 32.9895 143.469 32.5335C143.848 32.0057 144.252 31.9177 144.798 32.2686C145.259 32.5543 145.701 32.8696 146.122 33.2126C146.591 33.6085 146.565 34.1492 146.393 34.6781C145.863 36.3109 145.301 37.934 144.861 39.5947C144.691 40.2384 144.506 40.8692 144.488 41.5365C144.488 41.6631 144.502 41.7896 144.511 41.9162L144.602 41.942Z"
    fill="white" />
  <path
    d="M59.4336 41.0428C60.0067 40.8208 60.5777 40.5901 61.1508 40.3788C66.6128 38.3846 72.2357 36.8618 77.9578 35.8269C82.5351 34.9822 87.1745 34.5178 91.8285 34.4387C95.1652 34.3904 98.4826 34.5932 101.711 35.5458C103.477 36.0683 105.145 36.7946 106.601 37.9553C108.302 39.3156 109.428 41.0214 109.738 43.212C109.78 43.4156 109.783 43.6254 109.745 43.83C109.336 43.4524 108.979 43.0876 108.586 42.7647C106.869 41.3507 104.859 40.5043 102.749 39.8746C99.295 38.8425 95.7447 38.4531 92.1622 38.2654C88.6999 38.083 85.243 38.1667 81.7839 38.3458C78.6447 38.5089 75.5173 38.7964 72.3973 39.1579C68.7783 39.5735 65.1733 40.1002 61.5822 40.7382C60.8793 40.8637 60.1784 40.9999 59.4776 41.1319L59.4336 41.0428Z"
    fill="white" />
  <path
    d="M104.055 13.8128C104.055 13.0039 104.063 12.1951 104.055 11.3872C104.055 11.0933 104.12 10.9581 104.455 10.9667C105.501 10.9881 106.55 10.9753 107.597 10.9764C107.876 10.972 108.154 11.0034 108.424 11.0697C108.772 11.1599 109.084 11.3567 109.315 11.6325C109.545 11.9084 109.684 12.2495 109.712 12.6081C109.79 13.5989 109.79 14.5943 109.712 15.5851C109.66 16.2288 109.343 16.5442 108.709 16.5807C107.266 16.6622 105.82 16.6289 104.376 16.6418C104.134 16.6418 104.084 16.5098 104.084 16.32C104.084 15.4853 104.084 14.651 104.084 13.8171L104.055 13.8128Z"
    fill="white" />
  <path
    d="M81.7527 13.744C81.7527 14.5658 81.7527 15.3875 81.7527 16.2115C81.7527 16.4185 81.7344 16.5741 81.4618 16.5719C80.029 16.558 78.5952 16.6041 77.1688 16.5226C76.454 16.4818 76.1503 16.131 76.1117 15.4036C76.0644 14.5293 76.073 13.655 76.1009 12.7796C76.1364 11.695 76.7857 10.9783 77.8793 10.9311C79.0846 10.8786 80.293 10.9151 81.5004 10.9043C81.7548 10.9043 81.7687 11.0481 81.7687 11.239C81.7687 12.0747 81.7687 12.9105 81.7687 13.7462L81.7527 13.744Z"
    fill="white" />
  <defs>
    <linearGradient id="paint0_linear_2903_11274" x1="16.4806" y1="27.9957" x2="0.777348" y2="43.7047"
      gradientUnits="userSpaceOnUse">
      <stop stop-color="white" />
      <stop offset="1" stop-color="#D8D8D8" />
    </linearGradient>
    <linearGradient id="paint1_linear_2903_11274" x1="17.1776" y1="50.9583" x2="31.4873" y2="36.566"
      gradientUnits="userSpaceOnUse">
      <stop stop-color="white" />
      <stop offset="1" stop-color="#D8D8D8" />
    </linearGradient>
    <linearGradient id="paint2_linear_2903_11274" x1="36.0593" y1="32.6784" x2="6.38988" y2="62.3601"
      gradientUnits="userSpaceOnUse">
      <stop stop-color="white" />
      <stop offset="1" stop-color="#D8D8D8" />
    </linearGradient>
    <linearGradient id="paint3_linear_2903_11274" x1="37.7291" y1="1.89969" x2="1.91144" y2="37.7323"
      gradientUnits="userSpaceOnUse">
      <stop offset="0.06" stop-color="#57AFFF" />
      <stop offset="0.53" stop-color="#0068FF" />
      <stop offset="0.95" stop-color="#0040E0" />
    </linearGradient>
    <linearGradient id="paint4_linear_2903_11274" x1="16.2104" y1="51.31" x2="6.97159" y2="42.0666"
      gradientUnits="userSpaceOnUse">
      <stop offset="0.34" stop-color="#0068FF" />
      <stop offset="1" stop-color="#00133A" />
    </linearGradient>
    <linearGradient id="paint5_linear_2903_11274" x1="9.84766" y1="51.8313" x2="12.18" y2="51.8313"
      gradientUnits="userSpaceOnUse">
      <stop offset="0.06" stop-color="#57AFFF" />
      <stop offset="0.53" stop-color="#0068FF" />
      <stop offset="0.95" stop-color="#0040E0" />
    </linearGradient>
    <linearGradient id="paint6_linear_2903_11274" x1="16.8155" y1="30.8555" x2="26.8584" y2="36.6562"
      gradientUnits="userSpaceOnUse">
      <stop offset="0.48" stop-color="#0068FF" />
      <stop offset="1" stop-color="#00133A" />
    </linearGradient>
    <linearGradient id="paint7_linear_2903_11274" x1="68.6809" y1="10.9137" x2="57.3266" y2="30.5875"
      gradientUnits="userSpaceOnUse">
      <stop offset="0.06" stop-color="#57AFFF" />
      <stop offset="0.42" stop-color="#0068FF" />
      <stop offset="0.77" stop-color="#0040E0" />
    </linearGradient>
    <linearGradient id="paint8_linear_2903_11274" x1="99.1702" y1="12.0915" x2="89.073" y2="29.5882"
      gradientUnits="userSpaceOnUse">
      <stop offset="0.06" stop-color="#57AFFF" />
      <stop offset="0.42" stop-color="#0068FF" />
      <stop offset="0.77" stop-color="#0040E0" />
    </linearGradient>
    <linearGradient id="paint9_linear_2903_11274" x1="126.162" y1="11.8773" x2="116.321" y2="28.9276"
      gradientUnits="userSpaceOnUse">
      <stop offset="0.06" stop-color="#57AFFF" />
      <stop offset="0.42" stop-color="#0068FF" />
      <stop offset="0.77" stop-color="#0040E0" />
    </linearGradient>
    <linearGradient id="paint10_linear_2903_11274" x1="143.467" y1="12.1625" x2="133.62" y2="29.2267"
      gradientUnits="userSpaceOnUse">
      <stop offset="0.06" stop-color="#57AFFF" />
      <stop offset="0.42" stop-color="#0068FF" />
      <stop offset="0.77" stop-color="#0040E0" />
    </linearGradient>
    <linearGradient id="paint11_linear_2903_11274" x1="109.897" y1="18.8725" x2="103.407" y2="30.1189"
      gradientUnits="userSpaceOnUse">
      <stop offset="0.06" stop-color="#57AFFF" />
      <stop offset="0.42" stop-color="#0068FF" />
      <stop offset="0.77" stop-color="#0040E0" />
    </linearGradient>
    <linearGradient id="paint12_linear_2903_11274" x1="82.605" y1="18.4681" x2="75.9014" y2="30.0835"
      gradientUnits="userSpaceOnUse">
      <stop offset="0.06" stop-color="#57AFFF" />
      <stop offset="0.42" stop-color="#0068FF" />
      <stop offset="0.77" stop-color="#0040E0" />
    </linearGradient>
  </defs>
</svg>