<svg width="64" height="64" viewBox="0 0 64 64" xmlns="http://www.w3.org/2000/svg">
  <rect width="64" height="64" rx="32" fill="#485992" />
  <path
    d="M26.9938 47.5689V37.9063C26.9938 37.03 27.7001 36.3236 28.5764 36.3236H35.3903C36.2666 36.3236 36.9729 37.03 36.9729 37.9063V47.5689H45.2695C45.9858 47.5689 46.5689 46.9892 46.5689 46.2695V32.5019C46.3624 32.3803 46.1658 32.237 45.9858 32.0754L45.3028 31.459C44.9863 31.1758 44.5531 31.1758 44.2366 31.459L43.9534 31.7089C43.0371 32.5252 41.8709 32.975 40.6714 32.975H40.2882C39.1054 32.975 37.9392 32.5419 37.0229 31.7255L36.7064 31.4423C36.3898 31.1591 35.9567 31.1591 35.6402 31.4423L35.3236 31.7255C34.4073 32.5419 33.2412 32.9917 32.0583 32.9917H31.8251C30.6422 32.9917 29.4927 32.5585 28.5931 31.7589L28.2266 31.4423C27.91 31.1591 27.4769 31.1591 27.1604 31.4423L26.8605 31.7089C25.9442 32.5252 24.778 32.975 23.5785 32.975H23.2786C22.0791 32.975 20.9296 32.5419 20.0133 31.7255L19.6801 31.4423C19.3803 31.1591 18.9471 31.1591 18.6306 31.4423L17.8309 32.1587C17.7043 32.2703 17.571 32.3736 17.4311 32.4636V46.2695C17.4311 46.9858 18.0108 47.5689 18.7305 47.5689H26.9938ZM49.0679 32.9167V46.2695C49.0679 48.3719 47.3636 50.0679 45.2695 50.0679H18.7305C16.6281 50.0679 14.9321 48.3636 14.9321 46.2695V32.96C13.2778 32.7284 12 31.2307 12 29.4098V25.4948C12 25.0283 12.3665 24.6618 12.833 24.6618H51.167C51.6335 24.6618 52 25.0283 52 25.4948V29.1266C52 30.9992 50.7405 32.5635 49.0679 32.9167ZM50.2507 22.9958H13.716C13.1329 22.9958 12.733 22.3961 12.9496 21.8463L15.9817 14.3661C16.2982 13.5498 17.0646 13 17.9309 13H46.0358C46.9021 13 47.6685 13.5498 47.985 14.3828L51.0171 21.8463C51.2503 22.3961 50.8338 22.9958 50.2507 22.9958Z"
    fill="#DEE2E6" />
</svg>