<svg width="64" height="64" viewBox="0 0 64 64" xmlns="http://www.w3.org/2000/svg">
  <rect width="64" height="64" rx="32" fill="#FFCF00" />
  <path
    d="M52 31.081C52 23.8797 43.0473 18 32.0032 18C20.9495 18.0064 12 23.8797 12 31.081C12 31.2702 12 31.7803 12 31.8444C12 39.4884 19.8268 45.6824 31.9968 45.6824C44.2406 45.6824 51.9904 39.4884 51.9904 31.8444V31.081H52Z"
    fill="#283373" />
  <path
    d="M51.2273 31.0808C51.2273 37.8715 42.6211 43.3823 32.0036 43.3823C21.3861 43.3823 12.7734 37.8715 12.7734 31.0808C12.7734 24.2901 21.3797 18.7793 31.9972 18.7793C42.6147 18.7793 51.2273 24.2805 51.2273 31.0808Z"
    fill="#FFCF00" />
  <path
    d="M25.6108 27.1964C25.6044 27.2124 25.4055 27.4177 25.537 27.5749C25.8418 27.9598 26.7784 28.1812 27.7215 27.9695C28.2893 27.8444 29.011 27.2638 29.7103 26.712C30.4641 26.1122 31.2211 25.506 31.9749 25.2654C32.78 25.012 33.2901 25.1178 33.6365 25.2269C34.0054 25.3392 34.448 25.5797 35.1473 26.1058C36.4593 27.0906 41.7488 31.7129 42.6694 32.5084C43.4071 32.1812 46.6758 30.7698 51.1184 29.7914C50.7335 27.4177 49.2868 25.2493 47.1024 23.4755C44.0551 24.7586 40.3277 25.4226 36.6902 23.6487C36.6742 23.6423 34.7014 22.7056 32.7576 22.7537C29.8674 22.8211 28.6164 24.0689 27.2884 25.3969L25.6108 27.1964Z"
    fill="white" />
  <path
    d="M42.4584 33.0121C42.3942 32.9543 36.2418 27.5654 34.8465 26.5165C34.0414 25.907 33.5891 25.7499 33.1208 25.6953C32.877 25.66 32.5402 25.7114 32.2996 25.7755C31.6516 25.9487 30.8048 26.5229 30.051 27.1131C29.2715 27.7386 28.5305 28.3224 27.8505 28.4764C26.978 28.6753 25.9131 28.4443 25.4287 28.1171C25.2298 27.9856 25.0919 27.8284 25.0245 27.6745C24.8449 27.2543 25.1721 26.9271 25.2298 26.8693L26.9299 25.0281C27.1288 24.8325 27.3244 24.6336 27.5297 24.4379C26.978 24.5117 26.4712 24.6496 25.9772 24.7811C25.3613 24.9543 24.7711 25.1179 24.1713 25.1179C23.9243 25.1179 22.577 24.8966 22.3236 24.8325C20.7872 24.4122 19.4335 24.0017 17.4223 23.0586C15.0069 24.8549 13.3902 27.1067 12.9219 29.5766C13.2651 29.6697 13.8232 29.8333 14.0638 29.891C19.5329 31.1067 21.2298 32.3609 21.5442 32.6175C21.881 32.2454 22.3557 32.0081 22.8978 32.0081C23.5073 32.0081 24.0494 32.3128 24.3766 32.7811C24.6877 32.5341 25.124 32.3192 25.6821 32.3192C25.9355 32.3192 26.1985 32.3705 26.4616 32.4604C27.0774 32.6753 27.3982 33.0859 27.5618 33.4547C27.7671 33.3649 28.0237 33.2912 28.3252 33.2912C28.6204 33.2912 28.9251 33.3553 29.2362 33.4868C30.2467 33.9231 30.4038 34.9078 30.314 35.6552C30.3878 35.6456 30.4616 35.6456 30.5353 35.6456C31.735 35.6456 32.7037 36.6143 32.7037 37.814C32.7037 38.1829 32.6043 38.5293 32.4407 38.8405C32.7679 39.0201 33.5987 39.4403 34.3204 39.3409C34.9042 39.2671 35.1256 39.0714 35.1993 38.9559C35.2571 38.8822 35.3148 38.7924 35.2571 38.725L33.7142 37.0089C33.7142 37.0089 33.4576 36.7715 33.541 36.6721C33.6308 36.5758 33.788 36.7138 33.8938 36.8036C34.6829 37.4612 35.6356 38.4459 35.6356 38.4459C35.6516 38.4555 35.7158 38.5871 36.0686 38.6448C36.3734 38.7025 36.9155 38.6673 37.2843 38.3561C37.3838 38.2823 37.4736 38.1829 37.557 38.0867C37.5474 38.0931 37.5474 38.0931 37.541 38.1027C37.9323 37.6023 37.4993 37.0826 37.4993 37.0826L35.6997 35.065C35.6997 35.065 35.4463 34.8244 35.5265 34.7282C35.6099 34.6448 35.7735 34.7667 35.8794 34.8661C36.4471 35.3441 37.2619 36.1556 38.0317 36.9126C38.1793 37.0185 38.8625 37.4451 39.7575 36.8549C40.2996 36.4924 40.4151 36.0562 40.3958 35.729C40.3573 35.2928 40.0205 34.9816 40.0205 34.9816L37.557 32.5085C37.557 32.5085 37.294 32.2871 37.3934 32.1717C37.4672 32.0754 37.6372 32.2134 37.7463 32.3032C38.5257 32.9608 40.6524 34.9078 40.6524 34.9078C40.6845 34.9335 41.4159 35.4499 42.3204 34.8758C42.638 34.6705 42.8529 34.3561 42.8689 33.9968C42.901 33.381 42.4584 33.0121 42.4584 33.0121Z"
    fill="white" />
  <path
    d="M30.522 36.1459C30.1467 36.1395 29.7265 36.3704 29.6688 36.3352C29.6367 36.3191 29.6944 36.1651 29.7265 36.0721C29.7586 35.9823 30.2686 34.4715 29.0465 33.9454C28.1098 33.5445 27.5356 33.9967 27.3368 34.202C27.2887 34.2501 27.263 34.2501 27.2534 34.186C27.2373 33.9133 27.1154 33.1756 26.3039 32.9286C25.1459 32.5757 24.4049 33.3809 24.2157 33.676C24.1355 33.0184 23.5773 32.502 22.8941 32.502C22.1563 32.502 21.5565 33.1018 21.5469 33.8396C21.5469 34.5773 22.1467 35.1772 22.8877 35.1772C23.247 35.1772 23.5773 35.0392 23.8147 34.8019C23.8211 34.8083 23.8211 34.8179 23.8211 34.85C23.7634 35.1772 23.6575 36.3865 24.9214 36.8773C25.4314 37.0761 25.858 36.9286 26.2205 36.6816C26.3263 36.6078 26.3424 36.6399 26.3263 36.7393C26.2782 37.0505 26.336 37.7145 27.2726 38.093C27.9783 38.3817 28.3953 38.0866 28.6744 37.8299C28.7995 37.7241 28.8316 37.7401 28.8316 37.9037C28.8636 38.7987 29.611 39.514 30.5156 39.514C31.4523 39.514 32.2061 38.7602 32.2061 37.8299C32.2061 36.9029 31.4522 36.1555 30.522 36.1459Z"
    fill="white" />
  <path
    d="M42.6958 32.3609C40.8001 30.7025 36.4152 26.8918 35.2251 26.0064C34.5419 25.4964 34.0832 25.227 33.679 25.1019C33.4994 25.0441 33.2459 24.9864 32.9156 24.9864C32.614 24.9864 32.2933 25.0441 31.9468 25.1532C31.1834 25.397 30.4136 26.0064 29.6726 26.5902L29.6309 26.6223C28.9412 27.1708 28.2291 27.7386 27.6934 27.8541C27.4561 27.9022 27.2187 27.9343 26.9781 27.9343C26.3815 27.9343 25.8298 27.7643 25.6341 27.5012C25.5988 27.4595 25.6245 27.3858 25.6982 27.2863L25.7079 27.2703L27.3727 25.4708C28.6782 24.1652 29.9099 22.9335 32.7616 22.8693C32.8097 22.8693 32.8578 22.8693 32.8995 22.8693C34.667 22.8693 36.4408 23.6648 36.6365 23.7546C38.2949 24.5694 40.0046 24.98 41.7271 24.98C43.517 24.98 45.3743 24.5373 47.3213 23.6424C47.1064 23.4595 46.8755 23.2799 46.6477 23.1067C44.938 23.8477 43.3117 24.223 41.7367 24.223C40.1361 24.223 38.5258 23.838 36.9733 23.0746C36.8899 23.0329 34.9364 22.1123 32.9091 22.1123C32.8578 22.1123 32.8001 22.1123 32.7455 22.1123C30.3558 22.17 29.015 23.0169 28.104 23.7546C27.2251 23.7803 26.4713 23.9856 25.7881 24.1749C25.1882 24.3384 24.6654 24.486 24.1617 24.486C23.9565 24.486 23.5812 24.47 23.5459 24.47C22.9653 24.4539 20.0238 23.7322 17.6854 22.8437C17.4448 23.0169 17.2171 23.1901 16.9925 23.3633C19.4336 24.3641 22.4071 25.134 23.3502 25.2013C23.6132 25.2174 23.8923 25.2494 24.1714 25.2494C24.7937 25.2494 25.4095 25.0794 26.0094 24.9062C26.3622 24.8068 26.7568 24.7009 27.1674 24.6175C27.0615 24.7234 26.946 24.8324 26.8402 24.9479L25.1497 26.7763C25.0182 26.9078 24.7199 27.2703 24.9188 27.7129C24.9925 27.8958 25.1497 28.0658 25.3614 28.2069C25.7656 28.4764 26.4873 28.6656 27.1609 28.6656C27.4144 28.6656 27.6517 28.6432 27.8731 28.5919C28.5884 28.4379 29.3293 27.838 30.1152 27.2125C30.7472 26.7121 31.6453 26.0802 32.3253 25.891C32.5146 25.8429 32.752 25.8076 32.9412 25.8076C32.999 25.8076 33.0471 25.8076 33.0984 25.8172C33.5475 25.8749 33.9837 26.0321 34.7632 26.6127C36.1521 27.6552 42.3205 33.0441 42.3751 33.1019C42.3751 33.1019 42.7696 33.4451 42.7472 34.0032C42.7311 34.3176 42.5579 34.5967 42.2532 34.7923C41.9901 34.9559 41.7207 35.0457 41.448 35.0457C41.0374 35.0457 40.752 34.8501 40.7327 34.8405C40.7103 34.8244 38.5996 32.887 37.8265 32.239C37.7047 32.1396 37.5796 32.0401 37.4673 32.0401C37.3999 32.0401 37.3422 32.0658 37.3005 32.1139C37.1786 32.2647 37.3165 32.4764 37.4737 32.6079L39.9372 35.0874C39.9372 35.0874 40.2419 35.3761 40.274 35.7546C40.2901 36.1652 40.0944 36.5085 39.6902 36.7715C39.4047 36.9607 39.1096 37.0602 38.8209 37.0602C38.4424 37.0602 38.1794 36.887 38.1152 36.8453L37.7624 36.502C37.1112 35.8669 36.4472 35.2029 35.9629 34.802C35.8474 34.7025 35.7159 34.6127 35.594 34.6127C35.5362 34.6127 35.4785 34.6352 35.4368 34.6769C35.3791 34.7442 35.3406 34.8501 35.4785 35.0393C35.5362 35.1131 35.6004 35.1773 35.6004 35.1773L37.3999 37.1981C37.416 37.2141 37.7688 37.6408 37.4416 38.061L37.3743 38.1444C37.3165 38.1989 37.262 38.2567 37.2107 38.308C36.9059 38.5614 36.4953 38.587 36.3318 38.587C36.2419 38.587 36.1617 38.5774 36.0848 38.5614C35.9051 38.5293 35.7897 38.478 35.7319 38.4138L35.7095 38.3882C35.61 38.2919 34.7055 37.3617 33.9516 36.7394C33.8522 36.656 33.7303 36.5502 33.5988 36.5502C33.5314 36.5502 33.4833 36.5758 33.4352 36.6239C33.2877 36.7875 33.509 37.0249 33.6052 37.1179L35.1417 38.8084C35.1417 38.8244 35.116 38.8565 35.084 38.9142C35.0262 38.988 34.8466 39.1773 34.2885 39.2446C34.2211 39.251 34.1473 39.2607 34.0832 39.2607C33.509 39.2607 32.8995 38.9816 32.5788 38.8148C32.7199 38.5133 32.8001 38.1765 32.8001 37.8461C32.8001 36.5822 31.7736 35.5558 30.5098 35.5558C30.4873 35.5558 30.4521 35.5558 30.4296 35.5558C30.4681 34.9816 30.3879 33.8878 29.2716 33.4034C28.9508 33.2655 28.6301 33.1917 28.3093 33.1917C28.0623 33.1917 27.8346 33.2334 27.6132 33.3136C27.3823 32.8613 26.9974 32.5341 26.4937 32.3609C26.2147 32.2647 25.9452 32.2133 25.6726 32.2133C25.2043 32.2133 24.7776 32.3545 24.3927 32.6239C24.0238 32.1652 23.4721 31.8926 22.8915 31.8926C22.3815 31.8926 21.8875 32.0979 21.5282 32.4603C21.0503 32.0979 19.1545 30.8918 14.0864 29.7434C13.8394 29.6857 13.2748 29.5285 12.9284 29.4226C12.8707 29.6921 12.8322 29.9712 12.7969 30.2502C12.7969 30.2502 13.7335 30.4716 13.9132 30.5133C19.0968 31.6648 20.8033 32.8613 21.092 33.0858C20.9925 33.3232 20.9444 33.5766 20.9444 33.8332C20.9444 34.8982 21.8137 35.7707 22.8819 35.7707C23.0038 35.7707 23.1192 35.7611 23.2347 35.7354C23.3983 36.5245 23.9083 37.1243 24.6974 37.4291C24.9252 37.5189 25.1561 37.5606 25.3871 37.5606C25.5346 37.5606 25.6822 37.5445 25.8298 37.5028C25.9773 37.8717 26.3077 38.3304 27.0358 38.6287C27.2925 38.7346 27.5459 38.7827 27.7993 38.7827C28.0046 38.7827 28.2035 38.7506 28.3927 38.6769C28.7456 39.5301 29.5731 40.0979 30.5098 40.0979C31.1257 40.0979 31.7191 39.8509 32.1521 39.3986C32.521 39.6039 33.3037 39.9728 34.0896 39.9728C34.189 39.9728 34.2885 39.9664 34.3879 39.9567C35.1674 39.8605 35.5362 39.5558 35.6998 39.3184C35.7319 39.2767 35.7576 39.235 35.7832 39.1869C35.9629 39.235 36.1682 39.2831 36.4055 39.2831C36.8322 39.2831 37.2427 39.1356 37.663 38.834C38.0735 38.5357 38.3622 38.1187 38.4007 37.7562C38.4007 37.7498 38.4007 37.7498 38.4007 37.7402C38.5419 37.7659 38.6798 37.7819 38.8209 37.7819C39.2636 37.7819 39.6902 37.6408 40.1104 37.3713C40.9059 36.8453 41.0471 36.1652 41.031 35.7194C41.169 35.7546 41.3101 35.7611 41.4577 35.7611C41.8682 35.7611 42.2788 35.6392 42.6638 35.3922C43.1577 35.081 43.4528 34.5967 43.501 34.0289C43.533 33.644 43.4368 33.2558 43.2379 32.9287C44.5788 32.3545 47.6325 31.2382 51.2283 30.4234C51.2026 30.1444 51.1642 29.8653 51.1128 29.5959C46.7536 30.5967 43.5106 32.0016 42.6958 32.3609ZM30.5258 39.3986C29.6822 39.3986 28.9925 38.741 28.9669 37.9038C28.9669 37.83 28.9573 37.6408 28.7937 37.6408C28.7295 37.6408 28.6718 37.6825 28.6044 37.7402C28.4152 37.9134 28.1874 38.0866 27.8346 38.0866C27.6774 38.0866 27.5042 38.0514 27.3245 37.9776C26.4296 37.6183 26.42 37.0024 26.4553 36.7554C26.4617 36.6881 26.4713 36.6239 26.42 36.5662L26.3719 36.5245H26.3141C26.266 36.5245 26.2243 36.5405 26.1569 36.5919C25.9035 36.7715 25.6501 36.8613 25.4031 36.8613C25.262 36.8613 25.1241 36.8356 24.9765 36.7811C23.8025 36.3192 23.8923 35.2125 23.95 34.8821C23.9564 34.818 23.9404 34.7603 23.8987 34.7282L23.8185 34.6608L23.7447 34.7186C23.5138 34.9399 23.2187 35.065 22.8979 35.065C22.2243 35.065 21.6758 34.5133 21.6758 33.8396C21.6758 33.166 22.2243 32.6175 22.8979 32.6239C23.5074 32.6239 24.0238 33.0858 24.104 33.6921L24.1457 34.0193L24.3285 33.7402C24.3446 33.7081 24.845 32.9607 25.7464 32.9607C25.9196 32.9607 26.1024 32.9864 26.282 33.0441C27.0038 33.2655 27.1289 33.923 27.1449 34.1925C27.1609 34.3497 27.2668 34.3561 27.2925 34.3561C27.3566 34.3561 27.3983 34.3176 27.4304 34.2823C27.5715 34.1444 27.8666 33.907 28.3253 33.907C28.5403 33.907 28.7616 33.9551 28.999 34.0546C30.1505 34.5453 29.6245 36.008 29.6245 36.0241C29.525 36.2615 29.5154 36.3705 29.6148 36.4347L29.6565 36.4603H29.6886C29.7399 36.4603 29.8041 36.4347 29.9099 36.4026C30.0671 36.3449 30.3045 36.2711 30.5258 36.2711C31.3887 36.2775 32.0944 36.9864 32.0944 37.8396C32.0944 38.7025 31.3887 39.3986 30.5258 39.3986Z"
    fill="#283373" />
</svg>