<svg width="64" height="64" viewBox="0 0 64 64" fill="none" xmlns="http://www.w3.org/2000/svg">
<path d="M9.26417 40.2659C7.98886 34.829 7.98886 29.171 9.26417 23.7342L5.07031 22.7504C3.64323 28.8342 3.64323 35.1659 5.07031 41.2498L9.26417 40.2659ZM54.7358 23.7342C56.0111 29.171 56.0111 34.829 54.7358 40.2659L58.9298 41.2495C60.3567 35.1659 60.3567 28.8342 58.9298 22.7504L54.7358 23.7342ZM40.2659 54.7358C34.829 56.0111 29.171 56.0111 23.7342 54.7358L22.7504 58.9298C28.8342 60.3567 35.1659 60.3567 41.2495 58.9298L40.2659 54.7358ZM23.7342 9.26417C29.171 7.98886 34.829 7.98886 40.2659 9.26417L41.2495 5.07031C35.1659 3.64323 28.8342 3.64323 22.7504 5.07031L23.7342 9.26417ZM23.7342 54.7358C16.5544 53.0518 10.9483 47.4457 9.26417 40.2659L5.07031 41.2498C7.12807 50.0223 13.9778 56.8721 22.7504 58.9298L23.7342 54.7358ZM41.2495 58.9298C50.0223 56.8721 56.8721 50.0223 58.9298 41.2495L54.7358 40.2659C53.0518 47.4457 47.4457 53.0518 40.2659 54.7358L41.2495 58.9298ZM40.2659 9.26417C47.4457 10.9483 53.0518 16.5544 54.7358 23.7342L58.9298 22.7504C56.8721 13.9778 50.0223 7.12807 41.2495 5.07031L40.2659 9.26417ZM22.7504 5.07031C13.9778 7.12807 7.12807 13.9778 5.07031 22.7504L9.26417 23.7342C10.9483 16.5543 16.5544 10.9483 23.7342 9.26417L22.7504 5.07031Z" fill="#F97316"/>
<path d="M54.7358 23.7342C55.0074 24.8923 56.1665 25.6109 57.3247 25.3392C58.4829 25.0676 59.2014 23.9085 58.9298 22.7504L54.7358 23.7342ZM41.2495 58.9298C42.4077 58.6581 43.1262 57.499 42.8546 56.3408C42.5832 55.1829 41.4241 54.4644 40.2659 54.7358L41.2495 58.9298ZM9.26417 40.2659C7.98886 34.829 7.98886 29.171 9.26417 23.7342L5.07031 22.7504C3.64323 28.8342 3.64323 35.1659 5.07031 41.2498L9.26417 40.2659ZM40.2659 54.7358C34.829 56.0111 29.171 56.0111 23.7342 54.7358L22.7504 58.9298C28.8342 60.3567 35.1659 60.3567 41.2495 58.9298L40.2659 54.7358ZM23.7342 9.26417C29.171 7.98886 34.829 7.98886 40.2659 9.26417L41.2495 5.07031C35.1659 3.64323 28.8342 3.64323 22.7504 5.07031L23.7342 9.26417ZM23.7342 54.7358C16.5544 53.0518 10.9483 47.4457 9.26417 40.2659L5.07031 41.2498C7.12807 50.0223 13.9778 56.8721 22.7504 58.9298L23.7342 54.7358ZM40.2659 9.26417C47.4457 10.9483 53.0518 16.5544 54.7358 23.7342L58.9298 22.7504C56.8721 13.9778 50.0223 7.12807 41.2495 5.07031L40.2659 9.26417ZM22.7504 5.07031C13.9778 7.12807 7.12807 13.9778 5.07031 22.7504L9.26417 23.7342C10.9483 16.5543 16.5544 10.9483 23.7342 9.26417L22.7504 5.07031Z" fill="#FFEDD5"/>
<path d="M29.8463 24.4896C29.8463 25.6791 30.8106 26.6435 32.0001 26.6435C33.1896 26.6435 34.154 25.6791 34.154 24.4896H29.8463ZM34.154 20.0503C34.154 18.8608 33.1896 17.8965 32.0001 17.8965C30.8106 17.8965 29.8463 18.8608 29.8463 20.0503H34.154ZM29.8463 43.9498C29.8463 45.1396 30.8106 46.1037 32.0001 46.1037C33.1896 46.1037 34.154 45.1396 34.154 43.9498H29.8463ZM34.154 39.5112C34.154 38.3217 33.1896 37.3573 32.0001 37.3573C30.8106 37.3573 29.8463 38.3217 29.8463 39.5112H34.154ZM26.5727 37.6207C27.6028 37.0259 27.9558 35.7086 27.361 34.6785C26.7663 33.6484 25.449 33.2954 24.4189 33.8902L26.5727 37.6207ZM20.5743 36.1098C19.5442 36.7046 19.1912 38.0218 19.786 39.052C20.3808 40.0821 21.698 40.435 22.7282 39.8403L20.5743 36.1098ZM43.4259 27.8904C44.456 27.2957 44.8089 25.9785 44.2142 24.9483C43.6194 23.9181 42.3021 23.5652 41.272 24.1599L43.4259 27.8904ZM37.4278 26.3793C36.3977 26.974 36.0448 28.2913 36.6395 29.3217C37.2343 30.3518 38.5515 30.7048 39.5817 30.11L37.4278 26.3793ZM24.4189 30.11C25.449 30.7048 26.7663 30.3518 27.361 29.3217C27.9558 28.2916 27.6028 26.9743 26.5727 26.3796L24.4189 30.11ZM22.7282 24.1599C21.698 23.5652 20.3808 23.9181 19.786 24.9483C19.1912 25.9785 19.5442 27.2957 20.5743 27.8904L22.7282 24.1599ZM41.272 39.8403C42.3021 40.435 43.6194 40.0821 44.2142 39.052C44.8089 38.0218 44.456 36.7046 43.4259 36.1098L41.272 39.8403ZM39.5817 33.8902C38.5515 33.2954 37.2343 33.6484 36.6395 34.6788C36.0448 35.7089 36.3977 37.0262 37.4278 37.6209L39.5817 33.8902ZM34.154 24.4896V20.0503H29.8463V24.4896H34.154ZM34.154 43.9498V39.5112H29.8463V43.9498H34.154ZM24.4189 33.8902L20.5743 36.1098L22.7282 39.8403L26.5727 37.6207L24.4189 33.8902ZM41.272 24.1599L37.4278 26.3793L39.5817 30.11L43.4259 27.8904L41.272 24.1599ZM26.5727 26.3796L22.7282 24.1599L20.5743 27.8904L24.4189 30.11L26.5727 26.3796ZM43.4259 36.1098L39.5817 33.8902L37.4278 37.6209L41.272 39.8403L43.4259 36.1098Z" fill="#F97316"/>
</svg>
