<svg width="64" height="64" viewBox="0 0 64 64" fill="none" xmlns="http://www.w3.org/2000/svg">
<path d="M32 24.9868C46.888 24.9868 56 30.1668 56 32.9868C56 35.8068 46.888 40.9868 32 40.9868C17.112 40.9868 8 35.8068 8 32.9868C8 30.1668 17.112 24.9868 32 24.9868ZM32 20.9868C16.536 20.9868 4 26.3588 4 32.9868C4 39.6148 16.536 44.9868 32 44.9868C47.464 44.9868 60 39.6148 60 32.9868C60 26.3588 47.464 20.9868 32 20.9868Z" fill="#0288D1"/>
<path d="M32 28.9868C31.2089 28.9868 30.4355 29.2214 29.7777 29.6609C29.1199 30.1005 28.6072 30.7252 28.3045 31.4561C28.0017 32.187 27.9225 32.9913 28.0769 33.7672C28.2312 34.5431 28.6122 35.2558 29.1716 35.8152C29.731 36.3747 30.4437 36.7556 31.2196 36.91C31.9956 37.0643 32.7998 36.9851 33.5307 36.6823C34.2616 36.3796 34.8864 35.8669 35.3259 35.2091C35.7654 34.5513 36 33.7779 36 32.9868C36 31.926 35.5786 30.9085 34.8284 30.1584C34.0783 29.4082 33.0609 28.9868 32 28.9868Z" fill="#0288D1"/>
<path d="M20.916 12.0008C24.95 12.0008 32.79 18.3548 38.928 28.9868C46.372 41.8808 46.442 52.3608 44 53.7708C43.7183 53.9169 43.403 53.9859 43.086 53.9708C39.052 53.9708 31.21 47.6188 25.072 36.9868C17.628 24.0928 17.558 13.6128 20 12.2028C20.2824 12.0567 20.5984 11.9857 20.916 12.0008ZM20.914 8.00282C19.8947 7.98447 18.889 8.23782 18 8.73682C12.26 12.0508 13.876 25.5948 21.608 38.9868C28.176 50.3668 37.048 57.9728 43.088 57.9728C44.107 57.9897 45.1121 57.735 46 57.2348C51.74 53.9228 50.124 40.3788 42.392 26.9868C35.824 15.6068 26.952 8.00082 20.912 8.00082L20.914 8.00282Z" fill="#0288D1"/>
<path d="M43.086 12.0008C43.403 11.9858 43.7183 12.0548 44 12.2008C46.442 13.6128 46.372 24.0928 38.928 36.9868C32.788 47.6188 24.948 53.9728 20.914 53.9728C20.597 53.9879 20.2817 53.9189 20 53.7728C17.558 52.3588 17.628 41.8788 25.072 28.9868C31.212 18.3548 39.052 12.0008 43.086 12.0008ZM43.086 8.00082C37.046 8.00082 28.176 15.6088 21.606 26.9868C13.878 40.3788 12.26 53.9228 18 57.2348C18.8885 57.7353 19.8944 57.99 20.914 57.9728C26.954 57.9728 35.824 50.3648 42.394 38.9868C50.122 25.5948 51.74 12.0508 46 8.73882C45.1115 8.23833 44.1056 7.98359 43.086 8.00082Z" fill="#0288D1"/>
</svg>
