<svg width="64" height="64" viewBox="0 0 64 64" xmlns="http://www.w3.org/2000/svg">
  <rect width="64" height="64" rx="32" fill="#FF5700" />
  <path fill-rule="evenodd" clip-rule="evenodd"
    d="M38.058 37.4951C36.534 37.4951 35.256 36.2438 35.256 34.7002C35.256 33.1546 36.534 31.8623 38.058 31.8623C39.58 31.8623 40.814 33.1546 40.814 34.7002C40.814 36.2438 39.582 37.4951 38.058 37.4951ZM38.446 42.6592C37.1 44.0223 34.99 44.6855 31.998 44.6855C29.004 44.6855 26.896 44.0223 25.552 42.6592C25.26 42.363 25.26 41.8841 25.552 41.5859C25.842 41.2898 26.316 41.2898 26.608 41.5859C27.658 42.6509 29.42 43.1699 31.998 43.1699C34.574 43.1699 36.338 42.6509 37.39 41.5859C37.68 41.2898 38.154 41.2898 38.446 41.5859C38.738 41.8841 38.738 42.363 38.446 42.6592ZM23.184 34.7002C23.184 33.1566 24.46 31.8623 25.982 31.8623C27.504 31.8623 28.738 33.1566 28.738 34.7002C28.738 36.2438 27.504 37.4951 25.982 37.4951C24.46 37.4951 23.184 36.2438 23.184 34.7002ZM52 31.627C52 29.0935 49.968 27.0322 47.47 27.0322C46.318 27.0322 45.232 27.4681 44.4 28.249C41.41 26.2754 37.406 24.9996 32.972 24.8252L35.418 17.2539L41.842 18.7871C41.844 20.8723 43.516 22.5664 45.572 22.5664C47.628 22.5664 49.302 20.8684 49.302 18.7832C49.302 16.698 47.628 15 45.572 15C44.032 15 42.71 15.9488 42.14 17.3018C40.756 16.9711 35.808 15.7886 34.424 15.458L31.404 24.8096C26.802 24.8968 22.632 26.1662 19.53 28.1865C18.708 27.4461 17.644 27.0322 16.528 27.0322C14.032 27.0322 12 29.0935 12 31.627C12 33.2355 12.828 34.7095 14.152 35.5371C12.946 42.7623 21.34 49 31.916 49C42.448 49 50.814 42.8175 49.698 35.6289C51.114 34.8236 52 33.3146 52 31.627Z"
    fill="#DEE2E6" />
</svg>