<svg width="64" height="64" viewBox="0 0 64 64" fill="none" xmlns="http://www.w3.org/2000/svg">
<path d="M39.7278 23.666C39.5891 21.2728 39.1035 18.8969 38.2711 16.5384C37.0918 13.1394 36.5022 10.7982 36.5022 9.51479C36.5022 7.71128 36.9184 6.34126 37.7508 5.40471C38.6179 4.46831 39.6758 4.00007 40.9244 4C41.9996 4.00007 42.9361 4.46831 43.7339 5.40471C44.5316 6.34126 44.9304 7.6766 44.9305 9.41074C44.9304 10.9716 44.4622 13.1567 43.5258 15.9661C42.6239 18.7409 42.069 21.3075 41.8609 23.666C43.7685 22.4521 45.4854 20.978 47.0115 19.2437C49.37 16.5037 51.1216 14.8042 52.2662 14.1451C53.4107 13.4862 54.5726 13.1567 55.7519 13.1566C56.8965 13.1567 57.8503 13.5556 58.6134 14.3532C59.4111 15.1164 59.81 16.0355 59.81 17.1106C59.81 18.394 59.2377 19.5386 58.0931 20.5444C56.9485 21.5503 54.0871 22.5561 49.5088 23.5619C46.8381 24.1516 44.6183 24.8279 42.8494 25.5909C44.653 26.5275 46.8554 27.2385 49.4568 27.724C53.6535 28.4871 56.3936 29.4409 57.6769 30.5855C58.9949 31.7301 59.6539 32.9787 59.6539 34.3314C59.6539 35.3719 59.255 36.2737 58.4573 37.0367C57.6942 37.7998 56.7924 38.1814 55.7519 38.1813C54.7114 38.1814 53.5495 37.8172 52.2662 37.0888C51.0175 36.3604 49.318 34.7303 47.1676 32.1983C45.7455 30.4988 43.9766 28.9033 41.8609 27.4119C41.9302 29.3889 42.3291 31.5393 43.0575 33.8631C44.3061 37.9559 44.9304 40.748 44.9305 42.2394C44.9304 43.6268 44.5143 44.806 43.6818 45.7772C42.8494 46.7137 41.9649 47.1819 41.0285 47.1819C39.7451 47.1819 38.5832 46.679 37.5427 45.6731C36.8143 44.9448 36.4501 43.7829 36.4502 42.1873C36.4501 40.5225 36.849 38.5282 37.6468 36.2043C38.4445 33.8458 38.9474 32.233 39.1555 31.3659C39.3636 30.4641 39.5544 29.1461 39.7278 27.4119C37.6815 28.7646 35.8952 30.2734 34.3691 31.9382C31.8372 34.7823 29.9295 36.5859 28.6462 37.3489C27.7444 37.9039 26.808 38.1814 25.8368 38.1813C24.6575 38.1814 23.6517 37.7825 22.8193 36.9847C21.9869 36.187 21.5706 35.3026 21.5707 34.3314C21.5706 33.4643 21.9175 32.5625 22.6112 31.626C23.3395 30.6549 24.4147 29.8571 25.8368 29.2328C26.7733 28.8166 28.9064 28.2617 32.2361 27.5679C34.3865 27.1171 36.4849 26.4581 38.5312 25.5909C36.6583 24.6545 34.4211 23.9261 31.8198 23.4058C27.5537 22.5041 24.9177 21.689 23.9118 20.9606C22.351 19.8161 21.5706 18.4287 21.5707 16.7985C21.5706 15.8621 21.9522 15.0123 22.7152 14.2492C23.513 13.4515 24.4321 13.0527 25.4726 13.0526C26.6172 13.0527 27.8311 13.4168 29.1145 14.1451C30.3978 14.8736 31.9932 16.3476 33.9009 18.5674C35.8085 20.7525 37.7508 22.4521 39.7278 23.666ZM12.9136 42.1727C15.4298 42.1727 17.5444 43.0561 19.2576 44.8227C20.9707 46.5359 21.8272 48.6237 21.8273 51.0864C21.8272 53.549 20.9439 55.6636 19.1773 57.4303C17.4641 59.1434 15.3762 60 12.9136 60C10.451 60 8.33635 59.1435 6.5697 57.4303C4.85655 55.6636 3.99999 53.549 4 51.0864C3.99999 48.5702 4.85655 46.4556 6.5697 44.7424C8.33635 43.0293 10.451 42.1727 12.9136 42.1727Z" fill="#22C55E"/>
</svg>
