<svg width="64" height="64" viewBox="0 0 64 64" fill="none" xmlns="http://www.w3.org/2000/svg">
<path d="M56.9209 29.5278V17.2296C56.9209 14.9325 55.184 12.3272 53.0269 11.4587L37.4231 5.07154C33.9214 3.64282 29.9714 3.64282 26.4696 5.07154L10.8659 11.4587C8.73687 12.3272 7 14.9325 7 17.2296V29.5278C7 43.2266 16.945 56.057 30.5317 59.8109C31.4561 60.063 32.4646 60.063 33.3891 59.8109C46.9759 56.057 56.9209 43.2266 56.9209 29.5278ZM34.0614 34.4302V41.7979C34.0614 42.9465 33.109 43.8989 31.9604 43.8989C30.8118 43.8989 29.8593 42.9465 29.8593 41.7979V34.4302C27.0299 33.5338 24.957 30.9004 24.957 27.7909C24.957 23.925 28.0944 20.7874 31.9604 20.7874C35.8263 20.7874 38.9639 23.925 38.9639 27.7909C38.9639 30.9285 36.8908 33.5338 34.0614 34.4302Z" fill="#EAB308"/>
</svg>
