<svg width="64" height="64" viewBox="0 0 64 64" xmlns="http://www.w3.org/2000/svg">
  <rect width="64" height="64" rx="32" fill="#37AEE2" />
  <path
    d="M45.0161 18.2575C45.0161 18.2575 48.2538 16.995 47.984 20.0611C47.8941 21.3236 47.0847 25.7423 46.4551 30.5218L44.2966 44.6799C44.2966 44.6799 44.1167 46.754 42.4978 47.1147C40.8789 47.4754 38.4507 45.8522 38.0009 45.4915C37.6412 45.221 31.2557 41.1629 29.0072 39.179C28.3776 38.6379 27.6581 37.5557 29.0971 36.2932L38.5406 27.2754C39.6198 26.1932 40.6991 23.6682 36.2022 26.7343L23.6109 35.3013C23.6109 35.3013 22.1719 36.2031 19.4738 35.3915L13.6279 33.5879C13.6279 33.5879 11.4693 32.2352 15.1568 30.8825C24.1506 26.6441 35.2129 22.3155 45.0161 18.2575Z"
    fill="#DEE2E6" />
</svg>