<svg width="64" height="64" viewBox="0 0 64 64" xmlns="http://www.w3.org/2000/svg">
  <rect width="64" height="64" rx="32" fill="#111111" />
  <path
    d="M33.2562 12.0333C35.4399 12 37.6076 12.0173 39.7739 12C39.846 14.7093 40.9452 17.1477 42.694 18.9539L42.6913 18.9512C44.5735 20.6467 47.0227 21.7459 49.7226 21.9326L49.7599 21.9353V28.6531C47.2094 28.5891 44.811 28.0008 42.6486 26.9897L42.758 27.035C41.7122 26.5321 40.8278 26.0159 39.9874 25.4396L40.0567 25.485C40.0407 30.3526 40.0728 35.2202 40.0234 40.0704C39.886 42.5423 39.0643 44.7966 37.7463 46.6789L37.773 46.6375C35.5693 49.7936 31.9997 51.8653 27.9404 51.988H27.9218C27.7577 51.996 27.5643 52 27.3695 52C25.0618 52 22.9047 51.357 21.0666 50.2405L21.1199 50.2712C17.7744 48.2583 15.4666 44.814 15.0397 40.8081L15.0344 40.7534C15.0011 39.9197 14.985 39.086 15.0184 38.2696C15.672 31.8946 21.0132 26.963 27.5056 26.963C28.2352 26.963 28.9502 27.0257 29.6452 27.1444L29.5705 27.1337C29.6039 29.6002 29.5038 32.068 29.5038 34.5345C28.9396 34.3304 28.2886 34.2117 27.6096 34.2117C25.1178 34.2117 22.9981 35.8044 22.2138 38.0281L22.2018 38.0682C22.0243 38.6378 21.9216 39.2927 21.9216 39.9704C21.9216 40.2452 21.939 40.5173 21.971 40.7841L21.9683 40.7521C22.4112 43.4814 24.7509 45.541 27.5723 45.541C27.6536 45.541 27.7337 45.5397 27.8137 45.5357H27.8017C29.7533 45.477 31.4474 44.4271 32.4052 42.8757L32.4185 42.8517C32.7747 42.3555 33.0188 41.7552 33.1002 41.1029L33.1015 41.0842C33.2682 38.1002 33.2015 35.1335 33.2176 32.1494C33.2336 25.4316 33.2015 18.7298 33.2509 12.0293L33.2562 12.0333Z"
    fill="#DEE2E6" />
</svg>