<svg width="64" height="64" viewBox="0 0 64 64" xmlns="http://www.w3.org/2000/svg">
  <rect width="64" height="64" rx="32" fill="#00AAEC" />
  <g clip-path="url(#clip0_2908_11514)">
    <path fill-rule="evenodd" clip-rule="evenodd"
      d="M52.0006 19.2794C50.5309 19.9488 48.9484 20.4013 47.2884 20.6035C48.9834 19.5635 50.2844 17.9141 50.8972 15.9497C49.31 16.9129 47.5562 17.6135 45.6825 17.9891C44.1894 16.3544 42.055 15.3335 39.6931 15.3335C35.1641 15.3335 31.4897 19.1013 31.4897 23.7482C31.4897 24.4079 31.56 25.0482 31.7009 25.6647C24.8809 25.3129 18.8353 21.9663 14.785 16.8694C14.0784 18.1166 13.6744 19.5635 13.6744 21.1044C13.6744 24.0226 15.1231 26.5985 17.3253 28.1082C15.9825 28.0672 14.7144 27.6844 13.6062 27.0585V27.1619C13.6062 31.2404 16.4353 34.6422 20.1919 35.4129C19.5041 35.6104 18.7784 35.7091 18.0294 35.7091C17.5013 35.7091 16.9847 35.6585 16.4844 35.5597C17.5291 38.9016 20.5578 41.3357 24.15 41.4007C21.3419 43.6591 17.8016 45.0047 13.9581 45.0047C13.2959 45.0047 12.6409 44.9663 12 44.8891C15.6322 47.2726 19.9475 48.6666 24.5797 48.6666C39.6762 48.6666 47.9288 35.846 47.9288 24.7254C47.9288 24.3594 47.9216 23.9935 47.9075 23.6347C49.5119 22.4479 50.9041 20.9672 52.0006 19.2794Z"
      fill="#DEE2E6" />
  </g>
  <defs>
    <clipPath id="clip0_2908_11514">
      <rect width="40" height="40" fill="white" transform="translate(12 12)" />
    </clipPath>
  </defs>
</svg>