<svg width="64" height="64" viewBox="0 0 64 64" xmlns="http://www.w3.org/2000/svg">
  <rect width="64" height="64" rx="32" fill="#00A82D" />
  <g clip-path="url(#clip0_2909_11545)">
    <path fill-rule="evenodd" clip-rule="evenodd"
      d="M43.642 40.2422C43.16 41.6066 41.244 42.7353 39.716 43.0654C38.67 43.2875 37.306 43.4632 32.71 41.5586C27.548 39.42 20.38 31.8019 20.38 26.7324C20.38 24.1516 21.868 21.1465 24.47 21.1465C25.722 21.1465 25.998 21.1709 26.41 22.1592C26.892 23.3235 28.068 26.1922 28.208 26.4863C28.786 27.6927 27.62 28.3989 26.774 29.4492C26.504 29.7653 26.198 30.1072 26.54 30.6953C26.88 31.2715 28.056 33.1881 29.784 34.7266C32.016 36.7152 33.826 37.35 34.474 37.6201C34.956 37.8202 35.532 37.7736 35.884 37.3975C36.33 36.9153 36.884 36.1154 37.448 35.3271C37.846 34.763 38.352 34.6925 38.882 34.8926C39.24 35.0166 43.79 37.1297 43.982 37.4678C44.124 37.7139 44.124 38.8778 43.642 40.2422ZM32.004 12H31.994C20.968 12 12 20.9707 12 32C12 36.3733 13.41 40.4307 15.808 43.7217L13.316 51.1533L21.002 48.6973C24.164 50.7899 27.938 52 32.004 52C43.03 52 52 43.0293 52 32C52 20.9707 43.03 12 32.004 12Z"
      fill="#DEE2E6" />
  </g>
  <defs>
    <clipPath id="clip0_2909_11545">
      <rect width="40" height="40" fill="white" transform="translate(12 12)" />
    </clipPath>
  </defs>
</svg>