<svg width="64" height="64" viewBox="0 0 64 64" fill="none" xmlns="http://www.w3.org/2000/svg">
<g clip-path="url(#clip0_5235_6422)">
<path d="M56.4612 48.8325C53.5746 49.518 52.1133 50.1495 48.5411 52.4768C42.9484 56.085 36.8504 57.7629 36.8504 57.7629C36.8504 57.7629 36.3453 58.5206 34.8839 58.8634C32.3582 59.4768 22.8504 60 21.9844 60.018C19.6571 60.0361 18.2319 59.4227 17.835 58.4665C16.6262 55.5799 19.5669 54.317 19.5669 54.317C19.5669 54.317 18.9174 53.9201 18.5386 53.5593C18.1958 53.2165 17.835 52.5309 17.7267 52.7835C17.2757 53.884 17.0411 56.5721 15.8324 57.7809C14.1726 59.4587 11.0334 58.8995 9.17516 57.9252C7.1365 56.8428 9.31949 54.2989 9.31949 54.2989C9.31949 54.2989 8.21898 54.9484 7.33496 53.6134C6.54114 52.3866 5.80145 50.2938 5.9999 47.7139C6.25248 44.7371 9.53599 41.8866 9.53599 41.8866C9.53599 41.8866 8.95867 37.5386 10.853 33.0825C12.5669 29.0232 17.1855 25.7577 17.1855 25.7577C17.1855 25.7577 13.3066 21.4819 14.7499 17.6031C15.688 15.0773 16.0669 15.0953 16.3736 14.9871C17.4561 14.5721 18.5025 14.1211 19.2783 13.2732C23.1571 9.08761 28.1004 9.88142 28.1004 9.88142C28.1004 9.88142 30.4097 2.79122 32.5746 4.18039C33.2422 4.61338 35.6417 9.95359 35.6417 9.95359C35.6417 9.95359 38.2035 8.45616 38.4922 9.01544C40.0437 12.0283 40.2241 17.7835 39.5386 21.2835C38.3839 27.0567 35.4973 30.1598 34.3427 32.1082C34.0721 32.5593 37.4458 33.9845 39.5746 39.884C41.5411 45.2783 39.7911 49.8067 40.0978 50.3118C40.152 50.402 40.17 50.4381 40.17 50.4381C40.17 50.4381 42.4252 50.6185 46.9535 47.8221C49.371 46.3247 52.2396 44.6469 55.5051 44.6108C58.6623 44.5567 58.8246 48.2732 56.4612 48.8325Z" fill="#2C8EBB"/>
</g>
<defs>
<clipPath id="clip0_5235_6422">
<rect width="52.067" height="56" fill="white" transform="translate(6 4)"/>
</clipPath>
</defs>
</svg>
