<svg width="64" height="64" viewBox="0 0 64 64" xmlns="http://www.w3.org/2000/svg">
  <rect width="64" height="64" rx="32" fill="#FF0000" />
  <g clip-path="url(#clip0_2908_11524)">
    <path fill-rule="evenodd" clip-rule="evenodd"
      d="M27.9769 37.1722V25.9486C31.9613 27.8235 35.0472 29.6346 38.6969 31.5873C35.6867 33.2567 31.9613 35.1298 27.9769 37.1722ZM50.182 20.3666C49.4947 19.461 48.3233 18.7562 47.0762 18.5228C43.4105 17.8267 20.542 17.8247 16.8783 18.5228C15.8782 18.7103 14.9877 19.1635 14.2227 19.8675C10.9993 22.8593 12.0093 38.9034 12.7863 41.5023C13.113 42.6272 13.5354 43.4385 14.0673 43.9711C14.7526 44.6751 15.6909 45.1599 16.7687 45.3773C19.7869 46.0016 35.3361 46.3507 47.0124 45.4711C48.0882 45.2836 49.0404 44.7832 49.7915 44.0492C52.7719 41.0693 52.5687 24.1243 50.182 20.3666Z"
      fill="#DEE2E6" />
  </g>
  <defs>
    <clipPath id="clip0_2908_11524">
      <rect width="40" height="40" fill="white" transform="translate(12 12)" />
    </clipPath>
  </defs>
</svg>