<svg width="64" height="64" viewBox="0 0 64 64" fill="none" xmlns="http://www.w3.org/2000/svg">
<path d="M8.9533 41.2991C8.82262 41.7162 8.43616 42.0001 7.99905 42.0001H5.0256C4.34151 42.0001 3.85938 41.3286 4.07808 40.6804L10.0286 23.0441C10.1658 22.6375 10.5471 22.3638 10.9762 22.3638H15.8587C16.2878 22.3638 16.6691 22.6375 16.8062 23.0441L22.7568 40.6804C22.9755 41.3286 22.4934 42.0001 21.8093 42.0001H18.8354C18.3985 42.0001 18.0122 41.7165 17.8813 41.2997L13.5123 27.3844C13.4986 27.3408 13.4583 27.3112 13.4127 27.3112V27.3112C13.367 27.3112 13.3266 27.3409 13.313 27.3844L8.9533 41.2991ZM8.05291 35.2722C8.05291 34.7199 8.50063 34.2722 9.05291 34.2722H17.7148C18.2671 34.2722 18.7148 34.7199 18.7148 35.2722V36.8773C18.7148 37.4295 18.2671 37.8773 17.7148 37.8773H9.05291C8.50063 37.8773 8.05291 37.4295 8.05291 36.8773V35.2722Z" fill="#EF4444"/>
<path d="M30.4349 22.3638C30.9872 22.3638 31.4349 22.8115 31.4349 23.3638V41.0001C31.4349 41.5524 30.9872 42.0001 30.4349 42.0001H27.6984C27.1461 42.0001 26.6984 41.5524 26.6984 41.0001V26.8832C26.6984 26.8337 26.6582 26.7935 26.6086 26.7935V26.7935C26.5921 26.7935 26.5759 26.798 26.5618 26.8066L23.7136 28.5479C23.0473 28.9553 22.192 28.4757 22.192 27.6947V25.9302C22.192 25.5846 22.3705 25.2635 22.664 25.081L26.7915 22.5145C26.95 22.416 27.1329 22.3638 27.3195 22.3638H30.4349Z" fill="#EF4444"/>
<path d="M41.8558 22.3638C42.4081 22.3638 42.8558 22.8115 42.8558 23.3638V41.0001C42.8558 41.5524 42.4081 42.0001 41.8558 42.0001H39.1193C38.567 42.0001 38.1193 41.5524 38.1193 41.0001V26.8832C38.1193 26.8337 38.0791 26.7935 38.0295 26.7935V26.7935C38.013 26.7935 37.9968 26.798 37.9827 26.8066L35.1345 28.5479C34.4682 28.9553 33.6129 28.4757 33.6129 27.6947V25.9302C33.6129 25.5846 33.7914 25.2635 34.0849 25.081L38.2124 22.5145C38.3709 22.416 38.5538 22.3638 38.7404 22.3638H41.8558Z" fill="#EF4444"/>
<path d="M48.102 47.5229C47.5395 47.5229 47.009 47.4781 46.5104 47.3886C46.3719 47.3655 46.2389 47.3403 46.1112 47.3127C45.6013 47.2028 45.3427 46.6682 45.4945 46.1691L45.9622 44.6316C46.126 44.0933 46.6999 43.8152 47.2574 43.8917C47.3429 43.9035 47.4263 43.9121 47.5075 43.9177C47.8847 43.9433 48.2075 43.8826 48.4759 43.7356C48.7508 43.5949 48.9617 43.3425 49.1088 42.9781L49.1468 42.8861C49.2397 42.6611 49.2474 42.4101 49.1684 42.1799L44.5101 28.5973C44.2875 27.9482 44.7698 27.2729 45.456 27.2729H48.1903C48.6463 27.2729 49.0446 27.5813 49.1586 28.0228L51.6591 37.707C51.6705 37.7508 51.71 37.7814 51.7552 37.7814V37.7814C51.8003 37.7814 51.8397 37.7509 51.8512 37.7073L54.388 28.0195C54.5032 27.5796 54.9007 27.2729 55.3554 27.2729H58.1198C58.8064 27.2729 59.2888 27.9489 59.0655 28.5982L53.9699 43.4096C53.7014 44.215 53.3211 44.9245 52.8289 45.5381C52.3431 46.1582 51.7135 46.644 50.9401 46.9955C50.173 47.3471 49.227 47.5229 48.102 47.5229Z" fill="#EF4444"/>
</svg>
