<svg width="1200" height="630" viewBox="0 0 1200 630" fill="none" xmlns="http://www.w3.org/2000/svg">
<path d="M0 32C0 14.3269 14.3269 0 32 0H1168C1185.67 0 1200 14.3269 1200 32V598C1200 615.673 1185.67 630 1168 630H32C14.3269 630 0 615.673 0 598V32Z" fill="#030712"/>
<g clip-path="url(#clip0_5221_9022)">
<path d="M370.911 281.924L318.682 251.769C318.039 251.398 317.31 251.202 316.568 251.202C315.826 251.202 315.097 251.398 314.454 251.769L262.225 281.924C261.583 282.294 261.049 282.827 260.677 283.469C260.306 284.111 260.11 284.839 260.109 285.581V345.89C260.109 347.398 260.917 348.793 262.225 349.551L314.454 379.706C315.762 380.46 317.37 380.46 318.682 379.706L370.911 349.551C372.219 348.798 373.023 347.402 373.023 345.89V285.581C373.023 284.069 372.219 282.678 370.911 281.92V281.924Z" fill="#8080F2"/>
<path d="M180.766 309.392L243.174 200.822C245.44 196.895 249.63 194 254.162 194H378.975C383.511 194 387.696 196.895 389.966 200.822L452.371 309.155C453.484 311.104 454.07 313.311 454.07 315.556C454.07 317.802 453.484 320.008 452.371 321.958L389.966 429.64C387.696 433.564 383.511 435.571 378.975 435.571H254.162C249.63 435.571 245.44 433.626 243.174 429.699L180.77 321.841C179.656 319.955 179.068 317.805 179.068 315.615C179.068 313.424 179.656 311.274 180.77 309.388L180.766 309.392ZM232.441 361.596C232.441 363.196 233.403 364.67 234.786 365.47L314.28 411.331C315.662 412.131 317.395 412.131 318.778 411.331L398.33 365.47C399.713 364.67 400.679 363.196 400.679 361.596V269.87C400.679 268.275 399.725 266.796 398.346 265.997L318.849 220.144C318.165 219.751 317.39 219.545 316.602 219.545C315.813 219.545 315.038 219.751 314.355 220.144L234.794 266.001C233.411 266.8 232.437 268.279 232.437 269.874V361.601L232.441 361.596Z" fill="#4B32C3"/>
<path d="M538.095 376.054V253.519H616.169V272.599H559.274V304.807H611.266V323.891H559.279V356.974H617.043V376.054H538.095ZM672.301 378.507C662.967 378.507 654.678 376.87 647.444 373.605C640.326 370.218 634.724 365.375 630.638 359.073C626.556 352.771 624.511 345.07 624.511 335.969V331.417H645.345V335.969C645.345 344.02 647.794 350.031 652.696 353.996C657.598 357.965 664.133 359.952 672.301 359.952C680.589 359.952 686.832 358.257 691.031 354.87C695.233 351.488 697.332 347.111 697.332 341.742C697.332 338.127 696.341 335.207 694.359 332.991C692.376 330.659 689.456 328.789 685.604 327.39C681.872 325.99 677.319 324.649 671.951 323.362L666.699 322.312C658.648 320.446 651.646 318.114 645.694 315.315C639.859 312.395 635.365 308.659 632.216 304.111C629.064 299.555 627.489 293.603 627.489 286.252C627.489 278.9 629.238 272.599 632.741 267.347C636.24 262.099 641.2 258.071 647.619 255.268C654.037 252.469 661.563 251.065 670.201 251.065C678.836 251.065 686.541 252.523 693.309 255.443C700.077 258.358 705.388 262.736 709.236 268.571C713.205 274.406 715.188 281.703 715.188 290.454V296.231H694.359V290.454C694.359 285.435 693.367 281.408 691.381 278.375C689.398 275.339 686.599 273.128 682.98 271.724C679.36 270.325 675.104 269.625 670.201 269.625C662.967 269.625 657.481 271.024 653.745 273.823C650.014 276.626 648.144 280.591 648.144 285.727C648.144 288.996 648.96 291.795 650.597 294.132C652.346 296.348 654.853 298.214 658.123 299.734C661.505 301.133 665.707 302.358 670.726 303.407L675.978 304.632C684.379 306.502 691.73 308.893 698.036 311.808C704.338 314.611 709.236 318.347 712.739 323.012C716.358 327.681 718.166 333.75 718.166 341.217C718.166 348.573 716.242 355.045 712.389 360.651C708.653 366.253 703.343 370.627 696.458 373.78C689.69 376.928 681.639 378.507 672.301 378.507ZM731.365 376.054V253.519H752.544V356.974H809.963V376.054H731.365ZM821.858 376.054V289.579H841.992V376.054H821.858ZM831.838 278.55C828.218 278.55 825.07 277.384 822.387 275.052C819.817 272.599 818.535 269.387 818.535 265.422C818.535 261.453 819.817 258.3 822.387 255.968C824.944 253.567 828.331 252.25 831.838 252.294C835.69 252.294 838.839 253.519 841.292 255.968C843.858 258.3 845.141 261.453 845.141 265.422C845.141 269.392 843.858 272.599 841.292 275.048C838.839 277.38 835.69 278.55 831.838 278.55ZM862.251 376.054V289.579H882.035V301.658H885.008C886.525 298.388 889.269 295.298 893.234 292.378C897.204 289.463 903.214 288.005 911.265 288.005C917.92 288.005 923.81 289.521 928.945 292.553C934.032 295.535 938.162 299.908 940.849 305.157C943.769 310.529 945.226 316.885 945.226 324.241V376.054H925.097V325.815C925.097 318.814 923.343 313.62 919.845 310.238C916.459 306.735 911.615 304.982 905.313 304.982C898.195 304.982 892.593 307.377 888.511 312.162C884.425 316.827 882.384 323.541 882.384 332.292V376.054H862.251ZM995.215 376.054C989.613 376.054 985.119 374.421 981.737 371.151C978.467 367.769 976.835 363.217 976.835 357.498V306.21H954.252V289.579H976.835V261.745H996.964V289.579H1021.82V306.21H996.964V354.175C996.964 357.673 998.601 359.423 1001.87 359.423H1019.2V376.054H995.215Z" fill="#F3F4F6"/>
</g>
<defs>
<clipPath id="clip0_5221_9022">
<rect width="845.5" height="241.571" fill="white" transform="translate(177 194)"/>
</clipPath>
</defs>
</svg>
