<svg width="275" height="242" viewBox="0 0 275 242" fill="none" xmlns="http://www.w3.org/2000/svg">
<path d="M191.843 87.9239L139.614 57.7692C138.971 57.3977 138.242 57.2021 137.5 57.2021C136.758 57.2021 136.029 57.3977 135.386 57.7692L83.1566 87.9239C82.5142 88.2944 81.9805 88.8273 81.6091 89.4691C81.2377 90.111 81.0417 90.8393 81.0408 91.5808V151.89C81.0408 153.398 81.8488 154.793 83.1566 155.551L135.386 185.706C136.694 186.46 138.302 186.46 139.614 185.706L191.843 155.551C193.151 154.798 193.955 153.402 193.955 151.89V91.5808C193.955 90.0689 193.151 88.6778 191.843 87.9198V87.9239Z" fill="#8080F2"/>
<path d="M1.69718 115.392L64.1059 6.82231C66.3717 2.89469 70.5617 0 75.0932 0H199.907C204.442 0 208.628 2.89469 210.898 6.82231L273.303 115.155C274.416 117.104 275.001 119.311 275.001 121.556C275.001 123.802 274.416 126.008 273.303 127.958L210.898 235.64C208.628 239.564 204.442 241.571 199.907 241.571H75.0932C70.5617 241.571 66.3717 239.626 64.1059 235.699L1.70134 127.841C0.587529 125.955 0 123.805 0 121.615C0 119.424 0.587529 117.274 1.70134 115.388L1.69718 115.392ZM53.3726 167.596C53.3726 169.196 54.3348 170.67 55.7175 171.47L135.211 217.331C136.594 218.131 138.327 218.131 139.709 217.331L219.261 171.47C220.644 170.67 221.61 169.196 221.61 167.596V75.8701C221.61 74.2749 220.657 72.7963 219.278 71.9966L139.78 26.1439C139.096 25.7515 138.322 25.545 137.533 25.545C136.745 25.545 135.97 25.7515 135.286 26.1439L55.7259 72.0008C54.3431 72.8005 53.3685 74.279 53.3685 75.8743V167.601L53.3726 167.596Z" fill="#4B32C3"/>
</svg>
