<svg width="64" height="64" viewBox="0 0 64 64" fill="none" xmlns="http://www.w3.org/2000/svg">
<path fill-rule="evenodd" clip-rule="evenodd" d="M32.0232 4C16.5271 4 4 16.6194 4 32.2314C4 44.7109 12.0265 55.2745 23.1615 59.0133C24.5536 59.2943 25.0636 58.4058 25.0636 57.6584C25.0636 57.0039 25.0177 54.7605 25.0177 52.4231C17.2223 54.106 15.599 49.0577 15.599 49.0577C14.3462 45.7858 12.49 44.9449 12.49 44.9449C9.93859 43.2155 12.6759 43.2155 12.6759 43.2155C15.5061 43.4025 16.9911 46.1133 16.9911 46.1133C19.4961 50.4131 23.5326 49.1982 25.1565 48.4502C25.3882 46.6273 26.131 45.3653 26.9198 44.6644C20.7024 44.0099 14.1609 41.5795 14.1609 30.7354C14.1609 27.6505 15.2737 25.1266 17.037 23.1638C16.7588 22.4628 15.7843 19.5643 17.3158 15.685C17.3158 15.685 19.6819 14.937 25.0171 18.5829C27.3013 17.9649 29.6569 17.6506 32.0232 17.6479C34.3893 17.6479 36.8013 17.9754 39.0287 18.5829C44.3644 14.937 46.7305 15.685 46.7305 15.685C48.2621 19.5643 47.2869 22.4628 47.0087 23.1638C48.8185 25.1266 49.8854 27.6505 49.8854 30.7354C49.8854 41.5795 43.3439 43.9629 37.0801 44.6644C38.1011 45.5523 38.9822 47.2347 38.9822 49.8992C38.9822 53.685 38.9363 56.7234 38.9363 57.6578C38.9363 58.4058 39.4468 59.2943 40.8384 59.0138C51.9733 55.2739 59.9999 44.7109 59.9999 32.2314C60.0458 16.6194 47.4728 4 32.0232 4Z" fill="white"/>
</svg>
