<svg width="64" height="64" viewBox="0 0 64 64" fill="none" xmlns="http://www.w3.org/2000/svg">
<path fill-rule="evenodd" clip-rule="evenodd" d="M43.5491 28.1375C42.5698 27.1583 40.9824 27.1583 40.0032 28.1375L34.2537 33.8866V6.50746C34.2537 5.12264 33.1311 4 31.7463 4C30.3615 4 29.2388 5.12264 29.2388 6.50746V33.8866L23.4895 28.1375C22.5102 27.1583 20.9226 27.1583 19.9434 28.1375C18.9642 29.1168 18.9642 30.7041 19.9434 31.6834L29.9733 41.7132C30.9526 42.6925 32.54 42.6925 33.5192 41.7132L43.5491 31.6834C44.5283 30.7041 44.5283 29.1168 43.5491 28.1375Z" fill="#3B82F6"/>
<path d="M50.9621 33.2537C49.4643 33.2537 48.1541 34.1705 47.0953 35.2296L37.0654 45.2595C34.1277 48.1972 29.3648 48.1972 26.4271 45.2595L16.3973 35.2296C15.3383 34.1705 14.0282 33.2537 12.5306 33.2537H5C5 48.0254 16.9747 60 31.7463 60C46.5179 60 58.4925 48.0254 58.4925 33.2537H50.9621Z" fill="#3B82F6"/>
</svg>
