<svg width="64" height="64" viewBox="0 0 64 64" fill="none" xmlns="http://www.w3.org/2000/svg">
<path d="M38.6005 54.7995C38.0482 54.7995 37.6005 54.3518 37.6005 53.7995V50.1995C37.6005 49.6472 38.0482 49.1995 38.6005 49.1995H46.0005C46.7938 49.1995 47.4588 48.9312 47.9955 48.3945C48.5322 47.8578 48.8005 47.1928 48.8005 46.3995V40.7995C48.8005 39.0262 49.3138 37.4162 50.3405 35.9695C51.2725 34.6562 52.4737 33.689 53.9442 33.068C54.2151 32.9536 54.4005 32.6936 54.4005 32.3995C54.4005 32.1055 54.2151 31.8454 53.9442 31.731C52.4737 31.11 51.2725 30.1428 50.3405 28.8295C49.3138 27.3828 48.8005 25.7728 48.8005 23.9995V18.3995C48.8005 17.6062 48.5322 16.9412 47.9955 16.4045C47.4588 15.8678 46.7938 15.5995 46.0005 15.5995H38.6005C38.0482 15.5995 37.6005 15.1518 37.6005 14.5995V10.9995C37.6005 10.4472 38.0482 9.99951 38.6005 9.99951H46.0005C48.3338 9.99951 50.3172 10.8162 51.9505 12.4495C53.5838 14.0828 54.4005 16.0662 54.4005 18.3995V23.9995C54.4005 24.7928 54.6688 25.4578 55.2055 25.9945C55.7422 26.5312 56.4072 26.7995 57.2005 26.7995H59.0005C59.5528 26.7995 60.0005 27.2472 60.0005 27.7995V36.9995C60.0005 37.5518 59.5528 37.9995 59.0005 37.9995H57.2005C56.4072 37.9995 55.7422 38.2678 55.2055 38.8045C54.6688 39.3412 54.4005 40.0062 54.4005 40.7995V46.3995C54.4005 48.7328 53.5838 50.7162 51.9505 52.3495C50.3172 53.9828 48.3338 54.7995 46.0005 54.7995H38.6005ZM18.0005 54.7995C15.6672 54.7995 13.6838 53.9828 12.0505 52.3495C10.4172 50.7162 9.60049 48.7328 9.60049 46.3995V40.7995C9.60049 40.0062 9.33215 39.3412 8.79549 38.8045C8.25882 38.2678 7.59382 37.9995 6.80049 37.9995H5.00049C4.4482 37.9995 4.00049 37.5518 4.00049 36.9995V27.7995C4.00049 27.2472 4.4482 26.7995 5.00049 26.7995H6.80049C7.59382 26.7995 8.25882 26.5312 8.79549 25.9945C9.33215 25.4578 9.60049 24.7928 9.60049 23.9995V18.3995C9.60049 16.0662 10.4172 14.0828 12.0505 12.4495C13.6838 10.8162 15.6672 9.99951 18.0005 9.99951H25.4005C25.9528 9.99951 26.4005 10.4472 26.4005 10.9995V14.5995C26.4005 15.1518 25.9528 15.5995 25.4005 15.5995H18.0005C17.2072 15.5995 16.5422 15.8678 16.0055 16.4045C15.4688 16.9412 15.2005 17.6062 15.2005 18.3995V23.9995C15.2005 25.7728 14.6872 27.3828 13.6605 28.8295C12.7285 30.1428 11.5272 31.11 10.0568 31.731C9.78591 31.8454 9.60049 32.1055 9.60049 32.3995C9.60049 32.6936 9.78591 32.9536 10.0568 33.068C11.5272 33.689 12.7285 34.6562 13.6605 35.9695C14.6872 37.4162 15.2005 39.0262 15.2005 40.7995V46.3995C15.2005 47.1928 15.4688 47.8578 16.0055 48.3945C16.5422 48.9312 17.2072 49.1995 18.0005 49.1995H25.4005C25.9528 49.1995 26.4005 49.6472 26.4005 50.1995V53.7995C26.4005 54.3518 25.9528 54.7995 25.4005 54.7995H18.0005Z" fill="#F9A825"/>
</svg>
