<svg width="64" height="64" viewBox="0 0 64 64" fill="none" xmlns="http://www.w3.org/2000/svg">
<g clip-path="url(#clip0_5229_6463)">
<g filter="url(#filter0_d_5229_6463)">
<path d="M46.5758 54.6176C46.2158 55.2265 45.561 55.5999 44.8537 55.5997L19.1577 55.5924C18.451 55.5922 17.7968 55.219 17.4369 54.6107L4.59946 32.9104C4.22949 32.285 4.22782 31.5082 4.59508 30.8812L17.4189 8.98922C17.7778 8.3765 18.4347 8.00004 19.1448 8.00011L44.8593 8.0026C45.5695 8.00266 46.2265 8.37942 46.5852 8.99243L59.4058 30.8998C59.7725 31.5265 59.7708 32.3028 59.4012 32.9279L46.5758 54.6176ZM48.1247 42.1778C48.7522 41.8229 49.1402 41.1578 49.1402 40.4369V23.4336C49.1402 22.7127 48.7523 22.0476 48.1248 21.6927L32.9851 13.1298C32.3739 12.7841 31.6261 12.7843 31.015 13.1303L15.8944 21.6925C15.2675 22.0476 14.8799 22.7124 14.8799 23.4329V40.4376C14.8799 41.1581 15.2675 41.823 15.8946 42.178L31.0152 50.7384C31.6262 51.0843 32.3738 51.0845 32.985 50.7389L48.1247 42.1778Z" fill="#4B32C3"/>
<path d="M48.1246 42.178C48.7522 41.8231 49.1402 41.158 49.1402 40.437V23.4337C49.1402 22.7129 48.7522 22.0478 48.1248 21.6929L32.9851 13.13C32.3739 12.7843 31.6261 12.7844 31.015 13.1305L15.8944 21.6927C15.2674 22.0477 14.8799 22.7126 14.8799 23.4331V40.4377C14.8799 41.1583 15.2675 41.8232 15.8945 42.1782L31.0152 50.7386C31.6262 51.0845 32.3738 51.0847 32.985 50.7391L48.1246 42.178Z" fill="white"/>
<path d="M22.6665 25.7998C22.6665 25.2475 23.1142 24.7998 23.6665 24.7998H40.3332C40.8855 24.7998 41.3332 25.2475 41.3332 25.7998V26.8331C41.3332 27.3854 40.8855 27.8331 40.3332 27.8331H23.6665C23.1142 27.8331 22.6665 27.3854 22.6665 26.8331V25.7998Z" fill="#4B32C3"/>
<path d="M22.6665 31.3999C22.6665 30.8476 23.1142 30.3999 23.6665 30.3999H35.6665C36.2188 30.3999 36.6665 30.8476 36.6665 31.3999V32.4332C36.6665 32.9855 36.2188 33.4332 35.6665 33.4332H23.6665C23.1142 33.4332 22.6665 32.9855 22.6665 32.4332V31.3999Z" fill="#4B32C3"/>
<path d="M22.6665 37C22.6665 36.4477 23.1142 36 23.6665 36H30.9998C31.5521 36 31.9998 36.4477 31.9998 37V38.0333C31.9998 38.5856 31.5521 39.0333 30.9998 39.0333H23.6665C23.1142 39.0333 22.6665 38.5856 22.6665 38.0333V37Z" fill="#4B32C3"/>
</g>
</g>
<defs>
<filter id="filter0_d_5229_6463" x="0.320801" y="8" width="63.3589" height="55.5996" filterUnits="userSpaceOnUse" color-interpolation-filters="sRGB">
<feFlood flood-opacity="0" result="BackgroundImageFix"/>
<feColorMatrix in="SourceAlpha" type="matrix" values="0 0 0 0 0 0 0 0 0 0 0 0 0 0 0 0 0 0 127 0" result="hardAlpha"/>
<feOffset dy="4"/>
<feGaussianBlur stdDeviation="2"/>
<feComposite in2="hardAlpha" operator="out"/>
<feColorMatrix type="matrix" values="0 0 0 0 0.108333 0 0 0 0 0.108333 0 0 0 0 0.108333 0 0 0 0.2 0"/>
<feBlend mode="normal" in2="BackgroundImageFix" result="effect1_dropShadow_5229_6463"/>
<feBlend mode="normal" in="SourceGraphic" in2="effect1_dropShadow_5229_6463" result="shape"/>
</filter>
<clipPath id="clip0_5229_6463">
<rect width="56" height="47.6" fill="white" transform="translate(4 8)"/>
</clipPath>
</defs>
</svg>
