<svg width="64" height="64" viewBox="0 0 64 64" fill="none" xmlns="http://www.w3.org/2000/svg">
<g clip-path="url(#clip0_5225_9679)">
<path fill-rule="evenodd" clip-rule="evenodd" d="M31.668 53.7699L51.7109 59.9459L41.9646 50.8864L18.2959 28.8856L23.83 23.3521L21.2822 5.78369L4.92391 25.4374C3.692 27.5711 3.69203 30.2 4.92398 32.3338L15.3097 50.3218C16.5417 52.4556 18.8183 53.7699 21.2821 53.7699H31.668Z" fill="#18B6F6"/>
<path d="M42.0537 4L21.2821 4C18.8182 4 16.5416 5.31446 15.3097 7.44824L4.92383 25.4374L21.2821 5.7837L45.0399 28.8856L40.6133 33.3126L41.9645 50.8864L51.7108 59.9459C52.2728 60.119 52.7658 59.5302 52.4968 59.0074L48.0262 50.3218L58.4119 32.3338C59.6439 30.2 59.6439 27.5711 58.412 25.4374L48.0261 7.44823C46.7942 5.31446 44.5176 4 42.0537 4Z" fill="#AC7EF4"/>
<path d="M45.04 28.8856L21.2822 5.78369L23.8299 23.3521L18.2959 28.8856L41.9645 50.8864L40.6133 33.3126L45.04 28.8856Z" fill="white"/>
</g>
<defs>
<clipPath id="clip0_5225_9679">
<rect width="55.336" height="56" fill="white" transform="translate(4 4)"/>
</clipPath>
</defs>
</svg>
