<svg width="64" height="64" viewBox="0 0 64 64" fill="none" xmlns="http://www.w3.org/2000/svg">
<g clip-path="url(#clip0_5229_6381)">
<path d="M60.0002 17.6225C60.0002 17.6225 41.3336 3.88664 26.8933 7.05645L25.8367 7.40865C23.7235 8.11305 21.9625 9.16966 20.9059 10.5785L20.2015 11.6351L14.9185 20.7923L24.0757 22.5533C27.9499 25.0187 32.8807 26.0753 37.4593 25.0187L53.6606 28.1885L60.0002 17.6225Z" fill="#76B3E1"/>
<path opacity="0.3" d="M60.0002 17.6225C60.0002 17.6225 41.3336 3.88664 26.8933 7.05645L25.8367 7.40865C23.7235 8.11305 21.9625 9.16966 20.9059 10.5785L20.2015 11.6351L14.9185 20.7923L24.0757 22.5533C27.9499 25.0187 32.8807 26.0753 37.4593 25.0187L53.6606 28.1885L60.0002 17.6225Z" fill="url(#paint0_linear_5229_6381)"/>
<path d="M20.9057 17.6224L19.4969 17.9746C13.5095 19.7356 11.7485 25.3708 14.9183 30.3016C18.4403 34.8802 25.8365 37.3456 31.8239 35.5846L53.6604 28.1884C53.6604 28.1884 34.9937 14.4526 20.9057 17.6224Z" fill="#518AC8"/>
<path opacity="0.3" d="M20.9057 17.6224L19.4969 17.9746C13.5095 19.7356 11.7485 25.3708 14.9183 30.3016C18.4403 34.8802 25.8365 37.3456 31.8239 35.5846L53.6604 28.1884C53.6604 28.1884 34.9937 14.4526 20.9057 17.6224Z" fill="url(#paint1_linear_5229_6381)"/>
<path d="M49.7862 33.4717C47.8143 31.0083 45.152 29.1895 42.1402 28.2483C39.1284 27.3071 35.9042 27.2864 32.8805 28.1887L11.044 35.2327L4 47.5598L43.4465 54.2516L50.4906 41.5724C51.8994 39.107 51.5472 36.2893 49.7862 33.4717Z" fill="url(#paint2_linear_5229_6381)"/>
<path d="M42.7421 45.7989C40.7703 43.3354 38.108 41.5166 35.0962 40.5755C32.0843 39.6343 28.8601 39.6135 25.8365 40.5159L4 47.5599C4 47.5599 22.6667 61.6479 37.1069 58.1259L38.1635 57.7737C44.1509 56.0127 46.2642 50.3775 42.7421 45.7989Z" fill="url(#paint3_linear_5229_6381)"/>
</g>
<defs>
<linearGradient id="paint0_linear_5229_6381" x1="12.2769" y1="6.35205" x2="56.126" y2="27.6602" gradientUnits="userSpaceOnUse">
<stop offset="0.1" stop-color="#76B3E1"/>
<stop offset="0.3" stop-color="#DCF2FD"/>
<stop offset="1" stop-color="#76B3E1"/>
</linearGradient>
<linearGradient id="paint1_linear_5229_6381" x1="36.3321" y1="16.7771" x2="28.6541" y2="42.3469" gradientUnits="userSpaceOnUse">
<stop stop-color="#76B3E1"/>
<stop offset="0.5" stop-color="#4377BB"/>
<stop offset="1" stop-color="#1F3B77"/>
</linearGradient>
<linearGradient id="paint2_linear_5229_6381" x1="9.0717" y1="27.907" x2="53.4138" y2="58.0554" gradientUnits="userSpaceOnUse">
<stop stop-color="#315AA9"/>
<stop offset="0.5" stop-color="#518AC8"/>
<stop offset="1" stop-color="#315AA9"/>
</linearGradient>
<linearGradient id="paint3_linear_5229_6381" x1="29.0767" y1="31.5347" x2="11.1849" y2="97.1498" gradientUnits="userSpaceOnUse">
<stop stop-color="#4377BB"/>
<stop offset="0.5" stop-color="#1A336B"/>
<stop offset="1" stop-color="#1A336B"/>
</linearGradient>
<clipPath id="clip0_5229_6381">
<rect width="56" height="52.8302" fill="white" transform="translate(4 6)"/>
</clipPath>
</defs>
</svg>
