<svg width="64" height="64" viewBox="0 0 64 64" fill="none" xmlns="http://www.w3.org/2000/svg">
<path d="M48.0747 28.6271C48.0925 24.4974 47.3167 20.4028 45.7895 16.5659C45.4735 16.6955 45.2459 16.8156 45.0816 16.882C44.7447 17.0557 44.4692 17.3285 44.2923 17.6636C44.1154 17.9988 44.0456 18.3802 44.0923 18.7563C44.2866 20.435 44.3858 22.1234 44.3894 23.8133C44.3894 31.5412 41.8956 38.9498 37.3663 44.6738C33.0836 50.0912 27.3375 53.5743 21.0889 54.5699L21.1426 54.6015C22.9468 55.6262 24.9742 56.1945 27.0483 56.2567C29.1223 56.319 31.1801 55.8734 33.0425 54.9586C41.8608 50.6475 48.0747 40.4669 48.0747 28.6271Z" fill="#FD3456"/>
<path d="M49.7972 15.7789C49.2494 15.7623 48.7013 15.7973 48.16 15.8832C49.7442 19.9445 50.5494 24.2678 50.5337 28.627C50.5337 41.9019 43.1377 53.6817 32.3408 57.9771C32.8845 58.0118 33.4344 58.0308 33.9875 58.0308H34.0571C36.6295 58.0199 39.1672 57.4362 41.4858 56.322C43.8044 55.2077 45.8458 53.5911 47.4615 51.5893C51.5957 46.4691 54.1337 39.5788 54.1337 32.0216C54.1755 26.3159 52.6774 20.7045 49.7972 15.7789Z" fill="#FD3456"/>
<path d="M60.0001 32.0187C60.0048 28.5955 59.3313 25.2052 58.0184 22.0436C57.4465 20.6252 56.5965 19.3356 55.5183 18.2508C54.9403 17.6657 54.2789 17.1694 53.5555 16.778C53.3722 16.68 53.1857 16.5946 53.0024 16.5156C55.3883 21.3286 56.6208 26.631 56.6024 32.0029C56.6024 39.6834 54.1023 47.0825 49.6489 52.7591C52.863 50.3401 55.4711 47.2074 57.2674 43.6081C59.0638 40.0088 59.9993 36.0414 60.0001 32.0187Z" fill="#FD3456"/>
<path d="M52.6483 13.9017C50.2289 11.4011 47.3311 9.41291 44.1274 8.05542C40.9237 6.69794 37.4797 5.99892 34.0003 6C19.6255 6 7.84252 17.9063 7.99108 32.281C8.01242 35.6916 8.70738 39.0643 10.036 42.2055C9.60884 42.147 9.17716 42.1279 8.74648 42.1486C7.58019 42.2024 5.93032 41.7788 5.1844 41.5702C4.43848 41.3616 3.77157 41.9622 4.075 42.6575V42.6765C6.65727 48.5933 12.3813 52.443 17.8461 52.4303C18.2092 52.4304 18.5722 52.4114 18.9333 52.3734C31.7309 51.3999 41.8862 38.9753 41.8862 23.8389C41.8862 22.8907 41.8451 21.9424 41.7629 20.9942C41.7536 20.8804 41.7098 20.7721 41.6374 20.6837C41.565 20.5953 41.4674 20.5311 41.3576 20.4995C41.2478 20.4679 41.131 20.4705 41.0228 20.507C40.9145 20.5434 40.8199 20.6119 40.7515 20.7035C37.2147 25.3876 31.9711 33.6211 25.4127 29.3289C22.8842 27.6822 21.5377 24.1391 22.2995 20.5328C23.6649 14.0597 31.2126 9.80229 34.5376 11.1298C34.7968 11.2341 35.7323 11.607 36.0516 12.4604C36.5383 13.7626 35.0717 14.8341 34.3227 17.1414C33.5167 19.6352 33.9718 22.2838 34.5376 22.3976C35.1697 22.5272 36.2286 20.2072 38.8393 18.1022C40.7357 16.5725 42.1643 16.1426 43.0619 14.5243C43.928 12.944 42.3855 11.2783 42.9102 11.1298C43.4349 10.9812 43.9248 12.8018 45.4862 13.7057C46.7915 14.4611 47.9547 13.987 49.6709 13.9207C50.306 13.9159 50.9404 13.9646 51.5673 14.066C51.5673 14.066 51.9055 14.1103 52.4365 14.2209C52.4782 14.2372 52.5242 14.2388 52.5669 14.2253C52.6096 14.2118 52.6464 14.1841 52.6712 14.1467C52.6959 14.1094 52.7072 14.0648 52.703 14.0202C52.6988 13.9756 52.6795 13.9338 52.6483 13.9017ZM33.2607 33.953C33.5459 33.5687 33.9702 33.3112 34.4428 33.2355C34.6485 33.2053 34.8582 33.2178 35.0588 33.2722C35.2595 33.3265 35.4468 33.4217 35.6091 33.5516C36.2412 34.1332 36.0547 35.2679 35.5079 35.919C35.0054 36.5195 34.0098 36.9146 33.3176 36.4658C33.1248 36.3166 32.9691 36.1248 32.8627 35.9055C32.7564 35.6862 32.7022 35.4452 32.7044 35.2015C32.7236 34.7296 32.9226 34.2828 33.2607 33.953Z" fill="white"/>
</svg>
