<svg width="64" height="64" viewBox="0 0 64 64" fill="none" xmlns="http://www.w3.org/2000/svg">
<g clip-path="url(#clip0_5226_9795)">
<mask id="mask0_5226_9795" style="mask-type:luminance" maskUnits="userSpaceOnUse" x="3" y="2" width="58" height="59">
<path d="M60.9255 2.60352H3.07422V60.4548H60.9255V2.60352Z" fill="white"/>
</mask>
<g mask="url(#mask0_5226_9795)">
<path d="M59.6789 30.3723C60.0923 31.0882 60.0923 31.9704 59.6789 32.6863L46.8415 54.9216C46.4281 55.6375 45.6641 56.0786 44.8374 56.0786H19.1623C18.3356 56.0786 17.5716 55.6375 17.1584 54.9216L4.32076 32.6863C3.9074 31.9704 3.9074 31.0882 4.32076 30.3723L17.1584 8.13699C17.5716 7.42103 18.3356 6.97998 19.1623 6.97998H44.8374C45.6641 6.97998 46.4281 7.42104 46.8415 8.13701L59.6789 30.3723Z" fill="#32A9C3"/>
<path d="M52.5328 42.0476C52.5328 42.8743 52.0917 43.6383 51.3757 44.0516L33.1484 54.5751C32.4325 54.9885 31.5503 54.9885 30.8344 54.5751L12.6072 44.0516C11.8913 43.6383 11.4502 42.8743 11.4502 42.0476V21.0006C11.4502 20.1739 11.8913 19.41 12.6072 18.9965L30.8345 8.4731C31.5505 8.05975 32.4325 8.05975 33.1484 8.4731L51.3757 18.9965C52.0917 19.41 52.5328 20.1739 52.5328 21.0006V42.0476Z" fill="white" fill-opacity="0.5"/>
<path d="M49.846 30.4377C50.218 31.082 50.218 31.8759 49.846 32.5203L41.7922 46.4699C41.4202 47.1142 40.7327 47.5112 39.9886 47.5112H23.881C23.137 47.5112 22.4494 47.1142 22.0774 46.4699L14.0236 32.5203C13.6516 31.8759 13.6516 31.082 14.0236 30.4377L22.0774 16.4881C22.4494 15.8438 23.137 15.4468 23.881 15.4468H39.9886C40.7327 15.4468 41.4202 15.8438 41.7922 16.4881L49.846 30.4377Z" fill="white" fill-opacity="0.5"/>
<path d="M42.6396 24.4088C43.1408 24.6981 43.4495 25.2329 43.4495 25.8116L43.4496 37.247C43.4496 37.8257 43.1408 38.3605 42.6397 38.6497L32.7364 44.3675C32.2352 44.6568 31.6177 44.6568 31.1166 44.3675L21.2132 38.6497C20.712 38.3605 20.4033 37.8257 20.4033 37.247V25.8116C20.4033 25.2329 20.712 24.6981 21.2132 24.4088L31.1166 18.6911C31.6177 18.4018 32.2352 18.4018 32.7364 18.6911L42.6396 24.4088Z" fill="white"/>
<path d="M39 26.92C39.358 27.1268 39.5786 27.5087 39.5786 27.9221V35.2638C39.5786 35.6771 39.358 36.0591 39 36.2657L32.642 39.9365C32.284 40.1433 31.8429 40.1433 31.4849 39.9365L25.1269 36.2657C24.7689 36.0591 24.5483 35.6771 24.5483 35.2638V27.9221C24.5483 27.5087 24.7689 27.1268 25.1269 26.92L31.4849 23.2492C31.8429 23.0426 32.284 23.0426 32.642 23.2492L39 26.92Z" fill="#32A9C3"/>
</g>
</g>
<defs>
<clipPath id="clip0_5226_9795">
<rect width="56" height="49.0578" fill="white" transform="translate(4 7)"/>
</clipPath>
</defs>
</svg>
