<svg width="64" height="64" viewBox="0 0 64 64" fill="none" xmlns="http://www.w3.org/2000/svg">
<g clip-path="url(#clip0_5226_9793)">
<path d="M26.8409 13.5354C26.8409 13.5354 21.6677 12.3528 17.465 14.1197C13.5261 15.7781 12.9655 18.9396 13.3188 20.7535C13.6722 22.5674 14.8124 24.1552 17.0975 24.3013C18.657 24.4002 19.1847 23.505 18.968 23.1281C18.8549 22.9349 17.2011 21.889 17.9597 20.5839C18.5957 19.4955 20.7395 20.4991 21.352 21.4461C21.9268 22.3319 22.6806 23.6134 22.6806 23.6134C22.6806 23.6134 29.1826 20.8289 29.0459 20.6498C28.9093 20.4708 26.8409 13.5354 26.8409 13.5354Z" fill="#E74B8C"/>
<path d="M26.5294 17.1631L24.494 15.3491L21.1582 19.3963L23.057 22.3552L27.9004 20.235L26.5294 17.1631Z" fill="#FCD817"/>
<path d="M16.3622 18.9302C16.1078 19.6794 16.3339 20.8808 15.3916 20.9845C14.421 21.0928 13.719 19.9197 14.308 18.0445C14.8168 16.4284 16.8239 15.4672 17.6013 16.7865C18.1714 17.7571 16.8239 17.5592 16.3622 18.9302Z" fill="#EF7FAD"/>
<path d="M21.0688 11.7451C20.9369 11.9666 18.6377 15.3494 18.6377 15.3494L20.8474 18.8643L23.5 17.5168L24.0513 14.8406L21.0688 11.7451Z" fill="#BBD047"/>
<path d="M18.548 9.15869L16.5361 11.6982L18.5056 15.1282L20.3383 14.2189L21.1817 11.8113L18.548 9.15869Z" fill="#62A5A8"/>
<path d="M15.8059 6.39258L14.416 7.85316L16.4702 11.547L17.6434 10.6848L18.4585 9.04517L15.8059 6.39258Z" fill="#38B2E8"/>
<path d="M13.1535 4.55997C12.6776 5.03583 14.4114 7.83449 14.4114 7.83449C14.4114 7.83449 15.693 6.37391 15.693 6.2891C15.6977 6.19487 13.7047 4.004 13.1535 4.55997Z" fill="#A37BCB"/>
<path d="M24.0564 14.6614C24.6971 14.4824 25.14 15.6791 24.5652 16.8947C24.0517 17.9783 23.3072 18.817 22.3084 19.373C21.8137 19.6462 21.0693 19.9478 20.7819 19.4154C20.4709 18.8453 20.8243 18.5532 21.4462 18.1103C22.0163 17.7004 22.5958 17.0926 22.9256 16.5178C23.2554 15.943 23.5758 14.7933 24.0564 14.6614Z" fill="#A364B2"/>
<path d="M21.0025 11.4575C21.5208 11.3068 21.9072 12.3433 21.4407 13.3846C21.0261 14.3127 20.5125 15.0525 19.7116 15.5283C19.3158 15.7639 18.7127 16.023 18.4819 15.566C18.2322 15.076 18.4677 14.7321 18.9672 14.3504C19.4289 14.0018 19.8294 13.361 20.0932 12.871C20.3618 12.381 20.6162 11.5706 21.0025 11.4575Z" fill="#A364B2"/>
<path d="M18.3597 8.63066C18.7885 8.74845 19.09 9.50701 18.7036 10.2844C18.3597 10.977 18.0252 11.3445 17.3561 11.6979C17.0216 11.8722 16.6353 12.0936 16.4233 11.8298C16.1547 11.5 16.0558 11.0288 16.4751 10.7461C16.8614 10.487 17.2949 10.1713 17.5823 9.62009C17.7755 9.23845 17.9639 8.5223 18.3597 8.63066Z" fill="#A364B2"/>
<path d="M15.5233 6.01097C15.8154 5.9403 16.1735 6.5528 15.9144 7.0428C15.6835 7.48097 15.3867 7.75895 14.9344 7.98511C14.7129 8.09818 14.4632 8.16414 14.3313 7.95213C14.19 7.72126 14.058 7.56107 14.3407 7.38203C14.5999 7.21713 14.9627 6.84491 15.1134 6.60934C15.2642 6.37847 15.3066 6.06751 15.5233 6.01097Z" fill="#A364B2"/>
<path d="M26.4588 58.3374C25.983 58.0217 28.3434 49.8142 29.2716 47.6281C30.1998 45.4372 30.751 43.6044 30.751 43.6044C30.751 43.6044 26.3081 44.2876 23.434 44.3111C21.2432 44.33 18.0629 44.0473 18.0629 44.0473L11.6929 35.689C11.6929 35.689 13.4833 32.4381 14.5434 31.1141C15.6034 29.7855 18.7884 25.4744 20.3809 23.9526C21.9734 22.426 24.1596 20.8335 25.0925 20.4378C26.0207 20.042 26.619 19.7735 26.619 19.7735C26.619 19.7735 26.1526 16.923 26.3552 15.1326C26.5531 13.3422 29.0926 8.34326 29.4931 8.34326C30.0255 8.34326 32.3247 11.7497 32.7864 14.0678C33.2529 16.3859 38.2942 22.8878 38.2942 22.8878L53.0178 50.7471C53.0178 50.7471 53.2816 58.1772 53.2157 58.4411C53.1497 58.7049 44.9893 59.8357 40.0139 59.8357C35.0385 59.8357 26.8593 58.606 26.4588 58.3374Z" fill="#DFDFDF"/>
<path d="M36.49 34.5348C36 34.5113 34.6007 37.3146 33.1967 39.3783C32.0141 41.1121 30.6289 41.9461 29.1495 42.7188C27.6229 43.515 25.3567 44.0333 26.1294 44.1888C26.9021 44.3442 31.5146 43.8307 33.06 43.1805C33.9317 42.8177 35.1472 41.0226 35.7692 39.8306C36.3911 38.6386 37.5077 34.5772 36.49 34.5348Z" fill="#B0B0B0"/>
<path d="M28.1122 29.1446C28.2111 30.6052 27.6787 31.8631 26.1569 31.9621C25.0827 32.0328 24.277 30.9444 24.1403 29.6157C24.032 28.5792 24.4654 27.2411 25.8836 27.0432C27.217 26.8548 28.0179 27.8112 28.1122 29.1446Z" fill="#303030"/>
<path d="M32.7201 14.0865C32.7201 14.0865 36.7202 15.8864 38.2609 15.5471C39.4529 15.2833 39.8675 14.4211 39.9193 13.5589C39.9853 12.3998 38.9582 12.5317 38.7933 12.0653C38.6284 11.5989 39.8534 10.7696 41.281 11.0382C42.7086 11.302 44.4094 12.6213 44.3765 14.7414C44.3435 16.8616 43.0384 18.0018 43.0384 18.0018C43.0384 18.0018 46.4778 17.8369 48.777 20.1927C51.3637 22.8453 50.7983 27.1893 50.7983 27.1893C50.7983 27.1893 52.1599 27.3872 52.6546 26.6899C53.1493 25.9926 53.0174 25.1964 52.6876 24.7346C52.3578 24.2682 53.319 23.9714 53.9456 24.2352C54.5769 24.499 57.4887 26.5863 55.9056 29.955C54.9256 32.0469 52.452 32.3626 52.452 32.3626C52.452 32.3626 56.5982 34.1954 58.1153 38.8174C59.7832 43.9059 57.9598 47.2888 56.0705 50.535C54.1812 53.786 54.3508 53.9791 54.2471 55.044C54.1152 56.3726 53.7147 58.0311 53.22 57.9934C52.7206 57.9604 52.1269 56.5658 51.8254 55.044C51.5286 53.5174 49.6675 52.0239 48.1787 50.6669C46.6898 49.31 42.9489 45.7245 41.8746 42.4453C40.513 38.2991 41.2103 32.5275 41.2103 32.5275C41.2103 32.5275 37.0971 30.6382 34.8073 26.8548C32.3291 22.7605 32.5505 19.7592 32.5505 19.7592C32.5505 19.7592 33.1818 17.9689 33.2148 16.7391C33.2478 15.5094 32.7201 14.0865 32.7201 14.0865Z" fill="#E74B8C"/>
<path d="M39.1896 16.9421C39.477 18.1765 41.7433 17.5404 42.1767 15.4485C42.6102 13.3566 41.4134 12.4284 40.7161 12.8289C40.0188 13.2247 40.881 14.2895 40.4193 15.1847C39.9576 16.0799 38.954 15.9432 39.1896 16.9421Z" fill="#F081AF"/>
<path d="M50.6855 28.9843C50.2898 30.1905 52.3581 30.6098 53.9789 29.3094C55.6421 27.9714 55.1709 25.9925 54.2098 26.0915C52.9895 26.2187 53.5077 27.5992 52.6455 28.1221C51.7833 28.6498 51.0059 28.0185 50.6855 28.9843Z" fill="#F081AF"/>
<path d="M36.5698 18.4968C34.9773 18.2989 34.7559 21.4038 35.7406 23.5381C37.3001 26.921 39.8868 26.2897 41.6771 28.4806C43.0623 30.1767 42.7372 32.3629 44.1648 32.3299C45.5924 32.2969 45.9552 29.9081 43.7691 26.9917C41.5782 24.0753 38.8267 24.0753 37.9974 22.3179C37.1635 20.5557 38.4262 18.7324 36.5698 18.4968Z" fill="#F081AF"/>
<path d="M44.6593 33.5219C42.8359 34.5631 44.1363 36.9236 45.1257 37.1356C46.5203 37.4325 47.147 36.5043 47.3166 35.5761C47.4862 34.648 46.5156 32.4618 44.6593 33.5219Z" fill="#F081AF"/>
<path d="M46.0544 39.1282C44.6126 39.3638 44.7728 40.8102 45.0273 42.2802C45.4607 44.8009 46.7847 47.2226 48.3442 48.5136C49.8519 49.7621 50.7 49.3758 51.1287 48.8764C51.6376 48.2921 51.1617 47.2509 50.5633 46.5536C49.965 45.8563 49.1923 44.9611 48.674 44.1978C48.0426 43.2696 47.9673 42.0635 47.8448 41.3803C47.6139 40.0564 47.4773 38.8926 46.0544 39.1282Z" fill="#F081AF"/>
<path d="M8.11205 45.7957C9.57263 48.5519 12.9885 47.8499 12.9885 47.8499C12.9885 47.8499 16.2065 46.3893 16.2065 46.2904C16.2065 46.1914 18.3267 43.5059 18.3267 43.5059C18.3267 43.5059 17.7613 41.0841 15.5751 38.4315C13.846 36.3396 12.0273 35.3125 12.0273 35.3125L8.04609 38.8933C8.04609 38.8933 6.05782 41.9134 8.11205 45.7957Z" fill="white"/>
<path d="M10.7319 38.5303C10.501 39.3925 11.2643 39.7223 11.5281 40.0238C11.792 40.3207 11.1653 41.5833 12.0605 41.9132C12.9557 42.243 13.9828 40.7541 13.653 39.4584C13.295 38.0732 11.0805 37.2393 10.7319 38.5303Z" fill="#90909B"/>
<path d="M12.423 35.204C12.1921 34.7611 11.6833 34.9825 11.1839 35.449C10.6844 35.9154 7.86694 37.9697 7.07069 39.8496C6.48646 41.23 6.06713 43.8921 7.58424 46.0594C9.1579 48.3115 10.5714 48.5282 12.7245 48.3492C15.8766 48.0853 17.6198 45.4987 17.9543 45.0652C18.2889 44.6318 19.0144 43.6942 18.6187 43.2324C18.2229 42.766 17.8507 43.4398 17.3371 44.1371C16.6728 45.0323 16.1451 45.5741 15.4808 46.1724C15.0944 46.5211 13.9872 47.1242 13.5255 47.2231C13.0591 47.3221 14.4442 46.5258 14.9861 45.5976C15.3536 44.971 16.1121 43.4774 16.1121 43.4774L14.8165 43.0817C14.8165 43.0817 14.1851 44.4527 13.6904 45.0511C13.191 45.6495 11.6362 46.997 11.1697 47.0959C10.7033 47.1948 8.94588 46.4127 8.16376 45.0087C7.40992 43.6612 7.29213 41.7248 8.0554 40.1982C8.81867 38.6717 10.741 37.1122 11.3393 36.6504C11.9283 36.1746 12.7198 35.7694 12.423 35.204Z" fill="#AFAFAF"/>
<path d="M16.2062 42.1909C15.8481 41.8799 15.2544 42.1014 14.9482 42.5207C14.6372 42.94 14.5289 43.4253 15.1461 43.7598C15.7633 44.0896 16.1638 43.7363 16.4512 43.3405C16.7339 42.94 16.536 42.4783 16.2062 42.1909Z" fill="#90909B"/>
</g>
<defs>
<clipPath id="clip0_5226_9793">
<rect width="52.7692" height="56" fill="white" transform="translate(6 4)"/>
</clipPath>
</defs>
</svg>
