<svg width="64" height="64" viewBox="0 0 64 64" fill="none" xmlns="http://www.w3.org/2000/svg">
<path fill-rule="evenodd" clip-rule="evenodd" d="M32.4 4V18V18.1523C32.3997 19.3397 32.3994 20.4937 32.5274 21.4455C32.6716 22.5184 33.0233 23.7428 34.0402 24.7598C35.0572 25.7768 36.2816 26.1283 37.3546 26.2725C38.3063 26.4006 39.4602 26.4003 40.6477 26.4H40.8H54.8V43.2C54.8 51.1195 54.8 55.0793 52.3396 57.5396C49.8793 60 45.9195 60 38 60H26.8C18.8804 60 14.9206 60 12.4603 57.5396C10 55.0793 10 51.1195 10 43.2V20.8C10 12.8804 10 8.92061 12.4603 6.4603C14.9206 4 18.8804 4 26.8 4H32.4ZM38 4.01294V18C38 19.3991 38.0059 20.1667 38.0776 20.6993L38.0804 20.7197L38.1008 20.7225C38.6334 20.7941 39.4008 20.8 40.8 20.8H54.7871C54.7586 19.6474 54.667 18.8847 54.3738 18.1766C53.9474 17.1475 53.1382 16.3382 51.5195 14.7196L44.0805 7.2804C42.4618 5.66183 41.6526 4.85254 40.6233 4.42627C39.9152 4.13297 39.1525 4.04147 38 4.01294ZM21.2 34.8C21.2 33.2536 22.4536 32 24 32H40.8C42.3464 32 43.6 33.2536 43.6 34.8C43.6 36.3464 42.3464 37.6 40.8 37.6H24C22.4536 37.6 21.2 36.3464 21.2 34.8ZM24 43.2C22.4536 43.2 21.2 44.4536 21.2 46C21.2 47.5464 22.4536 48.8 24 48.8H35.2C36.7464 48.8 38 47.5464 38 46C38 44.4536 36.7464 43.2 35.2 43.2H24Z" fill="#EF4444"/>
</svg>
