<svg width="826" height="192" viewBox="0 0 826 192" fill="none" xmlns="http://www.w3.org/2000/svg">
<path d="M243.787 131.53L276.08 60.4663H291.829L323.624 131.53H308.476L301.501 115.781H265.523L258.05 131.53H243.801H243.787ZM284.148 73.8231L272.188 101.332H295.811L284.252 73.8231H284.155H284.148Z" fill="white"/>
<path d="M346.638 110.402C348.235 119.77 356.607 121.063 362.387 121.063C367.869 121.063 376.241 119.466 376.241 112.193C376.241 97.0454 333.883 106.807 333.883 80.2043C333.883 65.5547 347.634 58.6758 360.493 58.6758C375.343 58.6758 388.997 65.1537 388.997 81.6008L373.849 79.4092C371.955 71.1407 364.682 70.8365 359.794 70.8365C354.907 70.8365 349.03 72.9313 349.03 78.9114C349.03 84.1933 352.418 85.3893 370.261 89.6757C375.543 90.9685 391.389 94.2593 391.389 110.402C391.389 123.462 381.226 133.223 361.785 133.223C345.836 133.223 331.491 125.453 331.491 107.906L346.638 110.395V110.402Z" fill="white"/>
<path d="M425.666 73.5257H403.045V60.4731H463.738V73.6294H441.311V131.536H425.666V73.5326V73.5257Z" fill="white"/>
<path d="M520.241 105.224L540.173 131.633H521.036L503.096 106.019H495.422V131.633H479.673V60.3765H511.766C529.706 60.3765 536.578 71.6385 536.578 83.1978C536.578 92.8628 531.497 102.631 519.633 105.224H520.235H520.241ZM495.429 72.5372V93.962H507.59C515.063 93.962 521.244 92.2682 521.244 83.1978C521.244 74.1273 515.063 72.5372 507.59 72.5372H495.429Z" fill="white"/>
<path d="M549.838 131.53L582.131 60.4663H597.88L629.675 131.53H614.528L607.552 115.781H571.574L564.101 131.53H549.852H549.838ZM590.199 73.8231L578.239 101.332H601.862L590.303 73.8231H590.206H590.199Z" fill="white"/>
<path d="M640.528 131.031V60.0718H655.876V117.875H692.351V131.031H640.528Z" fill="white"/>
<path d="M715.477 103.827L689.269 60.3765H706.912L723.552 88.4796L740.096 60.3765H757.539L731.13 104.228V131.537H715.484V103.827H715.477Z" fill="white"/>
<path d="M781.155 110.402C782.752 119.77 791.124 121.063 796.904 121.063C802.386 121.063 810.759 119.466 810.759 112.193C810.759 97.0454 768.4 106.807 768.4 80.2043C768.4 65.5547 782.151 58.6758 795.01 58.6758C809.86 58.6758 823.514 65.1537 823.514 81.6008L808.367 79.4092C806.472 71.1407 799.199 70.8365 794.311 70.8365C789.424 70.8365 783.547 72.9313 783.547 78.9114C783.547 84.1933 786.935 85.3893 804.778 89.6757C810.06 90.9685 825.906 94.2593 825.906 110.402C825.906 123.462 815.743 133.223 796.303 133.223C780.36 133.223 766.008 125.453 766.008 107.906L781.155 110.395V110.402Z" fill="white"/>
<path d="M202.264 191.479H179.74C179.519 191.479 179.298 191.479 179.077 191.458C147.772 191.147 128.933 156.476 145.138 129.673L155.467 112.603C162.961 100.235 160.521 83.9196 149.128 74.9874C142.767 70.0235 134.72 67.9633 126.714 69.3598C118.425 70.7771 111.304 76.0106 106.962 83.1936L105.967 84.8529L102.731 90.2384L61.4926 159.919C57.628 166.452 62.3361 174.714 69.9271 174.714C72.9482 174.714 75.7966 173.324 77.6563 170.946L113.509 125.006C113.731 124.716 114.076 124.55 114.443 124.55C115.314 124.55 115.888 125.462 115.507 126.244L89.9415 179.36C86.3742 186.771 78.8731 191.486 70.653 191.486H23.3719C5.45915 191.486 -5.78212 172.135 3.10858 156.594L82.9382 16.6448C95.5275 -5.38838 127.205 -5.58887 140.064 16.2922L165.471 59.4736L222.376 156.324C231.508 171.866 220.315 191.486 202.271 191.486L202.264 191.479ZM129.542 80.4213L125.179 93.8542C125.076 94.1791 124.771 94.4003 124.426 94.4003H110.302C109.534 94.4003 109.216 95.382 109.838 95.8314L121.266 104.134C121.543 104.335 121.66 104.694 121.557 105.019L117.194 118.452C116.959 119.185 117.796 119.787 118.411 119.337L129.839 111.034C130.116 110.834 130.496 110.834 130.772 111.034L142.2 119.337C142.822 119.787 143.659 119.178 143.417 118.452L139.055 105.019C138.951 104.694 139.062 104.335 139.345 104.134L150.773 95.8314C151.395 95.382 151.077 94.4003 150.31 94.4003H136.186C135.84 94.4003 135.536 94.1791 135.432 93.8542L131.07 80.4213C130.835 79.6885 129.798 79.6885 129.562 80.4213H129.542Z" fill="white"/>
</svg>
