<svg width="640" height="220" viewBox="0 0 640 220" fill="none" xmlns="http://www.w3.org/2000/svg">
<path d="M0 32C0 14.3269 14.3269 0 32 0H608C625.673 0 640 14.3269 640 32V188C640 205.673 625.673 220 608 220H32C14.3269 220 0 205.673 0 188V32Z" fill="#030712"/>
<g clip-path="url(#clip0_5276_9741)">
<path d="M232.849 97.4848L212.958 86.0006C212.713 85.8591 212.436 85.7847 212.153 85.7847C211.871 85.7847 211.593 85.8591 211.348 86.0006L191.457 97.4848C191.212 97.6258 191.009 97.8288 190.868 98.0732C190.726 98.3177 190.652 98.595 190.651 98.8774V121.846C190.651 122.42 190.959 122.951 191.457 123.24L211.348 134.724C211.846 135.011 212.459 135.011 212.958 134.724L232.849 123.24C233.347 122.953 233.653 122.422 233.653 121.846V98.8774C233.653 98.3016 233.347 97.7719 232.849 97.4832V97.4848Z" fill="#8080F2"/>
<path d="M160.434 107.946L184.202 66.5982C185.065 65.1024 186.66 64 188.386 64H235.92C237.647 64 239.241 65.1024 240.106 66.5982L263.872 107.855C264.296 108.598 264.519 109.438 264.519 110.293C264.519 111.149 264.296 111.989 263.872 112.731L240.106 153.741C239.241 155.235 237.647 156 235.92 156H188.386C186.66 156 185.065 155.259 184.202 153.763L160.436 112.687C160.011 111.969 159.788 111.15 159.788 110.316C159.788 109.481 160.011 108.663 160.436 107.944L160.434 107.946ZM180.114 127.827C180.114 128.436 180.48 128.998 181.007 129.303L211.281 146.768C211.808 147.073 212.468 147.073 212.994 146.768L243.291 129.303C243.818 128.998 244.186 128.436 244.186 127.827V92.8943C244.186 92.2868 243.822 91.7237 243.297 91.4192L213.021 73.9566C212.761 73.8072 212.466 73.7285 212.166 73.7285C211.865 73.7285 211.57 73.8072 211.31 73.9566L181.01 91.4208C180.484 91.7253 180.112 92.2884 180.112 92.8959V127.829L180.114 127.827Z" fill="#4B32C3"/>
<path d="M296.519 133.333V86.6672H326.253V93.9336H304.585V106.2H324.386V113.468H304.587V126.067H326.586V133.333H296.519ZM347.63 134.268C344.075 134.268 340.919 133.644 338.164 132.401C335.453 131.111 333.319 129.266 331.763 126.866C330.209 124.466 329.43 121.534 329.43 118.068V116.334H337.364V118.068C337.364 121.134 338.297 123.423 340.164 124.933C342.031 126.444 344.519 127.201 347.63 127.201C350.787 127.201 353.164 126.556 354.763 125.266C356.364 123.978 357.163 122.311 357.163 120.266C357.163 118.889 356.786 117.777 356.031 116.934C355.276 116.045 354.164 115.333 352.696 114.8C351.275 114.267 349.541 113.756 347.497 113.266L345.497 112.867C342.43 112.156 339.764 111.268 337.497 110.202C335.275 109.09 333.564 107.667 332.364 105.935C331.164 104.2 330.564 101.933 330.564 99.1332C330.564 96.3335 331.23 93.9336 332.564 91.9334C333.897 89.9348 335.786 88.4009 338.23 87.3334C340.675 86.2675 343.541 85.7329 346.831 85.7329C350.119 85.7329 353.053 86.2881 355.631 87.4C358.208 88.5104 360.231 90.1775 361.697 92.3997C363.208 94.622 363.963 97.401 363.963 100.734V102.934H356.031V100.734C356.031 98.8223 355.653 97.2884 354.896 96.1337C354.141 94.9773 353.075 94.135 351.697 93.6005C350.319 93.0675 348.698 92.801 346.831 92.801C344.075 92.801 341.986 93.334 340.563 94.3999C339.142 95.4675 338.43 96.9775 338.43 98.9333C338.43 100.178 338.741 101.244 339.364 102.134C340.031 102.978 340.985 103.689 342.231 104.268C343.519 104.801 345.119 105.267 347.03 105.667L349.031 106.133C352.23 106.845 355.03 107.756 357.431 108.866C359.831 109.934 361.697 111.356 363.031 113.133C364.409 114.911 365.097 117.222 365.097 120.066C365.097 122.868 364.365 125.333 362.897 127.468C361.474 129.601 359.452 131.267 356.83 132.467C354.252 133.666 351.186 134.268 347.63 134.268ZM370.124 133.333V86.6672H378.19V126.067H400.057V133.333H370.124ZM404.588 133.333V100.401H412.255V133.333H404.588ZM408.388 96.2003C407.01 96.2003 405.811 95.7561 404.789 94.8679C403.81 93.9336 403.322 92.7106 403.322 91.2006C403.322 89.6889 403.81 88.4882 404.789 87.5999C405.763 86.6856 407.053 86.1841 408.388 86.2008C409.855 86.2008 411.055 86.6672 411.989 87.5999C412.966 88.4882 413.454 89.6889 413.454 91.2006C413.454 92.7122 412.966 93.9336 411.989 94.8663C411.055 95.7546 409.855 96.2003 408.388 96.2003ZM419.971 133.333V100.401H427.505V105.001H428.638C429.215 103.755 430.26 102.578 431.77 101.466C433.282 100.356 435.571 99.801 438.637 99.801C441.172 99.801 443.415 100.378 445.371 101.533C447.308 102.669 448.881 104.334 449.904 106.333C451.016 108.379 451.571 110.8 451.571 113.601V133.333H443.905V114.201C443.905 111.534 443.237 109.556 441.905 108.268C440.615 106.934 438.77 106.266 436.37 106.266C433.66 106.266 431.526 107.178 429.972 109.001C428.416 110.778 427.638 113.334 427.638 116.667V133.333H419.971ZM470.609 133.333C468.475 133.333 466.764 132.712 465.476 131.466C464.231 130.178 463.609 128.445 463.609 126.267V106.734H455.008V100.401H463.609V89.7999H471.275V100.401H480.741V106.734H471.275V125.001C471.275 126.333 471.898 127 473.142 127H479.742V133.333H470.609Z" fill="#F3F4F6"/>
</g>
<defs>
<clipPath id="clip0_5276_9741">
<rect width="322" height="92" fill="white" transform="translate(159 64)"/>
</clipPath>
</defs>
</svg>
