<svg width="64" height="64" viewBox="0 0 64 64" fill="none" xmlns="http://www.w3.org/2000/svg">
<path d="M19.4911 24.0171L31.6337 17.0066C31.9376 16.8311 32.3122 16.8311 32.616 17.0066L44.7589 24.0171C45.0625 24.1926 45.25 24.5168 45.25 24.8678V38.8887C45.25 39.2394 45.0625 39.5639 44.7589 39.7396L32.616 46.7501C32.3122 46.9256 31.9376 46.9256 31.6337 46.7501L19.4911 39.7396C19.1873 39.5641 19 39.2397 19 38.8887V24.8678C19.0003 24.5168 19.1875 24.1926 19.4911 24.0171Z" fill="#8080F2"/>
<path d="M63.6042 30.7291L49.0808 5.46245C48.5532 4.54888 47.5787 3.875 46.5238 3.875H17.4765C16.4214 3.875 15.4466 4.54888 14.9191 5.46245L0.395668 30.6734C-0.131889 31.5873 -0.131889 32.7405 0.395668 33.6543L14.9191 58.714C15.4466 59.6275 16.4214 60.0946 17.4765 60.0946H46.5236C47.5784 60.0946 48.5532 59.6416 49.0805 58.7278L63.6039 33.6272C64.132 32.7139 64.132 31.6427 63.6042 30.7291ZM51.578 42.8791C51.578 43.2506 51.3544 43.5942 51.0324 43.7801L32.5327 54.4536C32.211 54.6393 31.8079 54.6393 31.4862 54.4536L12.9722 43.7801C12.6505 43.5942 12.4253 43.2508 12.4253 42.8791V21.532C12.4253 21.1603 12.6472 20.8169 12.9692 20.631L31.4681 9.95751C31.7899 9.77153 32.1924 9.77153 32.5142 9.95751L51.0294 20.631C51.3514 20.8169 51.578 21.1603 51.578 21.532V42.8791Z" fill="#4B32C3"/>
</svg>
